<svg width="28" height="28" viewBox="0 0 28 28" fill="none" xmlns="http://www.w3.org/2000/svg">
<rect x="0.75" y="0.75" width="26.5" height="26.5" rx="13.25" stroke="#F2C94C" stroke-width="1.5"/>
<path d="M10.364 17.908L14.074 14.03C14.3353 13.75 14.5453 13.5027 14.704 13.288C14.872 13.064 14.9933 12.854 15.068 12.658C15.1427 12.4527 15.18 12.2473 15.18 12.042C15.18 11.6313 15.0447 11.3093 14.774 11.076C14.5127 10.8427 14.172 10.726 13.752 10.726C13.3227 10.726 12.94 10.838 12.604 11.062C12.2773 11.286 11.9693 11.6407 11.68 12.126L10.378 11.02C10.77 10.3573 11.2553 9.858 11.834 9.522C12.422 9.17667 13.094 9.004 13.85 9.004C14.494 9.004 15.054 9.13 15.53 9.382C16.0153 9.634 16.3887 9.984 16.65 10.432C16.9113 10.88 17.042 11.4027 17.042 12C17.042 12.4013 16.9907 12.7653 16.888 13.092C16.7947 13.4187 16.6313 13.7453 16.398 14.072C16.174 14.3893 15.8613 14.7487 15.46 15.15L12.758 17.908H10.364ZM10.364 19V17.908L11.988 17.348H17.252V19H10.364Z" fill="#F2C94C"/>
</svg>
