<svg width="28" height="28" viewBox="0 0 28 28" fill="none" xmlns="http://www.w3.org/2000/svg">
<rect x="0.75" y="0.75" width="26.5" height="26.5" rx="13.25" stroke="#F2C94C" stroke-width="1.5"/>
<path d="M13.486 19.14C12.8233 19.14 12.2167 19.0233 11.666 18.79C11.1153 18.5473 10.6533 18.202 10.28 17.754L11.54 16.508C11.7267 16.788 11.9927 17.012 12.338 17.18C12.6833 17.348 13.0567 17.432 13.458 17.432C13.8313 17.432 14.1533 17.3667 14.424 17.236C14.6947 17.096 14.9047 16.9047 15.054 16.662C15.2127 16.41 15.292 16.1207 15.292 15.794C15.292 15.4487 15.2127 15.1547 15.054 14.912C14.9047 14.6693 14.6853 14.4827 14.396 14.352C14.1067 14.2213 13.7613 14.156 13.36 14.156C13.1827 14.156 13.0007 14.17 12.814 14.198C12.6273 14.2167 12.4687 14.2493 12.338 14.296L13.178 13.232C13.4113 13.1573 13.64 13.0967 13.864 13.05C14.0973 12.994 14.312 12.966 14.508 12.966C15.012 12.966 15.4647 13.0873 15.866 13.33C16.2767 13.5633 16.5987 13.8993 16.832 14.338C17.0747 14.7673 17.196 15.276 17.196 15.864C17.196 16.5173 17.042 17.0913 16.734 17.586C16.426 18.0713 15.992 18.454 15.432 18.734C14.8813 19.0047 14.2327 19.14 13.486 19.14ZM12.338 14.296V13.204L14.858 10.278L17.042 10.25L14.438 13.232L12.338 14.296ZM10.826 10.81V9.158H17.042V10.25L15.488 10.81H10.826Z" fill="#F2C94C"/>
</svg>
