<svg width="60" height="60" viewBox="0 0 60 60" fill="none" xmlns="http://www.w3.org/2000/svg">
<rect x="0.5" y="0.5" width="59" height="59" rx="4.5" stroke="white" stroke-opacity="0.101961"/>
<path d="M31.9075 37.6498C31.5072 38.9733 30.7708 40.1705 29.77 41.1245C28.7692 42.0785 27.5382 42.7569 26.1971 43.0934C24.856 43.4299 23.4506 43.4131 22.1179 43.0446C20.7852 42.6761 19.5708 41.9685 18.5931 40.9908C17.6154 40.0131 16.9078 38.7987 16.5393 37.4661C16.1708 36.1334 16.154 34.728 16.4906 33.3869C16.8271 32.0458 17.5055 30.8148 18.4595 29.814C19.4135 28.8132 20.6107 28.0768 21.9341 27.6765M33.582 22.002H34.9154V27.3354M21.7604 33.6921L22.9151 33.0255L25.5818 37.6441M42.9154 24.6687C42.9154 29.087 39.3336 32.6687 34.9154 32.6687C30.4971 32.6687 26.9154 29.087 26.9154 24.6687C26.9154 20.2504 30.4971 16.6687 34.9154 16.6687C39.3336 16.6687 42.9154 20.2504 42.9154 24.6687Z" stroke="#F2C94C" stroke-width="2" stroke-linecap="round"/>
</svg>
