<svg width="24" height="24" viewBox="0 0 24 24" fill="none" xmlns="http://www.w3.org/2000/svg">
<path d="M13.6665 3.66407H7.00048C6.5585 3.66407 6.13462 3.83967 5.82209 4.15226C5.50956 4.46484 5.33398 4.8888 5.33398 5.33086V18.6653C5.33398 19.1073 5.50956 19.5313 5.82209 19.8439C6.13462 20.1565 6.5585 20.3321 7.00048 20.3321H16.9995C17.4415 20.3321 17.8653 20.1565 18.1779 19.8439C18.4904 19.5313 18.666 19.1073 18.666 18.6653V8.66446M13.6665 3.66407C13.9303 3.66364 14.1915 3.7154 14.4352 3.81638C14.6789 3.91736 14.9002 4.06556 15.0863 4.25245L18.076 7.24268C18.2634 7.42895 18.412 7.6505 18.5132 7.89454C18.6145 8.13857 18.6664 8.40025 18.666 8.66446M13.6665 3.66407V7.83106C13.6665 8.05209 13.7543 8.26407 13.9105 8.42036C14.0668 8.57666 14.2787 8.66446 14.4997 8.66446L18.666 8.66446M10.3335 9.49786H8.66698M15.333 12.8315H8.66698M15.333 16.1651H8.66698" stroke="#C5A059" stroke-width="2" stroke-linecap="round"/>
</svg>
