<svg width="24" height="24" viewBox="0 0 24 24" fill="none" xmlns="http://www.w3.org/2000/svg">
<path d="M9.50025 11.9977L11.1667 13.6644L14.4997 10.3309M18.666 12.8314C18.666 16.9982 15.7496 19.0816 12.2833 20.29C12.1018 20.3515 11.9046 20.3486 11.725 20.2816C8.25037 19.0816 5.334 16.9982 5.334 12.8314V6.99788C5.334 6.77686 5.42179 6.56489 5.57805 6.4086C5.73432 6.25232 5.94626 6.16452 6.16725 6.16452C7.83375 6.16452 9.91687 5.16449 11.3667 3.89778C11.5433 3.74694 11.7678 3.66406 12 3.66406C12.2322 3.66406 12.4567 3.74694 12.6333 3.89778C14.0915 5.17282 16.1662 6.16452 17.8327 6.16452C18.0537 6.16452 18.2657 6.25232 18.4219 6.4086C18.5782 6.56489 18.666 6.77686 18.666 6.99788V12.8314Z" stroke="#C5A059" stroke-width="2" stroke-linecap="round"/>
</svg>
