<svg width="60" height="60" viewBox="0 0 60 60" fill="none" xmlns="http://www.w3.org/2000/svg">
<rect x="0.5" y="0.5" width="59" height="59" rx="4.5" stroke="white" stroke-opacity="0.101961"/>
<path d="M30.0083 42.4389C35.2078 40.6263 39.5823 37.5012 39.5823 31.251V22.5007C39.5823 22.1692 39.4507 21.8512 39.2163 21.6168C38.9819 21.3824 38.664 21.2507 38.3325 21.2507C35.8327 21.2507 32.7205 19.7631 30.5333 17.8506C30.2685 17.6243 29.9316 17.5 29.5834 17.5C29.2351 17.5 28.8982 17.6243 28.6334 17.8506C26.4587 19.7506 23.334 21.2507 20.8342 21.2507C20.5027 21.2507 20.1848 21.3824 19.9504 21.6168C19.716 21.8512 19.5844 22.1692 19.5844 22.5007V31.251C19.5844 37.5012 23.9589 40.6263 29.1709 42.4264C29.4403 42.5267 29.736 42.5311 30.0083 42.4389Z" stroke="#C9A44C" stroke-width="2.5" stroke-linecap="round"/>
</svg>
