<svg width="24" height="24" viewBox="0 0 24 24" fill="none" xmlns="http://www.w3.org/2000/svg">
<g clip-path="url(#clip0_11920_35308)">
<path d="M19.6758 15.2432C19.1457 16.4969 18.3164 17.6017 17.2606 18.461C16.2047 19.3202 14.9545 19.9078 13.6191 20.1722C12.2837 20.4367 10.9039 20.37 9.60024 19.9781C8.29658 19.5861 7.10879 18.8808 6.14071 17.9238C5.17264 16.9667 4.45375 15.7872 4.04691 14.4881C3.64006 13.1891 3.55764 11.8102 3.80686 10.472C4.05607 9.13376 4.62933 7.87695 5.47652 6.81143C6.32371 5.74592 7.41902 4.90415 8.66671 4.35971M19.5005 12.0018C19.9605 12.0018 20.3381 11.6276 20.2922 11.1701C20.1001 9.25686 19.2522 7.46894 17.8923 6.10944C16.5324 4.74994 14.7442 3.90251 12.8309 3.71081C12.3725 3.66497 11.9991 4.04248 11.9991 4.50249V11.1692C11.9991 11.3903 12.0869 11.6022 12.2432 11.7585C12.3995 11.9148 12.6115 12.0026 12.8325 12.0026L19.5005 12.0018Z" stroke="#C5A059" stroke-width="2" stroke-linecap="round"/>
</g>
<defs>
<clipPath id="clip0_11920_35308">
<rect width="20" height="20" fill="white" transform="translate(2 2)"/>
</clipPath>
</defs>
</svg>
