<svg width="24" height="24" viewBox="0 0 24 24" fill="none" xmlns="http://www.w3.org/2000/svg">
<path d="M15.3336 11.1667L17.0004 12.8333L20.334 9.5M15.3336 19.5V17.8333C15.3336 16.9493 14.9824 16.1014 14.3572 15.4763C13.7321 14.8512 12.8841 14.5 12 14.5H6.99962C6.11549 14.5 5.26758 14.8512 4.6424 15.4763C4.01723 16.1014 3.66602 16.9493 3.66602 17.8333V19.5M12.8334 7.83333C12.8334 9.67428 11.3409 11.1667 9.49982 11.1667C7.65872 11.1667 6.16622 9.67428 6.16622 7.83333C6.16622 5.99238 7.65872 4.5 9.49982 4.5C11.3409 4.5 12.8334 5.99238 12.8334 7.83333Z" stroke="#C5A059" stroke-width="2" stroke-linecap="round"/>
</svg>
