<svg width="40" height="40" viewBox="0 0 40 40" fill="none" xmlns="http://www.w3.org/2000/svg">
<path d="M25.5852 21.5134L28.2364 36.0083C28.2661 36.179 28.2415 36.3544 28.1658 36.5111C28.0901 36.6678 27.9669 36.7983 27.8128 36.8852C27.6587 36.9721 27.4809 37.0112 27.3033 36.9972C27.1257 36.9833 26.9567 36.9171 26.8189 36.8073L20.5539 32.2392C20.2515 32.0197 19.8841 31.9011 19.5065 31.9011C19.129 31.9011 18.7616 32.0197 18.4592 32.2392L12.1837 36.8056C12.046 36.9152 11.8772 36.9813 11.6998 36.9953C11.5224 37.0092 11.3448 36.9702 11.1908 36.8836C11.0368 36.797 10.9137 36.6668 10.8378 36.5104C10.7619 36.354 10.7369 36.1788 10.7662 36.0083L13.4157 21.5134M30 13.2005C30 18.8341 25.299 23.401 19.5 23.401C13.701 23.401 9 18.8341 9 13.2005C9 7.56693 13.701 3 19.5 3C25.299 3 30 7.56693 30 13.2005Z" stroke="#FAD06B" stroke-width="2" stroke-linecap="round"/>
</svg>
