<svg width="24" height="24" viewBox="0 0 24 24" fill="none" xmlns="http://www.w3.org/2000/svg">
<path d="M14.8977 12.7388L16.1602 19.8438C16.1743 19.9274 16.1626 20.0134 16.1266 20.0902C16.0905 20.167 16.0319 20.231 15.9585 20.2736C15.8851 20.3162 15.8004 20.3353 15.7159 20.3285C15.6313 20.3217 15.5508 20.2892 15.4852 20.2354L12.5019 17.9963C12.3578 17.8887 12.1829 17.8305 12.0031 17.8305C11.8233 17.8305 11.6484 17.8887 11.5044 17.9963L8.51603 20.2346C8.45047 20.2883 8.37008 20.3207 8.28561 20.3276C8.20114 20.3344 8.11659 20.3153 8.04325 20.2728C7.96991 20.2304 7.91126 20.1665 7.87513 20.0899C7.839 20.0132 7.82711 19.9274 7.84103 19.8438L9.1027 12.7388M17 8.66406C17 11.4255 14.7614 13.6641 12 13.6641C9.23858 13.6641 7 11.4255 7 8.66406C7 5.90264 9.23858 3.66406 12 3.66406C14.7614 3.66406 17 5.90264 17 8.66406Z" stroke="#C5A059" stroke-width="2" stroke-linecap="round"/>
</svg>
