<svg width="40" height="40" viewBox="0 0 40 40" fill="none" xmlns="http://www.w3.org/2000/svg">
<path d="M19.334 16.4H19.3515M19.334 23.6H19.3515M19.334 9.2H19.3515M26.334 16.4H26.3515M26.334 23.6H26.3515M26.334 9.2H26.3515M12.334 16.4H12.3515M12.334 23.6H12.3515M12.334 9.2H12.3515M14.084 38V32.6C14.084 32.1226 14.2684 31.6648 14.5965 31.3272C14.9247 30.9896 15.3699 30.8 15.834 30.8H22.834C23.2981 30.8 23.7432 30.9896 24.0714 31.3272C24.3996 31.6648 24.584 32.1226 24.584 32.6V38M8.83398 2H29.834C31.767 2 33.334 3.61177 33.334 5.6V34.4C33.334 36.3882 31.767 38 29.834 38H8.83398C6.90099 38 5.33398 36.3882 5.33398 34.4V5.6C5.33398 3.61177 6.90099 2 8.83398 2Z" stroke="#FAD06B" stroke-width="2" stroke-linecap="round"/>
</svg>
