<svg width="24" height="24" viewBox="0 0 24 24" fill="none" xmlns="http://www.w3.org/2000/svg">
<path d="M12 10.3313H12.0083M12 13.6649H12.0083M12 6.99766H12.0083M15.333 10.3313H15.3413M15.333 13.6649H15.3413M15.333 6.99766H15.3413M8.66698 10.3313H8.67532M8.66698 13.6649H8.67532M8.66698 6.99766H8.67532M9.50023 20.3321V17.8319C9.50023 17.6108 9.58802 17.3989 9.74429 17.2426C9.90055 17.0863 10.1125 16.9985 10.3335 16.9985H13.6665C13.8875 16.9985 14.0994 17.0863 14.2557 17.2426C14.4119 17.3989 14.4997 17.6108 14.4997 17.8319V20.3321M7.00048 3.66406H16.9995C17.9199 3.66406 18.666 4.41031 18.666 5.33086V18.6653C18.666 19.5858 17.9199 20.3321 16.9995 20.3321H7.00048C6.0801 20.3321 5.33398 19.5858 5.33398 18.6653V5.33086C5.33398 4.41031 6.0801 3.66406 7.00048 3.66406Z" stroke="#C5A059" stroke-width="2" stroke-linecap="round"/>
</svg>
