<svg width="24" height="24" viewBox="0 0 24 24" fill="none" xmlns="http://www.w3.org/2000/svg">
<path d="M11.1666 16.1675L12.8334 17.8342C12.9976 17.9984 13.1925 18.1286 13.407 18.2174C13.6214 18.3063 13.8513 18.352 14.0835 18.352C14.3157 18.352 14.5456 18.3063 14.76 18.2174C14.9745 18.1286 15.1694 17.9984 15.3336 17.8342C15.4978 17.6701 15.628 17.4752 15.7168 17.2607C15.8057 17.0462 15.8514 16.8164 15.8514 16.5842C15.8514 16.3521 15.8057 16.1222 15.7168 15.9077C15.628 15.6932 15.4978 15.4984 15.3336 15.3342M13.667 13.6671L15.7505 15.7505C16.082 16.082 16.5317 16.2683 17.0006 16.2683C17.4695 16.2683 17.9191 16.082 18.2507 15.7505C18.5822 15.419 18.7685 14.9693 18.7685 14.5005C18.7685 14.0316 18.5822 13.582 18.2507 13.2505L15.0171 10.0171C14.5483 9.54895 13.9128 9.28598 13.2503 9.28598C12.5877 9.28598 11.9523 9.54895 11.4835 10.0171L10.7501 10.7505C10.4185 11.082 9.96887 11.2682 9.49999 11.2682C9.03111 11.2682 8.58144 11.082 8.24989 10.7505C7.91834 10.4189 7.73208 9.96929 7.73208 9.50045C7.73208 9.0316 7.91834 8.58196 8.24989 8.25044L10.5917 5.90876C11.352 5.15054 12.3435 4.66755 13.4092 4.53623C14.4749 4.40491 15.5539 4.63278 16.4755 5.18376L16.8672 5.41709C17.2221 5.63125 17.644 5.70552 18.0507 5.62543L19.5008 5.33376M19.5006 4.50081L20.334 13.6675H18.6672M4.4994 4.50081L3.666 13.6675L9.0831 19.0842C9.41465 19.4158 9.86432 19.602 10.3332 19.602C10.8021 19.602 11.2518 19.4158 11.5833 19.0842C11.9148 18.7527 12.1011 18.3031 12.1011 17.8342C12.1011 17.3654 11.9148 16.9157 11.5833 16.5842M4.4994 5.33415H11.1666" stroke="#C5A059" stroke-width="2" stroke-linecap="round"/>
</svg>
