<svg width="60" height="60" viewBox="0 0 60 60" fill="none" xmlns="http://www.w3.org/2000/svg">
<rect x="0.5" y="0.5" width="59" height="59" rx="4.5" stroke="white" stroke-opacity="0.101961"/>
<path d="M37.2002 41C37.2002 38.4068 36.1888 35.9198 34.3884 34.0861C32.588 32.2524 30.1462 31.2222 27.6001 31.2222M27.6001 31.2222C25.054 31.2222 22.6122 32.2524 20.8118 34.0861C19.0114 35.9198 18 38.4068 18 41M27.6001 31.2222C30.9138 31.2222 33.6002 28.4862 33.6002 25.1111C33.6002 21.736 30.9138 19 27.6001 19C24.2864 19 21.6 21.736 21.6 25.1111C21.6 28.4862 24.2864 31.2222 27.6001 31.2222ZM42 39.778C42 35.6591 39.6 31.8336 37.2 30.0002C37.9889 29.3974 38.6197 28.6058 39.0367 27.6955C39.4536 26.7851 39.6438 25.7841 39.5904 24.7811C39.537 23.7781 39.2417 22.8039 38.7305 21.9448C38.2194 21.0857 37.5082 20.3682 36.6599 19.8558" stroke="#F2C94C" stroke-width="2" stroke-linecap="round"/>
</svg>
