<svg width="60" height="60" viewBox="0 0 60 60" fill="none" xmlns="http://www.w3.org/2000/svg">
<rect x="0.5" y="0.5" width="59" height="59" rx="4.5" stroke="white" stroke-opacity="0.101961"/>
<path d="M33.3325 32.568C33.5659 31.368 34.1492 30.528 35.0825 29.568C36.2492 28.488 36.8325 26.928 36.8325 25.368C36.8325 23.4584 36.095 21.6271 34.7823 20.2768C33.4695 18.9265 31.689 18.168 29.8325 18.168C27.976 18.168 26.1955 18.9265 24.8828 20.2768C23.57 21.6271 22.8325 23.4584 22.8325 25.368C22.8325 26.568 23.0659 28.008 24.5825 29.568C25.3992 30.408 26.0992 31.368 26.3325 32.568M26.3325 37.368H33.3325M27.4992 42.168H32.1659" stroke="#F2C94C" stroke-width="2" stroke-linecap="round"/>
</svg>
