<svg width="60" height="60" viewBox="0 0 60 60" fill="none" xmlns="http://www.w3.org/2000/svg">
<rect x="0.5" y="0.5" width="59" height="59" rx="4.5" stroke="white" stroke-opacity="0.101961"/>
<path d="M32.75 16H21.75C21.0207 16 20.3212 16.295 19.8055 16.8201C19.2897 17.3452 19 18.0574 19 18.8V41.2C19 41.9426 19.2897 42.6548 19.8055 43.1799C20.3212 43.705 21.0207 44 21.75 44H38.25C38.9793 44 39.6788 43.705 40.1945 43.1799C40.7103 42.6548 41 41.9426 41 41.2V24.4M32.75 16C33.1853 15.9993 33.6164 16.0862 34.0185 16.2559C34.4206 16.4255 34.7858 16.6745 35.093 16.9884L40.0265 22.0116C40.3357 22.3245 40.5809 22.6967 40.7479 23.1066C40.915 23.5166 41.0007 23.9562 41 24.4M32.75 16V23C32.75 23.3713 32.8949 23.7274 33.1527 23.9899C33.4106 24.2525 33.7603 24.4 34.125 24.4L41 24.4M27.25 25.8H24.5M35.5 31.4H24.5M35.5 37H24.5" stroke="#F2C94C" stroke-width="2" stroke-linecap="round"/>
</svg>
