<svg width="60" height="60" viewBox="0 0 60 60" fill="none" xmlns="http://www.w3.org/2000/svg">
<rect x="0.5" y="0.5" width="59" height="59" rx="4.5" stroke="white" stroke-opacity="0.101961"/>
<path d="M34.3465 31.0682L36.2403 41.3C36.2615 41.4205 36.2439 41.5443 36.1898 41.6549C36.1358 41.7655 36.0478 41.8576 35.9377 41.919C35.8276 41.9803 35.7007 42.0079 35.5738 41.9981C35.4469 41.9882 35.3262 41.9415 35.2278 41.864L30.7528 38.6394C30.5368 38.4845 30.2743 38.4008 30.0047 38.4008C29.735 38.4008 29.4726 38.4845 29.2565 38.6394L24.774 41.8628C24.6757 41.9401 24.5551 41.9868 24.4284 41.9967C24.3017 42.0065 24.1749 41.979 24.0649 41.9178C23.9549 41.8567 23.8669 41.7648 23.8127 41.6544C23.7585 41.544 23.7407 41.4204 23.7615 41.3L25.654 31.0682M37.5 25.2004C37.5 29.177 34.1421 32.4007 30 32.4007C25.8579 32.4007 22.5 29.177 22.5 25.2004C22.5 21.2237 25.8579 18 30 18C34.1421 18 37.5 21.2237 37.5 25.2004Z" stroke="#F2C94C" stroke-width="2" stroke-linecap="round"/>
</svg>
