<svg width="40" height="40" viewBox="0 0 40 40" fill="none" xmlns="http://www.w3.org/2000/svg">
<path d="M17.1944 25.3333H10.7777C8.71495 25.3333 6.73665 26.1528 5.27805 27.6114C3.81944 29.07 3 31.0483 3 33.1111V37M38 36.9992L34.3056 33.3048M24.3888 9.77778C24.3888 14.0733 20.9066 17.5556 16.611 17.5556C12.3155 17.5556 8.8333 14.0733 8.8333 9.77778C8.8333 5.48223 12.3155 2 16.611 2C20.9066 2 24.3888 5.48223 24.3888 9.77778ZM36.0554 29.2222C36.0554 32.4439 33.4437 35.0556 30.2221 35.0556C27.0004 35.0556 24.3888 32.4439 24.3888 29.2222C24.3888 26.0006 27.0004 23.3889 30.2221 23.3889C33.4437 23.3889 36.0554 26.0006 36.0554 29.2222Z" stroke="#FAD06B" stroke-width="2" stroke-linecap="round"/>
</svg>
