<svg width="40" height="40" viewBox="0 0 40 40" fill="none" xmlns="http://www.w3.org/2000/svg">
<path d="M14.041 19.9968L17.791 23.7962L25.291 16.1975M34.666 21.8974C34.666 31.3958 28.1035 36.145 20.3035 38.8995C19.8951 39.0397 19.4514 39.033 19.0473 38.8805C11.2285 36.145 4.66602 31.3958 4.66602 21.8974V8.59958C4.66602 8.09575 4.86356 7.61256 5.21519 7.2563C5.56682 6.90004 6.04373 6.6999 6.54102 6.6999C10.291 6.6999 14.9785 4.42028 18.241 1.53276C18.6382 1.18892 19.1436 1 19.666 1C20.1885 1 20.6938 1.18892 21.091 1.53276C24.3723 4.43928 29.041 6.6999 32.791 6.6999C33.2883 6.6999 33.7652 6.90004 34.1168 7.2563C34.4685 7.61256 34.666 8.09575 34.666 8.59958V21.8974Z" stroke="#FAD06B" stroke-width="2" stroke-linecap="round"/>
</svg>
