<svg width="40" height="40" viewBox="0 0 40 40" fill="none" xmlns="http://www.w3.org/2000/svg">
<g clip-path="url(#clip0_11920_35606)">
<path d="M16.2 20H23.8M16.2 12H23.8M23.8 38V32C23.8 30.9391 23.3996 29.9217 22.687 29.1716C21.9744 28.4214 21.0078 28 20 28C18.9922 28 18.0256 28.4214 17.313 29.1716C16.6004 29.9217 16.2 30.9391 16.2 32V38M8.6 16H4.8C3.79218 16 2.82563 16.4214 2.11299 17.1716C1.40036 17.9217 1 18.9391 1 20V34C1 35.0609 1.40036 36.0783 2.11299 36.8284C2.82563 37.5786 3.79218 38 4.8 38H35.2C36.2078 38 37.1744 37.5786 37.887 36.8284C38.5996 36.0783 39 35.0609 39 34V14C39 12.9391 38.5996 11.9217 37.887 11.1716C37.1744 10.4214 36.2078 10 35.2 10H31.4M8.6 38V6C8.6 4.93913 9.00036 3.92172 9.71299 3.17157C10.4256 2.42143 11.3922 2 12.4 2H27.6C28.6078 2 29.5744 2.42143 30.287 3.17157C30.9996 3.92172 31.4 4.93913 31.4 6V38" stroke="#FAD06B" stroke-width="2" stroke-linecap="round"/>
</g>
<defs>
<clipPath id="clip0_11920_35606">
<rect width="40" height="40" fill="white"/>
</clipPath>
</defs>
</svg>
