<svg width="60" height="60" viewBox="0 0 60 60" fill="none" xmlns="http://www.w3.org/2000/svg">
<rect x="0.5" y="0.5" width="59" height="59" rx="4.5" stroke="white" stroke-opacity="0.101961"/>
<path d="M18 39.844C17.9998 38.3458 18.3762 36.8699 19.0969 35.5428C19.8176 34.2157 20.861 33.0772 22.1378 32.2247C23.4145 31.3722 24.8865 30.8313 26.4274 30.6483C27.9683 30.4653 29.5323 30.6457 30.9851 31.174M41.2534 34.7792C41.7314 34.3179 42 33.6922 42 33.0399C42 32.3875 41.7314 31.7618 41.2534 31.3005C40.7754 30.8392 40.1271 30.5801 39.451 30.5801C38.775 30.5801 38.1267 30.8392 37.6486 31.3005L32.8367 35.9465C32.5514 36.2216 32.3425 36.5617 32.2295 36.9354L31.2251 40.2589C31.195 40.3585 31.1932 40.4641 31.2199 40.5647C31.2466 40.6652 31.3008 40.757 31.3768 40.8304C31.4529 40.9038 31.548 40.9561 31.6522 40.9819C31.7564 41.0076 31.8658 41.0059 31.9691 40.9768L35.4131 40.0076C35.8003 39.8985 36.1527 39.697 36.4379 39.4216L41.2534 34.7792ZM33.5999 24.79C33.5999 27.9878 30.9136 30.5801 27.5999 30.5801C24.2863 30.5801 21.6 27.9878 21.6 24.79C21.6 21.5923 24.2863 19 27.5999 19C30.9136 19 33.5999 21.5923 33.5999 24.79Z" stroke="#F2C94C" stroke-width="2" stroke-linecap="round"/>
</svg>
