<svg width="20" height="20" viewBox="0 0 20 20" fill="none" xmlns="http://www.w3.org/2000/svg">
<g clip-path="url(#clip0_11920_35644)">
<path d="M9.1666 14.1675L10.8334 15.8342C10.9976 15.9984 11.1925 16.1286 11.4069 16.2174C11.6214 16.3063 11.8513 16.352 12.0835 16.352C12.3157 16.352 12.5456 16.3063 12.76 16.2174C12.9745 16.1286 13.1694 15.9984 13.3336 15.8342C13.4978 15.6701 13.628 15.4752 13.7168 15.2607C13.8057 15.0462 13.8514 14.8164 13.8514 14.5842C13.8514 14.3521 13.8057 14.1222 13.7168 13.9077C13.628 13.6932 13.4978 13.4984 13.3336 13.3342M11.667 11.6671L13.7505 13.7505C14.082 14.082 14.5317 14.2683 15.0006 14.2683C15.4695 14.2683 15.9191 14.082 16.2507 13.7505C16.5822 13.419 16.7685 12.9693 16.7685 12.5005C16.7685 12.0316 16.5822 11.582 16.2507 11.2505L13.0171 8.01712C12.5483 7.54895 11.9128 7.28598 11.2503 7.28598C10.5877 7.28598 9.95227 7.54895 9.48348 8.01712L8.75009 8.75046C8.41854 9.08198 7.96887 9.26823 7.49999 9.26823C7.03111 9.26823 6.58144 9.08198 6.24989 8.75046C5.91834 8.41893 5.73208 7.96929 5.73208 7.50045C5.73208 7.0316 5.91834 6.58196 6.24989 6.25044L8.59174 3.90876C9.352 3.15054 10.3435 2.66755 11.4092 2.53623C12.4749 2.40491 13.5539 2.63278 14.4755 3.18376L14.8672 3.41709C15.2221 3.63125 15.644 3.70552 16.0507 3.62543L17.5008 3.33376M17.5006 2.50081L18.334 11.6675H16.6672M2.4994 2.50081L1.666 11.6675L7.0831 17.0842C7.41465 17.4158 7.86432 17.602 8.3332 17.602C8.80208 17.602 9.25175 17.4158 9.5833 17.0842C9.91485 16.7527 10.1011 16.3031 10.1011 15.8342C10.1011 15.3654 9.91485 14.9157 9.5833 14.5842M2.4994 3.33415H9.1666" stroke="#C5A059" stroke-width="2" stroke-linecap="round"/>
</g>
<defs>
<clipPath id="clip0_11920_35644">
<rect width="20" height="20" fill="white"/>
</clipPath>
</defs>
</svg>
