<svg width="40" height="40" viewBox="0 0 40 40" fill="none" xmlns="http://www.w3.org/2000/svg">
<path d="M19.5715 16.2666H19.5902M19.5715 23.7338H19.5902M19.5715 8.79929H19.5902M27.0374 16.2666H27.0561M27.0374 23.7338H27.0561M27.0374 8.79929H27.0561M12.1056 16.2666H12.1242M12.1056 23.7338H12.1242M12.1056 8.79929H12.1242M13.972 38.6683V33.0679C13.972 32.5728 14.1687 32.098 14.5187 31.7479C14.8688 31.3978 15.3435 31.2011 15.8385 31.2011H23.3044C23.7995 31.2011 24.2742 31.3978 24.6242 31.7479C24.9743 32.098 25.1709 32.5728 25.1709 33.0679V38.6683M8.37261 1.33203H30.7704C32.832 1.33203 34.5033 3.00364 34.5033 5.06566V34.9347C34.5033 36.9967 32.832 38.6683 30.7704 38.6683H8.37261C6.31095 38.6683 4.63965 36.9967 4.63965 34.9347V5.06566C4.63965 3.00364 6.31095 1.33203 8.37261 1.33203Z" stroke="#FAD06B" stroke-width="2" stroke-linecap="round"/>
</svg>
