<svg width="40" height="40" viewBox="0 0 40 40" fill="none" xmlns="http://www.w3.org/2000/svg">
<path d="M14.5718 19.9953L17.9048 23.3288L24.5708 16.6619M32.9033 21.6628C32.9033 29.9964 27.0705 34.1632 20.1379 36.58C19.7748 36.703 19.3805 36.6971 19.0213 36.5633C12.072 34.1632 6.23926 29.9964 6.23926 21.6628V9.99576C6.23926 9.55372 6.41484 9.12978 6.72736 8.81721C7.03989 8.50464 7.46377 8.32904 7.90576 8.32904C11.2388 8.32904 15.405 6.32897 18.3047 3.79556C18.6578 3.49388 19.1069 3.32812 19.5713 3.32812C20.0356 3.32812 20.4847 3.49388 20.8378 3.79556C23.7542 6.34564 27.9038 8.32904 31.2368 8.32904C31.6787 8.32904 32.1026 8.50464 32.4152 8.81721C32.7277 9.12978 32.9033 9.55372 32.9033 9.99576V21.6628Z" stroke="#FAD06B" stroke-width="2" stroke-linecap="round"/>
</svg>
