<svg width="40" height="40" viewBox="0 0 40 40" fill="none" xmlns="http://www.w3.org/2000/svg">
<g clip-path="url(#clip0_11882_35203)">
<path d="M10.2374 36.1706V33.0679C10.2374 32.0777 10.6308 31.128 11.331 30.4278C12.0311 29.7276 12.9808 29.3343 13.971 29.3343H25.1719C26.1621 29.3343 27.1118 29.7276 27.812 30.4278C28.5122 31.128 28.9056 32.0777 28.9056 33.0679V36.1706M38.2396 20.0002C38.2396 30.3103 29.8816 38.6683 19.5715 38.6683C9.26134 38.6683 0.90332 30.3103 0.90332 20.0002C0.90332 9.69005 9.26134 1.33203 19.5715 1.33203C29.8816 1.33203 38.2396 9.69005 38.2396 20.0002ZM25.1719 16.2666C25.1719 19.3596 22.6645 21.867 19.5715 21.867C16.4784 21.867 13.971 19.3596 13.971 16.2666C13.971 13.1735 16.4784 10.6661 19.5715 10.6661C22.6645 10.6661 25.1719 13.1735 25.1719 16.2666Z" stroke="#FAD06B" stroke-width="2" stroke-linecap="round"/>
</g>
<defs>
<clipPath id="clip0_11882_35203">
<rect width="40" height="40" fill="white"/>
</clipPath>
</defs>
</svg>
