<svg width="40" height="40" viewBox="0 0 40 40" fill="none" xmlns="http://www.w3.org/2000/svg">
<g clip-path="url(#clip0_11882_35178)">
<path d="M36.8073 27.2238C35.6197 30.0322 33.7622 32.5069 31.3971 34.4317C29.032 36.3564 26.2315 37.6725 23.2402 38.2649C20.249 38.8573 17.1582 38.708 14.238 37.83C11.3178 36.952 8.65712 35.372 6.48864 33.2283C4.32015 31.0846 2.70985 28.4423 1.79851 25.5325C0.887179 22.6227 0.702562 19.5339 1.2608 16.5363C1.81905 13.5387 3.10315 10.7234 5.00084 8.33667C6.89854 5.94992 9.35205 4.06435 12.1469 2.84481M36.4146 19.963C37.4451 19.963 38.2907 19.1248 38.188 18.1C37.7577 13.8144 35.8584 9.8095 32.8123 6.76421C29.7661 3.71893 25.7605 1.82068 21.4746 1.39127C20.4478 1.28861 19.6115 2.13422 19.6115 3.16463V18.0982C19.6115 18.5932 19.8082 19.068 20.1583 19.4181C20.5084 19.7682 20.9832 19.9649 21.4783 19.9649L36.4146 19.963Z" stroke="#FAD06B" stroke-width="2" stroke-linecap="round"/>
</g>
<defs>
<clipPath id="clip0_11882_35178">
<rect width="40" height="40" fill="white"/>
</clipPath>
</defs>
</svg>
