<svg width="40" height="40" viewBox="0 0 40 40" fill="none" xmlns="http://www.w3.org/2000/svg">
<path d="M12.0713 18.5V12.5C12.0713 10.5109 12.8615 8.60322 14.268 7.1967C15.6745 5.79018 17.5822 5 19.5713 5C21.5604 5 23.4681 5.79018 24.8746 7.1967C26.2811 8.60322 27.0713 10.5109 27.0713 12.5V18.5M9.07129 18.5H30.0713C31.7281 18.5 33.0713 19.8431 33.0713 21.5V32C33.0713 33.6569 31.7281 35 30.0713 35H9.07129C7.41443 35 6.07129 33.6569 6.07129 32V21.5C6.07129 19.8431 7.41443 18.5 9.07129 18.5Z" stroke="#FAD06B" stroke-width="2" stroke-linecap="round"/>
</svg>
