<svg width="40" height="40" viewBox="0 0 40 40" fill="none" xmlns="http://www.w3.org/2000/svg">
<path d="M22.9043 3.33204H9.57226C8.68829 3.33204 7.84053 3.68325 7.21547 4.30842C6.59041 4.9336 6.23926 5.78151 6.23926 6.66564V33.3344C6.23926 34.2186 6.59041 35.0665 7.21547 35.6916C7.84053 36.3168 8.68829 36.668 9.57226 36.668H29.5703C30.4542 36.668 31.302 36.3168 31.927 35.6916C32.5521 35.0665 32.9033 34.2186 32.9033 33.3344V13.3328M22.9043 3.33204C23.4318 3.33118 23.9543 3.43472 24.4417 3.63668C24.929 3.83864 25.3716 4.13503 25.744 4.5088L31.7234 10.4893C32.0981 10.8618 32.3953 11.3049 32.5978 11.793C32.8003 12.281 32.9041 12.8044 32.9033 13.3328M22.9043 3.33204V11.666C22.9043 12.1081 23.0798 12.532 23.3924 12.8446C23.7049 13.1572 24.1288 13.3328 24.5708 13.3328L32.9033 13.3328M14.5718 25.0004L17.9048 28.334L24.5708 21.6668" stroke="#FAD06B" stroke-width="2" stroke-linecap="round"/>
</svg>
