<svg width="40" height="40" viewBox="0 0 40 40" fill="none" xmlns="http://www.w3.org/2000/svg">
<path d="M19.5703 21.6667V35M19.5703 5V10M29.5703 10C30.4326 10.0004 31.2611 10.3349 31.882 10.9333L35.727 14.6333C35.8883 14.7888 36.0166 14.9752 36.1042 15.1814C36.1919 15.3876 36.237 15.6093 36.237 15.8333C36.237 16.0574 36.1919 16.2791 36.1042 16.4853C36.0166 16.6915 35.8883 16.8779 35.727 17.0333L31.882 20.7333C31.2611 21.3317 30.4326 21.6663 29.5703 21.6667H9.57032C8.70805 21.6663 7.87948 21.3317 7.25865 20.7333L3.41532 17.0333C3.25401 16.8779 3.12571 16.6915 3.03807 16.4853C2.95044 16.2791 2.90527 16.0574 2.90527 15.8333C2.90527 15.6093 2.95044 15.3876 3.03807 15.1814C3.12571 14.9752 3.25401 14.7888 3.41532 14.6333L7.25865 10.9333C7.87948 10.3349 8.70805 10.0004 9.57032 10H29.5703Z" stroke="#FAD06B" stroke-width="2" stroke-linecap="round"/>
</svg>
