<svg width="40" height="40" viewBox="0 0 40 40" fill="none" xmlns="http://www.w3.org/2000/svg">
<path d="M29.5724 35C29.5724 31.4638 28.1675 28.0724 25.6668 25.5719C23.1661 23.0714 19.7744 21.6667 16.2378 21.6667M16.2378 21.6667C12.7013 21.6667 9.30962 23.0714 6.80891 25.5719C4.3082 28.0724 2.90332 31.4638 2.90332 35M16.2378 21.6667C20.8406 21.6667 24.5719 17.9357 24.5719 13.3333C24.5719 8.73096 20.8406 5 16.2378 5C11.6351 5 7.90377 8.73096 7.90377 13.3333C7.90377 17.9357 11.6351 21.6667 16.2378 21.6667ZM36.2393 33.3337C36.2393 27.717 32.9057 22.5003 29.5721 20.0003C30.6678 19.1783 31.5441 18.0988 32.1232 16.8574C32.7024 15.6161 32.9665 14.2511 32.8924 12.8833C32.8182 11.5155 32.408 10.1871 31.698 9.01566C30.9881 7.84418 30.0002 6.86576 28.822 6.16699" stroke="#FAD06B" stroke-width="2" stroke-linecap="round"/>
</svg>
