<svg width="40" height="40" viewBox="0 0 40 40" fill="none" xmlns="http://www.w3.org/2000/svg">
<path d="M17.9045 28.3351L21.2381 31.6684C21.5665 31.9968 21.9562 32.2572 22.3852 32.4349C22.8142 32.6125 23.274 32.704 23.7383 32.704C24.2026 32.704 24.6624 32.6125 25.0914 32.4349C25.5204 32.2572 25.9102 31.9968 26.2385 31.6684C26.5668 31.3401 26.8273 30.9504 27.005 30.5214C27.1827 30.0925 27.2741 29.6327 27.2741 29.1684C27.2741 28.7041 27.1827 28.2444 27.005 27.8154C26.8273 27.3865 26.5668 26.9967 26.2385 26.6684M22.9053 23.3343L27.0723 27.501C27.7354 28.164 28.6347 28.5365 29.5725 28.5365C30.5103 28.5365 31.4096 28.164 32.0727 27.501C32.7358 26.8379 33.1083 25.9386 33.1083 25.001C33.1083 24.0633 32.7358 23.164 32.0727 22.5009L25.6055 16.0342C24.6679 15.0979 23.397 14.572 22.0719 14.572C20.7468 14.572 19.4759 15.0979 18.5383 16.0342L17.0715 17.5009C16.4084 18.164 15.5091 18.5365 14.5713 18.5365C13.6335 18.5365 12.7342 18.164 12.0711 17.5009C11.408 16.8379 11.0355 15.9386 11.0355 15.0009C11.0355 14.0632 11.408 13.1639 12.0711 12.5009L16.7548 7.81752C18.2753 6.30109 20.2582 5.33509 22.3897 5.07246C24.5211 4.80983 26.6792 5.26556 28.5224 6.36751L29.3058 6.83418C30.0155 7.2625 30.8593 7.41105 31.6727 7.25085L34.5729 6.66752M34.5725 5.00163L36.2393 23.3351H32.9057M4.57012 5.00163L2.90332 23.3351L13.7375 34.1685C14.4006 34.8315 15.3 35.204 16.2377 35.204C17.1755 35.204 18.0748 34.8315 18.7379 34.1685C19.401 33.5054 19.7735 32.6061 19.7735 31.6684C19.7735 30.7308 19.401 29.8315 18.7379 29.1684M4.57012 6.6683H17.9045" stroke="#FAD06B" stroke-width="2" stroke-linecap="round"/>
</svg>
