<svg width="40" height="40" viewBox="0 0 40 40" fill="none" xmlns="http://www.w3.org/2000/svg">
<path d="M33.4211 26.2222V32.4444C33.4211 32.857 33.2547 33.2527 32.9586 33.5444C32.6625 33.8361 32.2609 34 31.8421 34H8.15789C7.32037 34 6.51715 33.6722 5.92493 33.0888C5.33271 32.5053 5 31.714 5 30.8889V9.11111C5 8.28599 5.33271 7.49467 5.92493 6.91122C6.51715 6.32778 7.32037 6 8.15789 6H28.6842C29.103 6 29.5046 6.16389 29.8007 6.45561C30.0968 6.74733 30.2632 7.143 30.2632 7.55556V12.2222M5 9.11111C5 9.93623 5.33271 10.7276 5.92493 11.311C6.51715 11.8944 7.32037 12.2222 8.15789 12.2222H31.8421C32.2609 12.2222 32.6625 12.3861 32.9586 12.6778C33.2547 12.9696 33.4211 13.3652 33.4211 13.7778V20M33.4211 20H28.6842C27.8467 20 27.0435 20.3278 26.4512 20.9112C25.859 21.4947 25.5263 22.286 25.5263 23.1111C25.5263 23.9362 25.859 24.7276 26.4512 25.311C27.0435 25.8944 27.8467 26.2222 28.6842 26.2222H33.4211M33.4211 20C33.8398 20 34.2414 20.1639 34.5375 20.4556C34.8336 20.7473 35 21.143 35 21.5556V24.6667C35 25.0792 34.8336 25.4749 34.5375 25.7666C34.2414 26.0583 33.8398 26.2222 33.4211 26.2222" stroke="#FAD06B" stroke-width="2" stroke-linecap="round"/>
</svg>
