<svg width="40" height="40" viewBox="0 0 40 40" fill="none" xmlns="http://www.w3.org/2000/svg">
<path d="M34.5713 8.33243C34.5713 11.0941 27.8556 13.3328 19.5713 13.3328C11.287 13.3328 4.57129 11.0941 4.57129 8.33243M34.5713 8.33243C34.5713 5.57079 27.8556 3.33203 19.5713 3.33203C11.287 3.33203 4.57129 5.57079 4.57129 8.33243M34.5713 8.33243V31.6676C34.5713 32.9938 32.9909 34.2657 30.1779 35.2034C27.3648 36.1412 23.5495 36.668 19.5713 36.668C15.593 36.668 11.7777 36.1412 8.96469 35.2034C6.15164 34.2657 4.57129 32.9938 4.57129 31.6676V8.33243M4.57129 20C4.57129 21.3262 6.15164 22.5981 8.96469 23.5358C11.7777 24.4736 15.593 25.0004 19.5713 25.0004C23.5495 25.0004 27.3648 24.4736 30.1779 23.5358C32.9909 22.5981 34.5713 21.3262 34.5713 20" stroke="#FAD06B" stroke-width="2" stroke-linecap="round"/>
</svg>
