<svg width="40" height="40" viewBox="0 0 40 40" fill="none" xmlns="http://www.w3.org/2000/svg">
<path d="M24.5137 14.6654L27.5803 17.732C27.8296 17.9763 28.1647 18.1132 28.5137 18.1132C28.8627 18.1132 29.1978 17.9763 29.447 17.732L32.247 14.932C32.4913 14.6828 32.6281 14.3477 32.6281 13.9987C32.6281 13.6497 32.4913 13.3146 32.247 13.0654L29.1803 9.9987M31.8469 7.33203L19.0469 20.132M21.1803 25.332C21.1803 29.3821 17.8971 32.6654 13.847 32.6654C9.79692 32.6654 6.51367 29.3821 6.51367 25.332C6.51367 21.2819 9.79692 17.9987 13.847 17.9987C17.8971 17.9987 21.1803 21.2819 21.1803 25.332Z" stroke="#FAD06B" stroke-width="2" stroke-linecap="round"/>
</svg>
