<svg width="40" height="40" viewBox="0 0 40 40" fill="none" xmlns="http://www.w3.org/2000/svg">
<path d="M24.5713 35.8346V22.5013C24.5713 22.0593 24.3957 21.6354 24.0831 21.3228C23.7706 21.0102 23.3466 20.8346 22.9046 20.8346H16.238C15.7959 20.8346 15.372 21.0102 15.0594 21.3228C14.7469 21.6354 14.5713 22.0593 14.5713 22.5013V35.8346M4.57129 17.5021C4.57117 17.0172 4.67685 16.5381 4.88094 16.0983C5.08503 15.6585 5.38262 15.2684 5.75296 14.9554L17.4196 4.95543C18.0213 4.44695 18.7836 4.16797 19.5713 4.16797C20.359 4.16797 21.1213 4.44695 21.723 4.95543L33.3896 14.9554C33.76 15.2684 34.0576 15.6585 34.2616 16.0983C34.4657 16.5381 34.5714 17.0172 34.5713 17.5021V32.5021C34.5713 33.3862 34.2201 34.234 33.595 34.8591C32.9699 35.4842 32.122 35.8354 31.238 35.8354H7.90462C7.02057 35.8354 6.17272 35.4842 5.5476 34.8591C4.92248 34.234 4.57129 33.3862 4.57129 32.5021V17.5021Z" stroke="#FAD06B" stroke-width="2" stroke-linecap="round"/>
</svg>
