<svg width="40" height="40" viewBox="0 0 40 40" fill="none" xmlns="http://www.w3.org/2000/svg">
<path d="M23 5H11C10.2043 5 9.44129 5.31608 8.87868 5.87868C8.31607 6.44129 8 7.20435 8 8V32C8 32.7957 8.31607 33.5587 8.87868 34.1213C9.44129 34.6839 10.2043 35 11 35H29C29.7956 35 30.5587 34.6839 31.1213 34.1213C31.6839 33.5587 32 32.7957 32 32V14M23 5C23.4748 4.99924 23.9451 5.09241 24.3838 5.27416C24.8225 5.45591 25.2208 5.72264 25.556 6.059L30.938 11.441C31.2753 11.7763 31.5428 12.175 31.725 12.6142C31.9073 13.0535 32.0008 13.5245 32 14M23 5V12.5C23 12.8978 23.158 13.2794 23.4393 13.5607C23.7206 13.842 24.1022 14 24.5 14L32 14M17 15.5H14M26 21.5H14M26 27.5H14" stroke="#FAD06B" stroke-width="2" stroke-linecap="round"/>
</svg>
