<svg width="24" height="24" viewBox="0 0 24 24" fill="none" xmlns="http://www.w3.org/2000/svg">
<path d="M14.5 19.4974V12.8307C14.5 12.6097 14.4122 12.3978 14.2559 12.2415C14.0996 12.0852 13.8877 11.9974 13.6667 11.9974H10.3333C10.1123 11.9974 9.90036 12.0852 9.74408 12.2415C9.5878 12.3978 9.5 12.6097 9.5 12.8307V19.4974M4.5 10.3311C4.49994 10.0887 4.55278 9.84915 4.65482 9.62923C4.75687 9.4093 4.90566 9.21429 5.09083 9.0578L10.9242 4.0578C11.225 3.80355 11.6061 3.66406 12 3.66406C12.3939 3.66406 12.775 3.80355 13.0758 4.0578L18.9092 9.0578C19.0943 9.21429 19.2431 9.4093 19.3452 9.62923C19.4472 9.84915 19.5001 10.0887 19.5 10.3311V17.8311C19.5 18.2732 19.3244 18.6971 19.0118 19.0096C18.6993 19.3222 18.2754 19.4978 17.8333 19.4978H6.16667C5.72464 19.4978 5.30072 19.3222 4.98816 19.0096C4.67559 18.6971 4.5 18.2732 4.5 17.8311V10.3311Z" stroke="#8E8E93" stroke-width="2" stroke-linecap="round"/>
</svg>
