<svg width="24" height="24" viewBox="0 0 24 24" fill="none" xmlns="http://www.w3.org/2000/svg">
<path d="M15.0284 8.63158L16.9073 10.5684C17.06 10.7227 17.2653 10.8091 17.4791 10.8091C17.6929 10.8091 17.8983 10.7227 18.051 10.5684L19.7665 8.8C19.9162 8.64259 20 8.43095 20 8.21053C20 7.9901 19.9162 7.77847 19.7665 7.62105L17.8876 5.68421M19.5213 4L11.6789 12.0842M12.9861 15.3684C12.9861 17.9264 10.9745 20 8.49304 20C6.0116 20 4 17.9264 4 15.3684C4 12.8105 6.0116 10.7368 8.49304 10.7368C10.9745 10.7368 12.9861 12.8105 12.9861 15.3684Z" stroke="#8E8E93" stroke-width="2" stroke-linecap="round"/>
</svg>
