<svg width="24" height="24" viewBox="0 0 24 24" fill="none" xmlns="http://www.w3.org/2000/svg">
<path d="M7.2 12H7.208M16.8 12H16.808M5.6 7H18.4C19.2837 7 20 7.74619 20 8.66667V15.3333C20 16.2538 19.2837 17 18.4 17H5.6C4.71634 17 4 16.2538 4 15.3333V8.66667C4 7.74619 4.71634 7 5.6 7ZM13.6 12C13.6 12.9205 12.8837 13.6667 12 13.6667C11.1163 13.6667 10.4 12.9205 10.4 12C10.4 11.0795 11.1163 10.3333 12 10.3333C12.8837 10.3333 13.6 11.0795 13.6 12Z" stroke="#8E8E93" stroke-width="2" stroke-linecap="round"/>
</svg>
