<svg width="24" height="24" viewBox="0 0 24 24" fill="none" xmlns="http://www.w3.org/2000/svg">
<path d="M15.2 19V17.4444C15.2 16.6193 14.8629 15.828 14.2627 15.2446C13.6626 14.6611 12.8487 14.3333 12 14.3333H7.2C6.35131 14.3333 5.53737 14.6611 4.93726 15.2446C4.33714 15.828 4 16.6193 4 17.4444V19M15.2 5.0995C15.8862 5.27246 16.4939 5.66204 16.9277 6.20711C17.3616 6.75217 17.597 7.42186 17.597 8.11106C17.597 8.80025 17.3616 9.46994 16.9277 10.015C16.4939 10.5601 15.8862 10.9497 15.2 11.1226M20 18.9999V17.4444C19.9995 16.755 19.7635 16.0854 19.3291 15.5406C18.8947 14.9958 18.2865 14.6067 17.6 14.4344M12.8 8.11111C12.8 9.82933 11.3673 11.2222 9.6 11.2222C7.83269 11.2222 6.4 9.82933 6.4 8.11111C6.4 6.39289 7.83269 5 9.6 5C11.3673 5 12.8 6.39289 12.8 8.11111Z" stroke="#8E8E93" stroke-width="2" stroke-linecap="round"/>
</svg>
