<svg preserveAspectRatio="none" width="100%" height="100%" overflow="visible" style="display: block;" viewBox="0 0 30 30" fill="none" xmlns="http://www.w3.org/2000/svg">
<g id="house">
<path id="Vector" d="M18.75 26.249V16.249C18.75 15.9175 18.6183 15.5995 18.3839 15.3651C18.1495 15.1307 17.8315 14.999 17.5 14.999H12.5C12.1685 14.999 11.8505 15.1307 11.6161 15.3651C11.3817 15.5995 11.25 15.9175 11.25 16.249V26.249M3.75 12.4996C3.74991 12.1359 3.82917 11.7766 3.98223 11.4468C4.1353 11.1169 4.3585 10.8244 4.63625 10.5896L13.3862 3.08961C13.8375 2.70824 14.4092 2.49901 15 2.49901C15.5908 2.49901 16.1625 2.70824 16.6138 3.08961L25.3638 10.5896C25.6415 10.8244 25.8647 11.1169 26.0178 11.4468C26.1708 11.7766 26.2501 12.1359 26.25 12.4996V23.7496C26.25 24.4126 25.9866 25.0485 25.5178 25.5174C25.0489 25.9862 24.413 26.2496 23.75 26.2496H6.25C5.58696 26.2496 4.95107 25.9862 4.48223 25.5174C4.01339 25.0485 3.75 24.4126 3.75 23.7496V12.4996Z" stroke="var(--stroke-0, #C9A44C)" stroke-width="2.5" stroke-linecap="round"/>
</g>
</svg>
