<svg preserveAspectRatio="none" width="100%" height="100%" overflow="visible" style="display: block;" viewBox="0 0 32 32" fill="none" xmlns="http://www.w3.org/2000/svg">
<g id="diamond-percent">
<path id="Vector" d="M12.2656 12.2674H12.279M19.3322 12.6671L12.6654 19.3332M19.5991 19.7329H19.6125M3.59835 13.7333C3.29961 14.0317 3.06262 14.386 2.90092 14.7761C2.73923 15.1661 2.656 15.5842 2.656 16.0064C2.656 16.4286 2.73923 16.8467 2.90092 17.2367C3.06262 17.6268 3.29961 17.9811 3.59835 18.2795L13.7186 28.3986C14.017 28.6973 14.3714 28.9342 14.7615 29.0959C15.1516 29.2576 15.5697 29.3408 15.992 29.3408C16.4143 29.3408 16.8324 29.2576 17.2225 29.0959C17.6126 28.9342 17.967 28.6973 18.2654 28.3986L28.3856 18.2795C28.6844 17.9811 28.9214 17.6268 29.0831 17.2367C29.2448 16.8467 29.328 16.4286 29.328 16.0064C29.328 15.5842 29.2448 15.1661 29.0831 14.7761C28.9214 14.386 28.6844 14.0317 28.3856 13.7333L18.2654 3.61424C17.967 3.31553 17.6126 3.07857 17.2225 2.91689C16.8324 2.75522 16.4143 2.672 15.992 2.672C15.5697 2.672 15.1516 2.75522 14.7615 2.91689C14.3714 3.07857 14.017 3.31553 13.7186 3.61424L3.59835 13.7333Z" stroke="var(--stroke-0, #FAD06B)" stroke-width="2" stroke-linecap="round"/>
</g>
</svg>
