<svg preserveAspectRatio="none" width="100%" height="100%" overflow="visible" style="display: block;" viewBox="0 0 32 32" fill="none" xmlns="http://www.w3.org/2000/svg">
<g id="user-star">
<path id="Vector" d="M10.6663 19.9991H9.33302C7.91861 19.9991 6.56214 20.561 5.56201 21.5611C4.56187 22.5613 4 23.9177 4 25.3321V27.9987M21.4006 16.8204C21.4887 16.5502 21.6608 16.3152 21.8919 16.1497C22.1229 15.9842 22.4008 15.8969 22.685 15.9005C22.9691 15.9041 23.2447 15.9983 23.4716 16.1696C23.6984 16.3408 23.8645 16.5801 23.9458 16.8524L24.9284 18.7883C25.024 18.9765 25.163 19.1393 25.3338 19.2633C25.5046 19.3873 25.7025 19.469 25.911 19.5016L28.0896 19.8429C28.3701 19.844 28.6431 19.9336 28.8698 20.0988C29.0965 20.2641 29.2653 20.4966 29.3521 20.7634C29.4389 21.0301 29.4394 21.3175 29.3535 21.5845C29.2676 21.8516 29.0996 22.0847 28.8735 22.2508L27.3109 23.808C27.1613 23.957 27.0492 24.1393 26.9839 24.34C26.9185 24.5408 26.9017 24.7541 26.935 24.9626L27.2803 27.1132C27.3753 27.3827 27.3811 27.6756 27.297 27.9488C27.2129 28.2219 27.0432 28.4608 26.813 28.6302C26.5829 28.7996 26.3043 28.8905 26.0185 28.8896C25.7328 28.8887 25.4548 28.7959 25.2257 28.6251L23.2725 27.6251C23.0843 27.5287 22.876 27.4784 22.6645 27.4784C22.4531 27.4784 22.2447 27.5287 22.0566 27.6251L20.1034 28.6251C19.8743 28.7945 19.5969 28.8861 19.312 28.8865C19.0271 28.8868 18.7495 28.7958 18.5201 28.6269C18.2906 28.4579 18.1213 28.2199 18.037 27.9478C17.9526 27.6756 17.9577 27.3836 18.0515 27.1145L18.3955 24.964C18.4287 24.7555 18.4119 24.5421 18.3465 24.3414C18.2812 24.1406 18.1691 23.9583 18.0195 23.8093L16.4782 22.2721C16.2445 22.1101 16.0686 21.8777 15.9763 21.6086C15.8841 21.3396 15.8803 21.0482 15.9655 20.7768C16.0506 20.5055 16.2204 20.2685 16.4498 20.1005C16.6793 19.9324 16.9565 19.8422 17.2409 19.8429L19.4181 19.5016C19.6266 19.469 19.8245 19.3873 19.9953 19.2633C20.1661 19.1393 20.305 18.9765 20.4007 18.7883L21.4006 16.8204ZM18.6658 9.33304C18.6658 12.2784 16.2781 14.6661 13.3328 14.6661C10.3874 14.6661 7.99976 12.2784 7.99976 9.33304C7.99976 6.38768 10.3874 4 13.3328 4C16.2781 4 18.6658 6.38768 18.6658 9.33304Z" stroke="var(--stroke-0, #FAD06B)" stroke-width="2" stroke-linecap="round"/>
</g>
</svg>
