<svg preserveAspectRatio="none" width="100%" height="100%" overflow="visible" style="display: block;" viewBox="0 0 20.334 20" fill="none" xmlns="http://www.w3.org/2000/svg">
<g id="Frame 1">
<path id="Subtract" d="M10.334 0C15.8568 0 20.334 4.47715 20.334 10C20.334 15.5228 15.8568 20 10.334 20C4.81114 20 0.333984 15.5228 0.333984 10C0.333984 4.47715 4.81114 0 10.334 0ZM16.6865 5.27344C16.2852 4.8942 15.6528 4.91219 15.2734 5.31348L8.4375 12.5439L5.72656 9.67676C5.34727 9.27555 4.71483 9.25766 4.31348 9.63672C3.91213 10.0161 3.89404 10.6494 4.27344 11.0508L7.71094 14.6865L8.4375 15.4561L9.16406 14.6865L16.7266 6.68652C17.1058 6.28517 17.0878 5.65278 16.6865 5.27344Z" fill="var(--fill-0, #FAD06B)"/>
</g>
</svg>
