<svg preserveAspectRatio="none" width="100%" height="100%" overflow="visible" style="display: block;" viewBox="0 0 15.3344 15.3344" fill="none" xmlns="http://www.w3.org/2000/svg">
<path id="Vector" d="M1.12245 7.05203C1.20328 6.85702 1.32177 6.67984 1.47112 6.53064L6.53064 1.47112C6.67984 1.32177 6.85702 1.20328 7.05203 1.12245C7.24705 1.04161 7.45609 1 7.6672 1C7.87831 1 8.08735 1.04161 8.28237 1.12245C8.47739 1.20328 8.65456 1.32177 8.80376 1.47112L13.8633 6.53064C14.0126 6.67984 14.1311 6.85702 14.212 7.05203C14.2928 7.24705 14.3344 7.45609 14.3344 7.6672C14.3344 7.87831 14.2928 8.08735 14.212 8.28237C14.1311 8.47739 14.0126 8.65456 13.8633 8.80376L8.80376 13.8633C8.65456 14.0126 8.47739 14.1311 8.28237 14.212C8.08735 14.2928 7.87831 14.3344 7.6672 14.3344C7.45609 14.3344 7.24705 14.2928 7.05203 14.212C6.85702 14.1311 6.67984 14.0126 6.53064 13.8633L1.47112 8.80376C1.32177 8.65456 1.20328 8.47739 1.12245 8.28237C1.04161 8.08735 1 7.87831 1 7.6672C1 7.45609 1.04161 7.24705 1.12245 7.05203Z" stroke="var(--stroke-0, #FAD06B)" stroke-width="2" stroke-linecap="round"/>
</svg>
