<svg preserveAspectRatio="none" width="100%" height="100%" overflow="visible" style="display: block;" viewBox="0 0 20 20" fill="none" xmlns="http://www.w3.org/2000/svg">
<path id="Subtract" d="M10 0C15.5228 0 20 4.47715 20 10C20 15.5228 15.5228 20 10 20C4.47715 20 0 15.5228 0 10C0 4.47715 4.47715 0 10 0ZM16.3525 5.27344C15.9512 4.8942 15.3188 4.91219 14.9395 5.31348L8.10352 12.5439L5.39258 9.67676C5.01329 9.27555 4.38084 9.25766 3.97949 9.63672C3.57815 10.0161 3.56006 10.6494 3.93945 11.0508L7.37695 14.6865L8.10352 15.4561L8.83008 14.6865L16.3926 6.68652C16.7718 6.28517 16.7538 5.65278 16.3525 5.27344Z" fill="var(--fill-0, #FAD06B)"/>
</svg>
