<svg preserveAspectRatio="none" width="100%" height="100%" overflow="visible" style="display: block;" viewBox="0 0 40 40" fill="none" xmlns="http://www.w3.org/2000/svg">
<g id="house">
<path id="Vector" d="M25.7499 13.3334L29.5832 17.1667C29.8947 17.4721 30.3136 17.6431 30.7499 17.6431C31.1861 17.6431 31.605 17.4721 31.9165 17.1667L35.4165 13.6667C35.7219 13.3551 35.893 12.9363 35.893 12.5C35.893 12.0638 35.7219 11.6449 35.4165 11.3334L31.5832 7.50003M34.9164 4.1667L18.9164 20.1667M21.5832 26.6667C21.5832 31.7293 17.4791 35.8334 12.4165 35.8334C7.35392 35.8334 3.24986 31.7293 3.24986 26.6667C3.24986 21.6041 7.35392 17.5 12.4165 17.5C17.4791 17.5 21.5832 21.6041 21.5832 26.6667Z" stroke="var(--stroke-0, #C9A44C)" stroke-width="2" stroke-linecap="round"/>
</g>
</svg>
