<svg preserveAspectRatio="none" width="100%" height="100%" overflow="visible" style="display: block;" viewBox="0 0 30 30" fill="none" xmlns="http://www.w3.org/2000/svg">
<g id="house">
<path id="Vector" d="M15.0083 27.4378C20.2078 25.6252 24.5823 22.5001 24.5823 16.2499V7.49966C24.5823 7.16812 24.4507 6.85017 24.2163 6.61574C23.9819 6.38132 23.664 6.24962 23.3325 6.24962C20.8327 6.24962 17.7205 4.76207 15.5333 2.84951C15.2685 2.62325 14.9316 2.49893 14.5834 2.49893C14.2351 2.49893 13.8982 2.62325 13.6334 2.84951C11.4587 4.74957 8.33398 6.24962 5.83423 6.24962C5.50274 6.24962 5.18483 6.38132 4.95043 6.61574C4.71603 6.85017 4.58435 7.16812 4.58435 7.49966V16.2499C4.58435 22.5001 8.95891 25.6252 14.1709 27.4253C14.4403 27.5257 14.736 27.5301 15.0083 27.4378Z" stroke="var(--stroke-0, #C9A44C)" stroke-width="2.5" stroke-linecap="round"/>
</g>
</svg>
