<svg preserveAspectRatio="none" width="100%" height="100%" overflow="visible" style="display: block;" viewBox="0 0 40 40" fill="none" xmlns="http://www.w3.org/2000/svg">
<g id="house">
<path id="Vector" d="M26.2386 35V31.6667C26.2386 29.8986 25.5361 28.2029 24.2858 26.9526C23.0355 25.7024 21.3396 25 19.5714 25H9.57058C7.80233 25 6.1065 25.7024 4.85616 26.9526C3.60582 28.2029 2.90338 29.8986 2.90338 31.6667V35M26.2386 5.21322C27.6683 5.58383 28.9345 6.41866 29.8383 7.58665C30.7422 8.75465 31.2326 10.1897 31.2326 11.6665C31.2326 13.1434 30.7422 14.5784 29.8383 15.7464C28.9345 16.9144 27.6683 17.7493 26.2386 18.1199M36.2394 34.9998V31.6665C36.2383 30.1894 35.7466 28.7544 34.8415 27.587C33.9365 26.4196 32.6693 25.5858 31.239 25.2165M21.2382 11.6667C21.2382 15.3486 18.2532 18.3333 14.571 18.3333C10.8888 18.3333 7.90378 15.3486 7.90378 11.6667C7.90378 7.98477 10.8888 5 14.571 5C18.2532 5 21.2382 7.98477 21.2382 11.6667Z" stroke="var(--stroke-0, #C9A44C)" stroke-width="2" stroke-linecap="round"/>
</g>
</svg>
