<svg preserveAspectRatio="none" width="100%" height="100%" overflow="visible" style="display: block;" viewBox="0 0 40 40" fill="none" xmlns="http://www.w3.org/2000/svg">
<g id="house">
<path id="Vector" d="M22.4774 29.5607C21.977 31.215 21.0565 32.7114 19.8055 33.904C18.5545 35.0965 17.0158 35.9445 15.3394 36.3651C13.663 36.7858 11.9063 36.7648 10.2404 36.3041C8.57459 35.8435 7.05659 34.959 5.83447 33.7369C4.61234 32.5148 3.72784 30.9968 3.26721 29.3309C2.80659 27.6651 2.78558 25.9083 3.20624 24.232C3.62689 22.5556 4.47485 21.0169 5.66739 19.7659C6.85994 18.5149 8.35636 17.5943 10.0107 17.094M24.5706 10.0009H26.2372V16.6676M9.79355 24.6135L11.2369 23.7802L14.5702 29.5535M36.2372 13.3342C36.2372 18.8571 31.7601 23.3342 26.2372 23.3342C20.7144 23.3342 16.2372 18.8571 16.2372 13.3342C16.2372 7.81138 20.7144 3.33423 26.2372 3.33423C31.7601 3.33423 36.2372 7.81138 36.2372 13.3342Z" stroke="var(--stroke-0, #C9A44C)" stroke-width="2" stroke-linecap="round"/>
</g>
</svg>
