<svg preserveAspectRatio="none" width="100%" height="100%" overflow="visible" style="display: block;" viewBox="0 0 40 40" fill="none" xmlns="http://www.w3.org/2000/svg">
<g id="house">
<path id="Vector" d="M22.9044 3.33201H9.57238C8.68841 3.33201 7.84065 3.68322 7.21559 4.30839C6.59053 4.93357 6.23938 5.78148 6.23938 6.66561V33.3344C6.23938 34.2185 6.59053 35.0664 7.21559 35.6916C7.84065 36.3168 8.68841 36.668 9.57238 36.668H29.5704C30.4543 36.668 31.3021 36.3168 31.9272 35.6916C32.5522 35.0664 32.9034 34.2185 32.9034 33.3344V13.3328M22.9044 3.33201C23.4319 3.33115 23.9544 3.43468 24.4418 3.63665C24.9291 3.83861 25.3717 4.135 25.7441 4.50877L31.7235 10.4892C32.0982 10.8618 32.3954 11.3049 32.5979 11.793C32.8004 12.281 32.9042 12.8044 32.9034 13.3328M22.9044 3.33201V11.666C22.9044 12.1081 23.08 12.532 23.3925 12.8446C23.705 13.1572 24.1289 13.3328 24.5709 13.3328L32.9034 13.3328" stroke="var(--stroke-0, #C9A44C)" stroke-width="2" stroke-linecap="round"/>
</g>
</svg>
