<svg preserveAspectRatio="none" width="100%" height="100%" overflow="visible" style="display: block;" viewBox="0 0 40 40" fill="none" xmlns="http://www.w3.org/2000/svg">
<g id="Frame">
<rect x="0.625" y="0.625" width="38.75" height="38.75" rx="19.375" stroke="var(--stroke-0, white)" stroke-opacity="0.101961" stroke-width="1.25"/>
<path id="Vector" fill-rule="evenodd" clip-rule="evenodd" d="M25.3333 12C26.0406 12 26.7189 12.281 27.219 12.781C27.719 13.2811 28 13.9594 28 14.6667V25.3333C28 26.0406 27.719 26.7189 27.219 27.219C26.7189 27.719 26.0406 28 25.3333 28H14.6667C13.9594 28 13.2811 27.719 12.781 27.219C12.281 26.7189 12 26.0406 12 25.3333V14.6667C12 13.9594 12.281 13.2811 12.781 12.781C13.2811 12.281 13.9594 12 14.6667 12H25.3333ZM16.4444 18.2222C16.2087 18.2222 15.9826 18.3159 15.8159 18.4826C15.6492 18.6493 15.5556 18.8754 15.5556 19.1111V23.5556C15.5556 23.7913 15.6492 24.0174 15.8159 24.1841C15.9826 24.3508 16.2087 24.4444 16.4444 24.4444C16.6802 24.4444 16.9063 24.3508 17.073 24.1841C17.2397 24.0174 17.3333 23.7913 17.3333 23.5556V19.1111C17.3333 18.8754 17.2397 18.6493 17.073 18.4826C16.9063 18.3159 16.6802 18.2222 16.4444 18.2222ZM19.1111 17.3333C18.8754 17.3333 18.6493 17.427 18.4826 17.5937C18.3159 17.7604 18.2222 17.9865 18.2222 18.2222V23.5556C18.2222 23.7913 18.3159 24.0174 18.4826 24.1841C18.6493 24.3508 18.8754 24.4444 19.1111 24.4444C19.3469 24.4444 19.573 24.3508 19.7397 24.1841C19.9063 24.0174 20 23.7913 20 23.5556V20.3022C20.3468 19.925 20.7685 19.6244 21.2382 19.4196C21.5342 19.2933 21.9796 19.2418 22.2889 19.3396C22.3915 19.3656 22.4829 19.4242 22.5493 19.5067C22.5956 19.5689 22.6667 19.7076 22.6667 20V23.5556C22.6667 23.7913 22.7603 24.0174 22.927 24.1841C23.0937 24.3508 23.3198 24.4444 23.5556 24.4444C23.7913 24.4444 24.0174 24.3508 24.1841 24.1841C24.3508 24.0174 24.4444 23.7913 24.4444 23.5556V20C24.4444 19.4044 24.2933 18.8747 23.9787 18.4498C23.6891 18.0645 23.2839 17.782 22.8222 17.6436C22.0204 17.392 21.1324 17.5316 20.5396 17.7858C20.3496 17.8671 20.1647 17.9597 19.9858 18.0631C19.9485 17.8583 19.8406 17.6731 19.6807 17.5397C19.5209 17.4063 19.3193 17.3333 19.1111 17.3333ZM16.4444 15.5556C16.2087 15.5556 15.9826 15.6492 15.8159 15.8159C15.6492 15.9826 15.5556 16.2087 15.5556 16.4444C15.5556 16.6802 15.6492 16.9063 15.8159 17.073C15.9826 17.2397 16.2087 17.3333 16.4444 17.3333C16.6802 17.3333 16.9063 17.2397 17.073 17.073C17.2397 16.9063 17.3333 16.6802 17.3333 16.4444C17.3333 16.2087 17.2397 15.9826 17.073 15.8159C16.9063 15.6492 16.6802 15.5556 16.4444 15.5556Z" fill="var(--fill-0, #FAD06B)"/>
</g>
</svg>
