<svg preserveAspectRatio="none" width="100%" height="100%" overflow="visible" style="display: block;" viewBox="0 0 40 40" fill="none" xmlns="http://www.w3.org/2000/svg">
<g id="house">
<path id="Vector" d="M34.5714 8.33243C34.5714 11.0941 27.8556 13.3328 19.5714 13.3328C11.2871 13.3328 4.57137 11.0941 4.57137 8.33243M34.5714 8.33243C34.5714 5.57078 27.8556 3.33203 19.5714 3.33203C11.2871 3.33203 4.57137 5.57078 4.57137 8.33243M34.5714 8.33243V31.6676C34.5714 32.9938 32.991 34.2657 30.178 35.2034C27.3649 36.1412 23.5496 36.668 19.5714 36.668C15.5931 36.668 11.7778 36.1412 8.96476 35.2034C6.15172 34.2657 4.57137 32.9938 4.57137 31.6676V8.33243M4.57137 20C4.57137 21.3262 6.15172 22.5981 8.96476 23.5358C11.7778 24.4736 15.5931 25.0004 19.5714 25.0004C23.5496 25.0004 27.3649 24.4736 30.178 23.5358C32.991 22.5981 34.5714 21.3262 34.5714 20" stroke="var(--stroke-0, #C9A44C)" stroke-width="2" stroke-linecap="round"/>
</g>
</svg>
