<svg preserveAspectRatio="none" width="100%" height="100%" overflow="visible" style="display: block;" viewBox="0 0 40 40" fill="none" xmlns="http://www.w3.org/2000/svg">
<g id="Frame">
<rect x="0.625" y="0.625" width="38.75" height="38.75" rx="19.375" stroke="var(--stroke-0, white)" stroke-opacity="0.101961" stroke-width="1.25"/>
<g id="Vector">
<path d="M22.6619 19.9813C22.6619 21.4525 21.4673 22.645 19.9937 22.645C18.5202 22.645 17.3256 21.4525 17.3256 19.9813C17.3256 18.5102 18.5202 17.3176 19.9937 17.3176C21.4673 17.3176 22.6619 18.5102 22.6619 19.9813Z" fill="var(--fill-0, #FAD06B)"/>
<path fill-rule="evenodd" clip-rule="evenodd" d="M27.5762 14.7568C27.8143 15.3849 27.9387 16.051 27.9485 16.7225C27.998 17.5674 27.9982 17.8438 28 19.9825L28 20.0124C28 22.1794 27.9884 22.4499 27.9502 23.3032C27.9369 23.9676 27.8116 24.6222 27.578 25.2432C27.1613 26.3147 26.3128 27.1627 25.2386 27.5787C24.6166 27.812 23.96 27.937 23.2963 27.9503C22.4478 28 22.1697 28 20.0001 28C17.8304 28 17.5593 27.9885 16.7037 27.9503C16.0373 27.929 15.3807 27.7924 14.7623 27.5512C13.6873 27.136 12.8387 26.2881 12.422 25.2165C12.1884 24.5947 12.0631 23.9401 12.0498 23.2766C12 22.4287 12 22.1519 12 19.9858C12 17.8197 12.0116 17.5492 12.0498 16.695C12.0622 16.0324 12.1884 15.3769 12.422 14.7568C12.8378 13.6844 13.6873 12.8365 14.7614 12.4213C15.3825 12.188 16.0391 12.063 16.7028 12.0488C17.5513 12 17.8294 12 19.9991 12C22.1688 12 22.4398 12.0106 23.2945 12.0488C23.9591 12.063 24.6157 12.188 25.2368 12.4213C26.311 12.8365 27.1595 13.6844 27.5762 14.7568ZM15.8863 19.9814C15.8863 22.2468 17.7246 24.082 19.9938 24.082C22.2612 24.082 24.1013 22.2468 24.1013 19.9814C24.1013 17.7159 22.2612 15.8807 19.9938 15.8807C17.7246 15.8807 15.8863 17.7159 15.8863 19.9814ZM23.307 15.729C23.307 16.2577 23.7343 16.6852 24.2648 16.6852C24.7934 16.6852 25.2217 16.2577 25.2217 15.729C25.2217 15.2004 24.7934 14.7728 24.2648 14.7728C23.7343 14.7728 23.307 15.2004 23.307 15.729Z" fill="var(--fill-0, #FAD06B)"/>
</g>
</g>
</svg>
