<svg width="300" height="120" viewBox="0 0 300 120" fill="none" xmlns="http://www.w3.org/2000/svg">
<path d="M125.593 51.2888C125.981 51.2436 126.308 51.2292 126.548 51.5936C127.01 52.2933 126.745 53.3696 126.101 53.8459C125.402 54.3624 124.717 54.3192 123.933 54.2033C124.433 55.3777 124.563 56.9176 124.21 58.0998C123.123 61.7405 119.021 61.1448 116.306 62.2775C115.885 62.4529 115.468 63.2139 115.757 63.643C116.28 64.4169 117.7 64.2532 118.505 64.3167C120.024 64.4254 121.505 64.3219 122.992 64.7268C125.164 65.3179 125.823 67.3096 125.313 69.4294C125.059 70.482 124.183 71.6071 123.236 72.0932C121.046 73.2183 118.145 73.2035 115.826 72.5557C114.926 72.2636 114.282 71.9312 113.765 71.0546C113.19 70.0812 113.508 67.9038 114.959 68.1938C115.279 68.2578 115.529 68.64 115.681 68.9498C115.757 70.027 115.374 70.9655 116.619 71.6126C118.744 72.7306 124.959 72.4431 124.193 68.6468C123.712 67.2617 121.938 67.2523 120.716 67.197C118.525 67.1113 113.236 67.5221 113.972 63.7812C114.282 62.2087 116.563 61.7966 117.797 61.4209C116.522 61.0829 115.294 60.6486 114.72 59.291C114.181 58.0138 114.142 56.1611 114.612 54.859C115.015 53.7222 115.843 52.804 116.906 52.3139C118.362 51.6323 120.529 51.692 122.022 52.3151C122.357 52.4546 123.431 53.2414 123.619 53.2764C125.014 53.5359 124.44 51.8461 125.593 51.2888ZM119.673 60.93C120.269 60.8402 120.976 60.7255 121.332 60.1533C122.157 58.8261 122.144 56.732 121.945 55.2336C121.714 53.4859 120.918 52.5094 119.158 52.5545C116.563 53.0972 116.701 56.7757 117.009 58.894C117.241 60.4866 118.223 60.9941 119.673 60.93Z" fill="white"/>
<path d="M49.3512 47.0282L49.5302 47.0257L53.9584 47.0185C58.1437 47.0138 62.9663 46.4515 62.9171 52.2102C62.8687 57.8745 57.9679 57.6568 53.9866 57.6542C54.0163 58.9225 53.9922 60.3001 53.9932 61.5767C53.9918 62.1799 53.9661 62.6727 54.076 63.2656C54.3915 64.9691 56.2666 64.5581 56.5577 64.7533C56.571 64.9131 56.6031 65.062 56.523 65.1954C56.4083 65.2849 56.231 65.3357 56.0891 65.3319C53.7101 65.2663 51.3256 65.3467 48.9465 65.3088C48.8419 65.1534 48.8796 64.9732 48.88 64.7569C49.1824 64.5676 50.0196 64.9333 51.1019 64.0138C51.5958 62.8434 51.4334 58.9699 51.4329 57.4516L51.4335 47.6315C50.8554 47.6356 49.9525 47.6649 49.4037 47.6097C49.3308 47.515 49.3517 47.17 49.3512 47.0282ZM53.9998 56.9263C55.6973 56.934 57.9499 57.0646 59.2754 55.7184C60.3321 54.5545 60.4563 53.5876 60.4377 52.0352C60.3872 47.8132 57.1488 47.7227 53.9923 47.7382L53.9998 56.9263Z" fill="white"/>
<path d="M94.4675 51.9285C95.7209 51.7632 97.521 52.3078 98.5161 53.1415C99.8376 54.2223 100.518 55.8236 100.706 57.5448C101.161 61.7072 99.4926 65.2891 95.2272 65.819C91.8085 66.0342 89.2018 63.613 88.9427 60.0684C88.6243 55.7116 89.9664 52.3989 94.4675 51.9285ZM95.0153 65.004C95.7516 64.9149 96.5451 64.7614 97.0147 64.0795C97.9292 62.7497 97.99 60.7338 97.9942 59.1445C98.0002 56.5558 98.297 52.5665 94.7059 52.7434C92.2929 52.9729 91.8509 54.2842 91.6223 56.6382C91.4639 58.2697 91.5268 59.9592 91.6418 61.5925C91.8825 64.065 92.562 65.0393 95.0153 65.004Z" fill="white"/>
<path d="M66.4346 47.0336C68.029 46.9794 69.8203 47.0189 71.4297 47.0174C71.9704 48.1266 72.6722 50.0659 73.1725 51.2545C74.5474 54.5206 75.8358 57.8566 77.2349 61.1129C79.1214 56.4997 80.804 51.6182 82.7208 47.0262C84.1528 47.0098 85.6442 46.9818 87.0761 47.0455C87.1836 47.0503 87.1676 47.0633 87.2338 47.1458C87.2725 47.3338 87.285 47.3802 87.203 47.5563C86.9751 47.6975 85.7425 47.6359 85.3885 47.6347L85.3853 57.9549C85.3851 59.6006 85.3405 61.4453 85.4441 63.0831C85.5526 64.7963 87.1204 64.5278 87.4927 64.8267C87.5965 64.986 87.5888 65.035 87.5729 65.2212C87.4124 65.36 81.3535 65.3341 80.7202 65.2788C80.5621 65.0994 80.5904 65.176 80.5515 64.941C80.7265 64.6492 82.0012 64.6828 82.4 64.1469C82.5869 63.8957 82.7921 63.6463 82.832 63.2341C82.944 62.0783 82.9038 60.7915 82.9037 59.6281L82.9024 52.6708C82.9066 51.7324 82.9446 50.3633 82.8588 49.4552C82.4146 50.3064 81.5879 52.6109 81.2084 53.5872L77.9466 61.9861C77.7459 62.5025 76.8047 64.9996 76.6176 65.2712C76.4536 65.3592 76.3838 65.3399 76.2027 65.3172C75.9671 65.0038 75.0858 62.7852 74.8635 62.2456L71.3358 53.6528C70.9907 52.8067 69.8953 49.9795 69.4733 49.3095C69.4506 49.4287 69.4339 49.5491 69.423 49.6701C69.3755 50.2332 69.4037 51.29 69.4034 51.8881L69.4032 60.1768C69.404 61.1975 69.3965 62.2717 69.5008 63.2881C69.5401 63.672 69.6227 63.9488 69.8717 64.2498C70.2891 64.7543 70.883 64.7413 71.4691 64.7841L71.4669 65.4363C69.8814 65.3691 68.1905 65.4383 66.5908 65.4075C66.5019 65.2925 66.504 65.2609 66.5004 65.1105C66.7708 64.6221 67.7083 64.7862 68.0985 64.3596C68.7408 63.6574 68.5747 62.4953 68.5696 61.6024L68.5675 58.6788C68.5668 55.023 68.5268 51.2812 68.5817 47.6318C67.9888 47.6363 67.0463 47.6684 66.4849 47.6139C66.4107 47.4791 66.4331 47.2016 66.4346 47.0336Z" fill="white"/>
<path d="M132.468 51.9288C133.297 51.7665 135.196 52.0296 135.996 52.3417C138.104 53.1648 137.841 55.3118 137.837 57.3059L137.825 61.3891C137.822 62.1001 137.67 63.6036 138.477 63.9205C139.672 64.3894 139.651 62.8582 140.159 62.6184C140.725 63.0957 139.65 65.1416 138.865 65.3944C137.091 65.9657 135.655 65.5316 135.045 63.6211C133.446 65.3006 131.151 66.5492 128.994 65.1437C128.926 65.0927 128.859 65.0401 128.793 64.986C128.092 64.425 127.634 63.5968 127.519 62.6839C127.411 61.7343 127.664 60.7783 128.222 60.0196C129.665 58.1 132.808 57.7976 134.96 57.5229C134.965 55.3333 135.404 52.4065 132.278 52.7729C130.82 52.9439 130.633 53.8339 130.314 55.1224C130.183 55.6493 129.882 56.1609 129.312 56.2088C127.644 56.349 127.785 54.5899 128.509 53.6045C129.522 52.3032 130.988 52.0734 132.468 51.9288ZM130.959 63.9071C132.517 64.8851 134.023 63.7588 135.18 62.6618C135.181 61.8801 135.288 59.0313 135.152 58.3945C135.053 58.372 135.016 58.3571 134.919 58.3881C133.366 58.5592 131.83 59.1011 130.786 60.3762C129.932 61.4195 129.954 62.9782 130.959 63.9071Z" fill="white"/>
<path d="M148.853 52.1674C149.671 52.1022 150.533 52.1 151.291 52.4641C153.37 53.4621 153.154 55.5609 153.148 57.5418L153.136 60.9005C153.133 61.7766 153.097 62.5246 153.394 63.3667C153.697 64.2224 154.243 64.362 155 64.7101L154.996 65.5411C153.464 65.4251 150.654 65.5212 149.022 65.5263L149.025 64.6965C149.698 64.5651 150.228 64.4913 150.4 63.692C150.56 62.9507 150.459 62.2519 150.473 61.5018C150.477 61.2688 150.468 61.0341 150.472 60.8011C150.44 59.1468 150.543 57.4842 150.361 55.837C150.309 55.3666 150.184 54.7671 149.949 54.3426C149.311 53.404 147.542 53.5845 146.735 54.1533C145.928 54.7218 145.671 55.4502 145.488 56.3695C145.386 57.7474 145.143 63.0425 145.742 64.0221C146.005 64.452 146.608 64.5104 147.05 64.6081L147.048 65.4358C146.153 65.3798 145.062 65.4074 144.155 65.4064C143.086 65.4051 141.909 65.3837 140.849 65.434L140.85 64.6009C142.041 64.5332 142.616 64.2487 142.754 62.9248C142.882 61.7117 142.834 60.5064 142.834 59.2876L142.833 53.0851C142.207 53.0612 141.48 53.0804 140.846 53.0828L140.845 52.3444L144.793 52.3394C144.987 53.1166 145.156 54.0261 145.329 54.823C145.514 54.609 145.802 54.1694 145.993 53.9245C146.876 52.7965 147.533 52.4575 148.853 52.1674Z" fill="white"/>
<path d="M109.656 52.1699C111.111 52.0601 112.844 52.2868 112.94 54.2981C112.972 54.9622 112.466 55.419 111.842 55.4042C111.12 55.3871 110.872 54.7671 110.422 54.2903C109.774 53.5993 108.65 53.9144 108.061 54.5494C107.265 55.4063 106.957 56.4445 106.95 57.6189L106.951 60.915C106.951 61.5398 106.954 62.176 106.975 62.7971C107.036 64.6609 107.746 64.6955 109.241 64.693L109.235 65.5437C107.878 65.4389 105.521 65.518 104.093 65.5196C103.406 65.5174 102.577 65.4961 101.904 65.5473L101.909 64.7003C103.24 64.7011 104.072 64.6074 104.223 63.0008C104.341 61.7533 104.297 60.5207 104.296 59.269L104.288 53.0829C103.501 53.0659 102.689 53.0799 101.9 53.0842V52.3446L106.275 52.3407C106.386 53.0974 106.534 54.3304 106.733 55.0192C107.698 53.3849 107.65 52.6974 109.656 52.1699Z" fill="white"/>
<path d="M61.1279 62.9134C61.8622 62.6772 62.6413 63.1057 62.8683 63.8705C63.0953 64.6354 62.6844 65.4472 61.9504 65.6841C61.2158 65.9213 60.4358 65.4929 60.2085 64.7274C59.9813 63.962 60.393 63.1496 61.1279 62.9134Z" fill="white"/>
<path d="M45.0159 62.9178C45.7467 62.6639 46.5365 63.0767 46.778 63.8388C47.0195 64.601 46.6208 65.4224 45.8885 65.6717C45.1594 65.9198 44.375 65.5066 44.1346 64.7478C43.8942 63.989 44.2883 63.1706 45.0159 62.9178Z" fill="white"/>
<path d="M39.5815 47.6329C39.1367 47.6348 37.5778 47.6676 37.2285 47.5979C37.1771 47.3838 37.1926 47.3106 37.2209 47.091C37.3383 46.9913 44.2038 46.9295 44.411 47.1465C44.4251 47.3997 44.4434 47.3112 44.336 47.5361C44.1061 47.7257 42.4714 47.63 42.0324 47.634L42.038 56.3033C42.0385 61.3998 42.6265 65.8559 36.0641 65.7413C34.0369 65.7058 32.336 65.4002 32 63.0006V62.51C32.0972 62.0694 32.254 61.47 32.6491 61.2429C33.2005 60.9259 33.9812 60.7882 34.3425 61.4386C34.9844 62.5942 34.2043 64.3816 35.8376 64.8444C36.5856 64.9978 37.567 64.8483 38.2269 64.4565C38.8507 64.086 39.2072 63.2534 39.342 62.5431C39.6656 60.8377 39.5778 58.9866 39.5775 57.2522L39.5763 50.9523C39.576 49.8993 39.5468 48.6748 39.5815 47.6329Z" fill="white"/>
<path d="M174.685 59.2203C174.788 58.9725 174.938 58.7474 175.128 58.5579L181.556 52.1298C181.745 51.94 181.971 51.7895 182.218 51.6868C182.466 51.5841 182.732 51.5312 183 51.5312C183.268 51.5312 183.534 51.5841 183.781 51.6868C184.029 51.7895 184.254 51.94 184.444 52.1298L190.872 58.5579C191.062 58.7474 191.212 58.9725 191.315 59.2203C191.418 59.468 191.47 59.7336 191.47 60.0018C191.47 60.27 191.418 60.5356 191.315 60.7834C191.212 61.0312 191.062 61.2563 190.872 61.4458L184.444 67.8739C184.254 68.0636 184.029 68.2142 183.781 68.3169C183.534 68.4196 183.268 68.4724 183 68.4724C182.732 68.4724 182.466 68.4196 182.218 68.3169C181.971 68.2142 181.745 68.0636 181.556 67.8739L175.128 61.4458C174.938 61.2563 174.788 61.0312 174.685 60.7834C174.582 60.5356 174.529 60.27 174.529 60.0018C174.529 59.7336 174.582 59.468 174.685 59.2203Z" stroke="#FAD06B" stroke-width="2.54097" stroke-linecap="round"/>
<path d="M211 31H268V89H211V31Z" fill="white"/>
<path d="M218.065 35.1063C218.297 35.0728 218.952 35.0825 219.213 35.0827L221.271 35.0871C221.27 35.582 221.365 38.0516 221.125 38.3108C220.736 38.3008 220.417 36.2871 219.424 35.698C219.073 35.4895 218.603 35.3872 218.204 35.4956C217.79 35.6083 217.466 35.9326 217.256 36.3028C216.503 37.6316 216.531 42.2807 216.958 43.7993C217.078 44.2254 217.364 44.4507 217.731 44.6604C218.002 44.6651 218.292 44.6597 218.564 44.6592C219.58 44.1092 219.269 42.7717 219.324 41.8023C219.349 41.3784 219.31 40.6251 218.925 40.3638C218.72 40.2247 218.255 40.2911 218.072 40.0062C218.076 39.8746 218.069 39.9208 218.166 39.7973C218.389 39.6728 220.977 39.733 221.421 39.7355C221.421 41.7509 221.453 45.6051 221.384 47.7344C221.382 47.793 221.278 47.8117 221.222 47.8281C221.177 47.8168 221.124 47.8036 221.063 47.7886C220.692 47.091 220.513 46.0833 219.87 45.5609C219.138 44.9661 217.8 44.9482 217.233 45.7959C217.04 46.0882 216.969 46.4463 217.035 46.7919C217.14 47.3488 217.594 47.7727 218.059 48.0432C218.954 48.5638 219.875 48.9319 220.73 49.529C222.119 50.6551 222.314 52.4695 221.013 53.7968C219.96 54.8722 218.559 54.8125 217.174 54.8189C216.486 54.8259 215.798 54.8222 215.109 54.8078L215.111 52.4509C215.11 52.1033 215.021 51.2243 215.218 50.983C215.533 50.9764 215.546 51.1891 215.622 51.4708C215.889 52.4104 216.064 53.273 216.88 53.91C218.155 54.9053 220.096 54.3548 219.837 52.4949C219.693 51.6817 219.147 51.2819 218.513 50.9043C217.345 50.2086 215.397 49.6203 215.124 48.1034C214.835 46.4935 216.03 45.3065 217.494 45.0449C215.393 44.5199 214.535 43.5183 214.241 41.3414C213.863 38.5398 214.996 35.5213 218.065 35.1063Z" fill="black"/>
<path d="M236.261 45.6848C236.943 45.6799 237.625 45.6799 238.306 45.6846C238.304 46.2706 238.333 47.3215 238.263 47.8611C239.348 46.8406 241.385 46.816 241.812 48.5422C241.974 49.1957 241.906 50.412 241.905 51.1194C241.91 52.3474 241.903 53.5755 241.886 54.8034C241.211 54.8145 240.537 54.8146 239.862 54.8037L239.864 50.9043C239.865 50.0642 239.923 48.8883 239.75 48.0998C239.142 47.4727 238.641 47.9351 238.317 48.532C238.293 49.8017 238.285 51.0716 238.29 52.3415C238.289 53.1336 238.268 54.0205 238.3 54.7995C237.62 54.8111 236.94 54.8126 236.26 54.8039C236.256 54.2343 236.22 53.259 236.335 52.7473C235.294 54.5546 233.968 55.3865 231.884 54.7099C230.418 54.0384 229.905 52.9925 229.827 51.3945C229.77 50.2244 230.047 49.158 230.803 48.2493C231.639 47.2437 233.658 46.6841 234.669 47.6717C234.954 47.9462 235.12 48.325 235.13 48.7244C235.152 49.8597 233.956 50.2577 233.159 49.5696C232.955 49.393 233.002 48.8955 233.008 48.6346C233.203 48.3651 233.597 48.021 233.553 47.7186C233.286 47.4418 232.668 47.5943 232.463 47.8278C232.049 48.2977 231.957 49.5828 231.927 50.189C231.859 51.0898 231.96 51.9001 232.041 52.7863C232.227 54.8202 233.793 55.0206 235.134 53.6978C236.446 52.4047 236.268 50.4785 236.266 48.7441L236.261 45.6848Z" fill="black"/>
<path d="M245.22 36.644C246.108 36.7102 246.456 36.8319 246.887 37.6821C247.574 36.544 249.094 36.2566 250.108 37.144C250.91 37.8452 250.74 39.5009 250.739 40.5317L250.739 44.2956L248.724 44.2931L248.726 40.312C248.726 39.6542 248.742 38.9887 248.711 38.3302C248.663 37.2922 248.093 36.9596 247.31 37.6782C246.98 38.6192 247.08 40.0719 247.082 41.1044L247.083 44.0244C247.091 44.1515 247.1 44.1679 247.046 44.2765C246.638 44.3249 245.525 44.2954 245.07 44.293L245.073 40.0561C245.075 39.337 245.099 38.566 245.058 37.8518C245.007 36.9841 243.71 37.258 243.643 38.0392C243.585 38.7152 243.61 39.3876 243.61 40.0658L243.614 44.2954L241.599 44.2931L241.599 36.7677C242.189 36.7889 242.838 36.7733 243.432 36.771C243.433 37.0972 243.428 37.2479 243.38 37.579C243.927 36.8501 244.355 36.6802 245.22 36.644Z" fill="black"/>
<path d="M237.58 35.2728L239.594 35.2729L239.595 44.2952L237.671 44.2911L237.65 43.5951C237.13 44.4374 236.619 44.4281 235.712 44.3687C233.203 43.7525 233.104 38.8724 234.787 37.3675C235.691 36.5586 236.74 36.3491 237.596 37.289C237.562 36.6485 237.579 35.9201 237.58 35.2728Z" fill="black"/>
<path d="M236.458 37.1346C237.204 37.1354 237.566 37.8388 237.541 38.4799C237.491 39.7798 238.027 43.1166 236.856 43.8899C236.204 44.0106 235.827 43.4026 235.815 42.8553C235.788 41.6108 235.401 37.9779 236.458 37.1346Z" fill="white"/>
<path d="M225.299 36.6752C225.455 36.6646 225.644 36.6596 225.795 36.6623C229.402 36.7267 229.948 42.7345 226.983 44.159C226.688 44.3007 226.474 44.3684 226.177 44.4557C225.627 44.5686 224.859 44.3835 224.388 44.0843C221.759 42.4151 222.056 37.4887 225.299 36.6752Z" fill="black"/>
<path d="M225.48 37.0406C225.685 37.0363 225.919 37.0449 226.127 37.0473C226.271 37.1746 226.412 37.307 226.511 37.4743C226.968 38.2443 226.843 42.3456 226.605 43.3006C226.519 43.6456 226.405 43.8663 226.098 44.0498C224.819 44.5189 224.706 42.2883 224.784 41.5203C224.9 40.3858 224.407 37.6703 225.48 37.0406Z" fill="white"/>
<path d="M254.454 36.6763L255.013 36.6634C258.084 36.6105 257.781 38.3682 257.779 40.7618L257.772 44.2951L255.759 44.292L255.729 43.552C255.67 43.6445 255.572 43.8231 255.504 43.8942C254.495 44.9507 252.531 44.5961 252.156 43.0961C252.099 42.8705 252.087 42.6519 252.07 42.4248C252.208 40.035 254.169 40.4201 255.659 39.2912C255.667 38.7496 255.718 38.0979 255.645 37.55C255.538 36.74 253.524 36.9365 254.339 37.8847C254.454 38.0191 254.554 38.2456 254.622 38.4132C254.358 39.1766 254.198 39.1923 253.472 39.3879C253.176 39.3064 253.015 39.257 252.727 39.1379C251.725 37.7729 253.34 36.9585 254.454 36.6763Z" fill="black"/>
<path d="M255.62 39.8758L255.661 39.9273C255.69 40.6827 256.006 44.5428 254.396 43.7168C254.078 43.2404 254.12 41.757 254.289 41.1862C254.491 40.5031 255.041 40.1799 255.62 39.8758Z" fill="white"/>
<path d="M225.558 47.1901C225.725 47.177 225.893 47.1704 226.061 47.1704C228.74 47.1766 228.454 48.634 228.452 50.7167L228.45 54.805C227.839 54.8127 227.227 54.8096 226.616 54.7958C226.619 54.524 226.625 54.2523 226.634 53.9807C225.761 55.2572 223.743 55.3989 223.018 53.8663C222.867 53.5465 222.866 53.1539 222.866 52.8007C222.873 52.5834 222.908 52.3679 222.97 52.1598C223.351 50.9199 225.274 50.488 226.435 49.8591C226.432 49.2738 226.469 48.6934 226.434 48.1063C226.405 47.6053 226.043 47.5495 225.631 47.54C225.384 47.5344 225.146 47.5926 224.995 47.8082C224.801 48.4395 226.303 49.3112 224.266 49.8973C223.867 49.802 223.187 49.4996 223.191 49.0264C223.199 47.7608 224.607 47.3063 225.558 47.1901Z" fill="black"/>
<path d="M226.362 50.3753C226.412 50.3856 226.391 50.3838 226.438 50.4471C226.425 51.3593 226.831 54.773 225.22 54.2942C225.014 54.0204 224.974 53.8473 224.974 53.5078C224.972 51.8723 224.821 51.2078 226.362 50.3753Z" fill="white"/>
<path d="M262.755 36.6724C262.931 36.6664 263.107 36.6622 263.282 36.6596C265.564 36.6312 265.273 38.8825 265.271 40.4982L265.262 44.2951L263.247 44.2927L263.25 40.3429C263.25 39.6109 263.24 38.9129 263.214 38.1806C263.178 37.1727 262.418 37.0413 261.836 37.697C261.52 38.2639 261.609 39.92 261.61 40.5929L261.609 44.2954L259.593 44.2927V36.7751C260.226 36.7833 260.884 36.772 261.519 36.7689L261.508 37.5311C261.974 37.0441 262.151 36.9044 262.755 36.6724Z" fill="black"/>
<path d="M245.653 47.189C246.13 47.1326 247.55 47.1687 248.096 47.1714L248.1 48.3339C248.099 48.5818 248.116 49.0136 247.944 49.1879C247.766 49.124 247.3 48.2923 247.106 48.003C246.518 47.1255 244.857 47.5617 244.99 48.5433C245.225 50.2758 248.662 50.1033 248.571 52.2801C248.542 52.977 248.501 53.4591 247.979 53.9813C247.143 54.8746 246.206 54.8009 245.106 54.8118C244.576 54.8252 244.046 54.8249 243.516 54.811C243.514 54.2571 243.518 53.6999 243.522 53.146C243.525 52.7825 243.366 52.2176 243.69 52.0072C243.74 52.0077 243.797 52.0083 243.86 52.0089C244.209 52.6971 244.204 53.5621 244.86 54.0895C245.383 54.5109 246.39 54.6097 246.831 54.013C247.013 53.765 247.089 53.4533 247.043 53.1476C246.858 51.956 245.211 51.5357 244.403 50.8726C244.284 50.7748 244.16 50.678 244.044 50.5772C242.846 49.5403 243.533 47.8469 244.859 47.3536C245.133 47.2514 245.368 47.2283 245.653 47.189Z" fill="black"/>
<path d="M230.272 35.2731L232.287 35.2728L232.287 44.2979C231.633 44.283 230.931 44.2945 230.272 44.2931V35.2731Z" fill="black"/>
</svg>
