<svg width="300" height="120" viewBox="0 0 300 120" fill="none" xmlns="http://www.w3.org/2000/svg">
<path d="M37.7218 46.6057C38.2041 46.5217 49.4438 51.2015 51.0482 51.717C48.1841 52.9011 45.1883 54.0268 42.2957 55.1622C41.3592 55.5476 40.3893 55.9009 39.4469 56.2742C38.9455 56.4728 38.31 56.6804 37.8386 56.9232C34.8548 55.2074 33.3249 54.0353 30.7584 51.7355C31.1693 51.3786 31.5666 50.995 31.9734 50.6308C33.7441 49.0454 35.6768 47.7978 37.7218 46.6057Z" fill="#B17F25"/>
<path d="M116.554 67.8418C119.551 67.48 122.27 69.6253 122.626 72.6303C122.982 75.6353 120.837 78.3591 117.84 78.71C114.85 79.06 112.142 76.9165 111.787 73.9192C111.433 70.9218 113.565 68.2027 116.554 67.8418ZM117.453 77.7859C121.344 77.4348 121.565 70.2446 118.265 68.924C117.767 68.725 117.355 68.749 116.835 68.7687C113.287 69.2635 112.972 75.3893 115.494 77.2609C115.977 77.6198 116.859 77.9074 117.453 77.7859Z" fill="white"/>
<path d="M31.0911 67.9017C32.5354 67.9028 36.1805 67.6829 37.3442 68.2037C37.9424 68.4715 38.4816 68.9344 38.7147 69.562C38.9417 70.1732 38.9283 71.013 38.653 71.6068C38.3227 72.3191 37.6832 72.6799 36.9785 72.942C38.6205 73.4933 39.6917 74.5547 39.3281 76.4396C39.2291 76.9529 38.9664 77.3259 38.6401 77.7233C37.4443 78.8421 35.8592 78.6817 34.3481 78.678C33.1625 78.6648 31.9769 78.6667 30.7913 78.6836L30.7936 77.8447C31.1763 77.8248 31.6433 77.8296 32.0326 77.8245C31.9856 76.9018 32.0213 75.622 32.0212 74.6804L32.0227 68.6875L30.7858 68.6894C30.7884 68.4387 30.7425 68.2667 30.8077 68.0124C30.9241 67.8845 30.8811 67.9216 31.0911 67.9017ZM33.7891 77.7302C34.8176 77.7346 36.1431 77.8573 36.9442 77.1267C37.7513 76.2759 37.74 74.9838 36.9081 74.1292C36.139 73.3392 34.783 73.5921 33.7855 73.5157L33.7891 77.7302ZM33.7933 72.6253C34.7601 72.6234 35.6107 72.7329 36.3981 72.1115C36.8697 71.5851 37.0039 71.252 36.9701 70.5444C36.8689 68.4308 35.1307 68.9569 33.7906 68.8234L33.7933 72.6253Z" fill="white"/>
<path d="M78.688 67.8835C79.5127 67.9265 80.7287 67.9054 81.562 67.8863C81.5397 68.123 81.5446 68.4521 81.5419 68.6975L80.3171 68.6834L80.3182 77.8373C80.7161 77.8173 81.1625 77.8285 81.5648 77.8301C81.5419 78.0819 81.544 78.4348 81.538 78.695C80.2583 78.6421 78.6319 78.6632 77.3449 78.6841L77.3479 77.8428C77.7146 77.8258 78.1462 77.8295 78.5185 77.8243C78.446 76.1398 78.512 73.9053 78.5092 72.1779V70.6585C77.768 72.1079 77.0459 73.9646 76.3208 75.4587C75.9967 76.1264 74.9516 78.397 74.778 79C74.3484 78.2831 73.881 77.1441 73.5029 76.3694C72.5483 74.413 71.6762 72.3062 70.6801 70.3781C70.7615 70.9719 70.7271 72.3362 70.7268 73.0015L70.7226 77.8336C71.1194 77.819 71.5444 77.8283 71.9434 77.8299C71.9261 78.0849 71.9327 78.4288 71.9301 78.691C70.9113 78.6524 69.5288 78.6491 68.5122 78.6892L68.5078 77.8419C68.8811 77.8232 69.3245 77.8327 69.7033 77.8311C69.6624 75.5701 69.7186 73.294 69.694 71.0317C69.6856 70.2566 69.6888 69.4667 69.7115 68.6924C69.3118 68.6791 68.9083 68.6894 68.5082 68.6954L68.5088 67.9033L69.4247 67.9014C70.1149 67.8903 70.8053 67.8932 71.4954 67.9102C71.8787 68.5938 72.3831 69.7594 72.7273 70.4933L75.1112 75.5984C76.3495 73.1945 77.4331 70.2705 78.688 67.8835Z" fill="white"/>
<path d="M29.4832 53.0634C29.7041 53.1754 30.5099 53.7628 30.7547 53.9314C31.375 54.356 32.0089 54.7601 32.6553 55.1434C34.2133 56.0741 35.4126 56.5239 36.9397 57.3074C36.1557 57.5103 34.8005 58.0871 33.9858 58.4075L28.8875 60.411C28.8036 60.4381 28.7227 60.4725 28.6404 60.504C26.9253 61.1593 25.2275 61.8709 23.5 62.4929C25.0068 58.7449 26.7332 56.0461 29.4832 53.0634Z" fill="#A59769"/>
<path d="M23.5287 41C23.8012 41.0353 26.9527 42.3036 27.4004 42.484C30.5523 43.7542 33.8244 44.9313 36.9505 46.2368C36.1201 46.4631 34.8447 47.1344 34.0668 47.5402C32.2869 48.4545 31.1062 49.2523 29.5132 50.4038C26.9086 47.7753 24.9002 44.4246 23.5287 41Z" fill="#A7A6A6"/>
<path d="M124.922 67.9007C125.52 67.895 126.151 67.8775 126.743 67.9234C126.876 68.0674 127.045 68.2941 127.161 68.4565C128.841 70.8089 130.612 73.1152 132.272 75.4797C132.321 73.2618 132.282 70.9067 132.277 68.6832L131.048 68.6935V67.9063C132.19 67.8991 133.362 67.9218 134.5 67.8884C134.481 68.1349 134.495 68.4411 134.5 68.6937L133.327 68.6847C133.373 69.7835 133.337 71.1338 133.337 72.2477L133.335 78.8552C133.079 78.8505 132.565 78.8814 132.385 78.7298C131.732 77.8964 131.002 76.8329 130.37 75.9615L126.509 70.6336L126.505 77.8348C126.9 77.8199 127.331 77.8303 127.728 77.8318C127.692 78.0975 127.705 78.4161 127.709 78.6883C126.737 78.6499 125.221 78.654 124.253 78.6884L124.249 77.8428L125.471 77.826C125.377 75.2234 125.52 72.544 125.458 69.9349C125.426 68.5766 125.172 68.6416 123.944 68.6952L123.942 67.9082L124.922 67.9007Z" fill="white"/>
<path d="M41.7995 67.9015C42.4635 67.8952 43.1245 67.8822 43.7878 67.918C44.1376 68.2565 45.0013 69.4993 45.3219 69.9415L47.9116 73.5023C48.3506 74.1028 48.9189 74.9266 49.3899 75.4828C49.3495 74.852 49.3819 73.7936 49.3822 73.1272L49.378 68.6869C48.9577 68.6834 48.5373 68.6859 48.1171 68.6943L48.1169 67.9061L51.6014 67.8943C51.5817 68.1473 51.594 68.4367 51.5989 68.6935L50.4067 68.6813L50.4037 78.8553L49.5583 78.8265C49.1147 78.3414 47.9923 76.7145 47.559 76.1169L43.5296 70.5638C43.608 72.8219 43.5341 75.5384 43.5337 77.8335C43.9454 77.8175 44.39 77.8296 44.8044 77.8332C44.7894 78.0948 44.7972 78.4214 44.7965 78.6884C43.8214 78.6545 42.2933 78.6482 41.3277 78.6903L41.3163 77.8414L42.553 77.8262C42.4579 75.5535 42.5928 73.2032 42.5392 70.9233C42.5247 70.3124 42.6231 69.3234 42.2783 68.807C42.0022 68.6128 41.3782 68.6824 41.0217 68.6927L41.0226 67.904L41.7995 67.9015Z" fill="white"/>
<path d="M90.492 67.4025L91.3418 67.3978L91.3396 70.2182C91.0518 70.1928 90.7231 70.2088 90.4304 70.2161C90.4026 69.7586 90.4125 69.2846 90.4146 68.8254C89.6107 68.8681 87.6 68.87 86.8103 68.8202L86.8114 72.6915C87.7096 72.6612 88.7375 72.6835 89.6456 72.6831C89.6238 72.3117 89.6401 71.8552 89.6434 71.4771L90.5836 71.474L90.5798 74.9158C90.1906 74.8823 90.032 74.8885 89.6412 74.922C89.6107 74.4967 89.632 74.0867 89.6467 73.6613C88.707 73.5967 87.7537 73.661 86.8064 73.6242C86.825 74.9829 86.8119 76.3719 86.8135 77.733C87.6976 77.7034 88.7364 77.7298 89.6325 77.73L90.5738 77.7285L90.5683 76.3192C90.8687 76.3058 91.1935 76.3112 91.496 76.3106C91.478 77.0754 91.4949 77.9238 91.4955 78.6943C91.1695 78.6717 90.7913 78.6699 90.4626 78.6734C88.2623 78.6967 86.0374 78.627 83.8398 78.6876C83.8452 78.4061 83.8436 78.1245 83.8343 77.8432C84.2033 77.826 84.6328 77.8296 85.0067 77.8244C84.9609 76.777 84.9898 75.5379 84.9898 74.4788L84.9931 68.6856L83.8387 68.6921L83.8381 67.9051L90.3209 67.8893C90.3541 67.7204 90.3699 67.5142 90.492 67.4025Z" fill="white"/>
<path d="M52.4409 67.9065C53.8845 67.8859 55.3263 67.9122 56.7693 67.8957C56.743 68.1346 56.7471 68.4498 56.7438 68.6964C56.3664 68.6821 55.9198 68.6893 55.5373 68.6867C56.0944 69.7051 57.3184 71.4771 57.9881 72.494C58.6518 71.2739 59.5347 69.8955 60.2641 68.6943C59.8065 68.6888 59.3489 68.6866 58.8912 68.6879L58.8959 67.9115C60.0443 67.8825 61.1962 67.9163 62.3462 67.894L62.3385 68.6946L61.4562 68.6842C60.9619 69.3945 60.3199 70.5321 59.8248 71.3151C59.4227 71.9936 58.8722 72.7069 58.5711 73.4306C58.2515 74.1987 58.4112 76.835 58.4143 77.8387C58.7925 77.8184 59.2383 77.83 59.6218 77.8305L59.616 78.6915C58.3977 78.6403 56.6646 78.6524 55.4426 78.6873C55.4485 78.4055 55.4469 78.1237 55.4378 77.842C55.8125 77.8262 56.2431 77.8291 56.6219 77.8237C56.5848 76.6561 56.7521 75.0446 56.5907 73.9414C56.4827 73.2028 53.9736 69.6449 53.3726 68.6883L52.4018 68.6867C52.3998 68.4649 52.3805 68.1068 52.4409 67.9065Z" fill="white"/>
<path d="M103.573 67.9L107.519 67.8976C107.496 68.1622 107.504 68.4294 107.506 68.6952L106.29 68.6849C106.37 71.5447 106.309 74.8431 106.293 77.7307L109.824 77.7221L109.821 76.3312C110.138 76.3031 110.507 76.3083 110.829 76.3054C110.817 76.6184 110.825 76.9715 110.824 77.288C110.822 77.7568 110.824 78.2256 110.83 78.6944C109.99 78.6384 108.815 78.671 107.946 78.6709C106.4 78.6656 104.855 78.6695 103.31 78.6824L103.308 77.8451C103.685 77.8284 104.098 77.8306 104.478 77.8248C104.417 74.8618 104.47 71.6626 104.47 68.6826L103.301 68.6864C103.292 68.3131 103.173 67.9553 103.573 67.9Z" fill="white"/>
<path d="M94.2087 67.9024L98.3074 67.8974C98.2796 68.1836 98.2873 68.4076 98.2949 68.6951L97.104 68.6888L97.1083 77.7301L100.61 77.7222L100.608 76.3303C100.927 76.3042 101.257 76.3126 101.578 76.3151L101.558 77.042C101.557 77.5924 101.561 78.1427 101.57 78.693C100.658 78.6414 99.4918 78.6714 98.5576 78.6712C97.0762 78.6642 95.5947 78.669 94.1133 78.6856L94.1182 77.8448C94.466 77.8207 94.9363 77.8285 95.2933 77.8236C95.229 77.1376 95.2748 75.5111 95.2748 74.766L95.2693 68.6831L94.1122 68.692C94.1046 68.4287 94.0593 68.0936 94.2087 67.9024Z" fill="white"/>
<path d="M154.185 59.2203C154.288 58.9725 154.438 58.7474 154.628 58.5579L161.056 52.1298C161.245 51.94 161.471 51.7895 161.718 51.6868C161.966 51.5841 162.232 51.5312 162.5 51.5312C162.768 51.5312 163.034 51.5841 163.281 51.6868C163.529 51.7895 163.754 51.94 163.944 52.1298L170.372 58.5579C170.562 58.7474 170.712 58.9725 170.815 59.2203C170.918 59.468 170.97 59.7336 170.97 60.0018C170.97 60.27 170.918 60.5356 170.815 60.7834C170.712 61.0312 170.562 61.2563 170.372 61.4458L163.944 67.8739C163.754 68.0636 163.529 68.2142 163.281 68.3169C163.034 68.4196 162.768 68.4724 162.5 68.4724C162.232 68.4724 161.966 68.4196 161.718 68.3169C161.471 68.2142 161.245 68.0636 161.056 67.8739L154.628 61.4458C154.438 61.2563 154.288 61.0312 154.185 60.7834C154.082 60.5356 154.029 60.27 154.029 60.0018C154.029 59.7336 154.082 59.468 154.185 59.2203Z" stroke="#FAD06B" stroke-width="2.54097" stroke-linecap="round"/>
<path d="M213.813 48.062C213.951 48.0335 213.941 48.0329 214.079 48.0636C214.159 48.3073 214.105 51.0666 214.105 51.484C210.86 51.6123 207.865 52.2198 204.825 53.369C200.04 55.1781 195.828 56.6126 190.673 56.7184L190.583 56.689C190.416 56.3603 190.548 53.7921 190.57 53.2829C191.457 53.2704 192.508 53.2773 193.378 53.1445C199.565 52.1991 205.116 48.8659 211.394 48.2144C212.181 48.1327 213.016 48.1294 213.813 48.062Z" fill="white"/>
<path d="M212.852 63.3212C213.199 63.2971 213.755 63.3022 214.116 63.2949C214.099 64.454 214.096 65.6133 214.108 66.7725C210.05 66.4208 204.793 68.6596 201.018 69.9557C198.147 70.9413 194.932 71.7575 191.912 71.8853C191.459 71.9155 191.005 71.9424 190.551 71.9671C190.484 71.2179 190.509 69.3531 190.568 68.5898C191.537 68.4282 192.611 68.4863 193.556 68.329C200.192 67.2242 206.01 63.6056 212.852 63.3212Z" fill="white"/>
<path d="M213.963 58.2826L214.06 58.2857C214.141 58.3976 214.103 61.2981 214.117 61.7667C212.969 61.6589 210.936 61.7178 209.721 61.7185L194.395 61.7164C193.409 61.716 191.511 61.6578 190.643 61.7485L190.588 61.7131C190.425 61.4389 190.567 58.8989 190.549 58.2938L213.963 58.2826Z" fill="white"/>
<path d="M238.511 61.3182C240.086 61.314 243.943 61.1157 245.276 61.5816C246.013 61.8391 246.609 62.3133 246.949 63.0348C247.338 63.8602 247.389 65.0189 247.083 65.8789C246.733 66.8601 245.938 67.3488 245.051 67.7678C246.135 69.021 246.995 70.3667 247.981 71.6373C247.469 71.6614 246.825 71.6345 246.302 71.6246C246.031 71.6301 245.723 71.6499 245.457 71.5999C244.632 71.4468 243.088 68.7926 242.515 68.0126C241.918 68.031 241.48 68.0429 240.885 68.0013L240.883 71.6543C240.122 71.6323 239.328 71.6021 238.57 71.6812C238.519 70.8881 238.552 69.7893 238.553 68.9685L238.557 63.9989C238.557 63.1975 238.581 62.0987 238.511 61.3182ZM240.861 65.7823C241.742 65.7496 244.016 66.0236 244.596 65.3975C244.806 65.1704 244.932 64.834 244.907 64.5221C244.887 64.276 244.674 63.9135 244.493 63.7505C244.335 63.6078 244.124 63.545 243.925 63.4887C243.657 63.4197 241.143 63.3889 240.869 63.4691C240.9 64.052 240.903 65.2029 240.861 65.7823Z" fill="white"/>
<path d="M240.869 63.4691C241.143 63.3889 243.657 63.4197 243.925 63.4887L243.913 63.52L243.935 63.5754C243.615 63.7106 241.629 63.5551 241.141 63.5941C241.061 63.6006 240.935 63.5232 240.869 63.4691Z" fill="#0019FE" fill-opacity="0.01"/>
<path d="M240.335 48.2091C241.177 48.2088 242.233 48.1799 243.057 48.2466C243.478 48.6462 244.585 51.6048 244.87 52.3375C245.641 54.3191 246.83 56.5829 247.474 58.5725C247.17 58.7219 245.546 58.6523 245.014 58.6916C244.751 58.1681 244.131 56.7098 244.036 56.1543L243.08 56.1724C241.84 56.1785 240.599 56.1744 239.359 56.1601C239.216 57.0468 238.72 57.7503 238.591 58.6675C237.724 58.6585 236.857 58.6595 235.991 58.6704C236.082 58.1665 236.387 57.5452 236.569 57.0606C236.949 56.0433 237.443 54.9877 237.859 53.9961C238.315 52.9108 239.757 48.9264 240.335 48.2091ZM240.164 54.189C240.71 54.1413 241.253 54.1687 241.801 54.1833C242.309 54.1826 242.706 54.1874 243.212 54.1278C243.027 53.6197 242.082 50.8019 241.773 50.6744C241.714 50.6501 241.642 50.6415 241.579 50.6316C241.262 51.4593 240.547 53.5366 240.164 54.189Z" fill="white"/>
<path d="M256.995 48.2116C259.473 48.2565 262.046 48.2206 264.527 48.2147C264.542 48.7344 264.512 49.9487 264.605 50.3563C262.83 50.3188 260.913 50.3476 259.135 50.358C259.144 50.9521 259.175 51.6916 259.106 52.2677C259.569 52.192 260.402 52.2155 260.905 52.2153L263.819 52.2176C263.826 52.9393 263.777 53.7626 263.845 54.4716C262.354 54.3903 260.625 54.5371 259.158 54.4254C259.094 54.8022 259.173 55.901 259.111 56.5063C259.996 56.3995 260.924 56.4953 261.809 56.4636C262.709 56.4314 263.854 56.554 264.728 56.3649C264.768 57.1341 264.707 57.9033 264.766 58.6931C262.191 58.5338 259.505 58.7907 256.938 58.6151C256.716 58.5999 256.863 56.8196 256.863 56.5707L256.857 51.5312C256.857 50.9998 256.79 48.5148 256.995 48.2116Z" fill="white"/>
<path d="M223.271 48.0068C223.92 47.9547 226.364 48.2048 226.828 48.6301C227.031 49.0579 226.947 50.284 226.923 50.8012C226.46 50.6548 225.993 50.5239 225.522 50.4089C224.399 50.1379 222.665 49.9358 221.585 50.4567C221.18 50.6522 221.184 51.321 221.584 51.5298C223.014 52.2434 224.494 52.2822 225.986 52.963C228.164 53.9569 228.183 56.7731 226.355 58.1289C225.197 58.9877 223.437 59.1575 222.016 58.9193C221.15 58.8155 219.905 58.6025 219.181 58.0136C218.723 57.6412 218.939 56.0686 218.917 55.3346C221.081 56.4548 222.116 57.1084 224.704 56.6293C225.27 56.1963 225.488 55.8975 225.125 55.2527C223.925 54.3933 221.163 54.4225 219.867 53.3039C218.152 51.8244 218.899 49.2217 220.901 48.4832C221.834 48.1393 222.282 48.1068 223.271 48.0068Z" fill="white"/>
<path d="M222.832 61.0085C223.883 60.9042 225.93 61.0573 226.824 61.6659C227.043 61.8146 226.951 63.5486 226.946 63.9038C226.69 63.8079 226.432 63.7161 226.173 63.6285C225.137 63.2897 221.616 62.6677 221.212 64.0622C221.267 64.9653 224.349 65.2465 225.134 65.6091C225.861 65.8883 226.573 66.2216 227.098 66.8303C228.033 67.9123 227.732 69.9447 226.689 70.8551C225.461 71.9265 223.929 72.1043 222.36 71.9534C220.803 71.7926 220.463 71.657 219.006 71.0396C218.857 70.3535 218.918 69.1056 218.944 68.3857C218.96 68.3991 218.976 68.4126 218.992 68.426C220.426 69.35 222.288 70.0599 224.007 69.7798C224.462 69.7336 224.897 69.6322 225.19 69.232C226.024 68.0873 223.789 67.7456 223.118 67.5422C221.525 67.0629 219.308 66.7712 218.965 64.7427C218.85 64.0621 219.045 63.0829 219.457 62.5269C220.253 61.4561 221.613 61.2106 222.832 61.0085Z" fill="white"/>
<path d="M258.19 61.3193L262.905 61.3088C263.902 61.3082 264.987 61.2853 265.978 61.3391C266.018 61.7339 266.022 63.1195 265.868 63.4562C264.865 63.4214 263.812 63.4272 262.806 63.4247C262.128 63.423 261.188 63.4062 260.528 63.4842C260.568 63.8689 260.529 64.8435 260.517 65.2615C262.008 65.2118 263.751 65.3304 265.215 65.1735C265.217 65.772 265.179 66.9544 265.267 67.4767C263.781 67.398 262.037 67.4367 260.526 67.4291C260.551 67.988 260.561 68.9685 260.509 69.5021C261.277 69.4896 265.722 69.4325 266.088 69.5884C266.264 69.9415 266.256 71.1537 266.093 71.511C265.942 71.634 265.93 71.64 265.725 71.6422C263.268 71.6685 260.699 71.5121 258.251 71.6674C258.182 70.9298 258.227 69.7844 258.23 69.0139L258.234 64.2794C258.233 63.3807 258.258 62.1986 258.19 61.3193Z" fill="white"/>
<path d="M248.859 61.3076C251.379 61.3853 254.039 61.2592 256.589 61.3252C256.58 62.0255 256.582 62.726 256.595 63.4262C255.426 63.4715 254.137 63.3936 252.954 63.4239C252.421 63.4377 251.796 63.3949 251.27 63.4755L251.201 63.4862C251.145 63.5684 251.157 64.99 251.128 65.2867C251.641 65.2389 255.426 65.1859 255.77 65.3046C256.002 65.7524 255.832 66.7896 255.924 67.4092L255.934 67.4699C254.474 67.3797 252.669 67.451 251.162 67.4258C251.185 67.9563 251.209 69.0103 251.125 69.5038C252.989 69.4595 254.906 69.5375 256.77 69.4812C256.788 70.1768 256.773 70.9408 256.775 71.64C255.684 71.6169 249.553 71.5302 248.889 71.7393C248.854 70.8606 248.905 69.9474 248.889 69.0689C248.843 66.5193 248.953 63.8441 248.859 61.3076Z" fill="white"/>
<path d="M246.343 48.2231C249.322 48.1809 252.499 48.3067 255.456 48.1987C255.453 48.8238 255.423 49.7651 255.482 50.3625C254.435 50.3144 253.119 50.3527 252.052 50.3549C252.111 51.915 252.056 53.8848 252.055 55.4757C252.052 56.2259 252.009 58.0436 252.122 58.6969C251.45 58.6565 250.321 58.6396 249.664 58.6877C249.587 58.0089 249.637 56.2562 249.647 55.4888C249.671 53.7888 249.602 52.0308 249.634 50.3477C248.504 50.3444 247.374 50.3494 246.244 50.3627C246.215 49.9687 246.221 48.5688 246.343 48.2231Z" fill="white"/>
<path d="M228.068 61.2263C231.117 61.2667 234.165 61.26 237.214 61.2064C237.182 61.9226 237.195 62.702 237.195 63.4237C236.18 63.5045 234.921 63.402 233.775 63.4784C233.731 65.0504 233.716 66.6229 233.729 68.1954C233.725 68.7946 233.886 71.2767 233.633 71.5802C233.346 71.7234 231.694 71.73 231.407 71.4062C231.337 70.9561 231.395 68.758 231.396 68.1387L231.393 65.485C231.387 64.8652 231.354 64.1165 231.414 63.5112C230.543 63.4468 228.888 63.3876 228.038 63.5028C228.026 63.0444 227.975 61.6299 228.068 61.2263Z" fill="white"/>
<path d="M267.239 61.1942C268.133 61.2794 269.257 61.2294 270.167 61.2471C272.259 61.2881 274.414 61.1912 276.5 61.2307C276.419 61.9042 276.478 62.6926 276.443 63.4019C275.674 63.5572 273.508 63.3079 272.964 63.48C273.027 63.8567 273 65.5535 273 65.9961C272.989 67.8764 272.996 69.7568 273.022 71.6367C272.286 71.6894 271.404 71.5472 270.689 71.7328C270.637 70.2278 270.691 68.5323 270.677 67.0088C270.669 66.0404 270.636 64.3608 270.717 63.4532C269.62 63.502 268.466 63.3954 267.327 63.4825L267.278 63.4357C267.186 63.0695 267.232 61.6699 267.239 61.1942Z" fill="white"/>
<path d="M228.029 48.1965C228.43 48.2223 228.904 48.2324 229.304 48.2213C231.905 48.1489 234.621 48.3282 237.214 48.1902C237.19 48.9222 237.192 49.6547 237.219 50.3866C236.671 50.3189 234.305 50.3365 233.718 50.388C233.814 51.6116 233.734 54.0688 233.731 55.4071C233.733 56.0671 233.727 58.113 233.811 58.6631C233.054 58.681 232.218 58.6634 231.457 58.6625C231.34 58.2619 231.359 58.1709 231.371 57.7599C231.423 56.0061 231.387 54.246 231.39 52.4917C231.392 51.77 231.256 51.0622 231.284 50.3462C230.232 50.3467 229.055 50.322 228.016 50.3836C228.054 49.7416 228.029 48.8567 228.029 48.1965Z" fill="white"/>
<path d="M256.595 63.4262L256.563 63.5473C256.343 63.6387 251.938 63.6155 251.421 63.5841C251.375 63.552 251.31 63.5123 251.27 63.4755C251.796 63.3949 252.421 63.4377 252.954 63.4239C254.137 63.3936 255.426 63.4715 256.595 63.4262Z" fill="#0019FE" fill-opacity="0.01"/>
<path d="M260.528 63.4842C261.188 63.4062 262.128 63.423 262.806 63.4247C263.812 63.4272 264.865 63.4214 265.868 63.4562L265.778 63.5839C265.125 63.6365 260.966 63.65 260.528 63.4842Z" fill="#0019FE" fill-opacity="0.01"/>
<path d="M272.964 63.48C273.508 63.3079 275.674 63.5572 276.443 63.4019L276.415 63.5474C276.068 63.6565 273.266 63.6602 272.964 63.48Z" fill="#0019FE" fill-opacity="0.01"/>
</svg>
