<svg width="272.32" height="68.8" viewBox="13.92 25.76 272.32 68.8" fill="none" xmlns="http://www.w3.org/2000/svg">
<path d="M26.7999 30.0731C27.558 30.0061 28.5918 30.0288 29.3619 30.0289L60.6452 30.0304C63.1997 30.0298 66.5769 29.9237 69.071 30.1115C70.0671 30.192 71.0395 30.4621 71.9376 30.9078C73.9637 31.907 75.6882 33.7259 76.4091 35.913C77.1098 38.0383 76.9597 40.5536 76.9597 42.7808L76.9603 56.2403C76.9609 57.4319 77.0749 59.7546 76.8002 60.9383C76.6815 61.4518 75.2975 61.6973 74.9317 61.3559C74.8532 61.2825 74.617 61.1763 74.5799 61.0224C74.2436 60.0686 74.1284 59.0305 73.9483 58.0333C73.8152 57.2997 73.6505 56.5724 73.4545 55.8535C71.8136 49.712 68.2712 44.6734 62.8034 41.4941C59.6749 39.6981 56.2 38.6157 52.6197 38.3219C42.8728 37.5767 34.1416 41.5935 29.2187 50.3508C26.6466 55.1778 25.6371 60.7078 26.3342 66.1528C27.6425 76.9908 35.3912 85.4988 46.0986 87.0412C46.9021 87.157 48.0651 87.2338 48.7461 87.6979C49.1652 87.9836 49.158 89.1324 48.831 89.4866C48.4459 89.9038 47.6519 89.9843 47.1104 89.9909C45.7459 89.9982 44.3758 89.9879 43.0088 89.9861L30.4075 89.9891C28.4957 89.9897 26.4786 90.0979 24.614 89.6182C20.6358 88.5949 18.0255 84.9258 18.0269 80.7883C18.0279 77.6297 18.031 74.4647 18.0311 71.3043L18.0275 42.8567C18.0273 41.2573 17.9172 39.3224 18.1389 37.765C18.791 33.1825 22.343 30.1574 26.7999 30.0731Z" fill="white"/>
<path d="M38.71 66.6638C39.2577 66.6059 40.361 66.6316 40.9557 66.6301C41.8475 66.6616 42.8108 66.5697 43.6943 66.6745C47.3582 67.1091 48.1777 70.8237 47.8066 73.9835C47.6474 75.339 47.0718 76.6841 46.0213 77.5178C44.0421 78.9615 41.5525 78.4233 39.2518 78.4988C38.515 78.5229 37.8869 78.0256 37.8908 77.2487C37.907 74.0031 37.7812 70.6999 37.9454 67.4646C37.9612 67.1504 38.4671 66.7917 38.71 66.6638ZM40.4957 76.2656C41.7971 76.2541 43.4489 76.489 44.3735 75.5384C44.3885 75.5229 44.4034 75.5074 44.4181 75.4918C45.5363 73.9585 45.5797 70.6496 44.0504 69.3445C43.2603 68.6701 41.5022 68.8797 40.4997 68.8264C40.52 70.3693 40.5266 71.9123 40.5196 73.4554C40.5199 74.2625 40.5558 75.4853 40.4957 76.2656Z" fill="white"/>
<path d="M110.361 66.656C111.559 66.5969 115.34 66.5045 116.355 66.7862C117.27 67.0401 118.063 67.5859 118.532 68.4372C119.045 69.3702 119.124 70.7141 118.83 71.7337C118.547 72.7156 117.936 73.4865 117.055 73.9762C117.711 75.2416 120.638 78.6891 117.283 78.5675C116.925 78.5545 116.681 78.1807 116.498 77.9183C115.947 77.0838 114.996 75.2709 114.505 74.3518C113.702 74.3641 112.898 74.384 112.096 74.36C112.143 75.3331 112.146 76.3495 112.108 77.3191C112.096 77.6109 111.934 78.0463 111.758 78.2435C111.277 78.7843 110.074 78.6828 109.661 78.1012C109.545 77.9387 109.486 77.3532 109.484 77.1501C109.464 74.3254 109.478 71.5003 109.473 68.6752C109.472 67.6066 109.365 67.2515 110.361 66.656ZM112.097 72.1777C113.26 72.159 115.12 72.414 115.909 71.714C116.259 71.0948 116.453 70.7244 116.272 69.9867C115.847 68.2511 113.446 68.8805 112.102 68.7636C112.115 69.6747 112.172 71.3033 112.097 72.1777Z" fill="white"/>
<path d="M90.1645 66.6645C90.2785 66.6587 90.3925 66.6536 90.5071 66.6494C91.3318 66.6185 92.2712 66.6265 93.1077 66.6305C94.6555 66.639 96.4236 66.4244 97.6436 67.6179C99.0779 69.0205 99.0478 71.9306 97.6684 73.3655C96.5004 74.5809 94.9213 74.4226 93.4143 74.4329C92.8909 74.4411 92.4324 74.4466 91.9072 74.4159C91.9102 74.7536 91.9309 75.1345 91.9161 75.4682C91.8647 76.6776 92.2782 78.6353 90.4829 78.588C89.4774 78.5616 89.2671 77.911 89.2157 76.9926C89.2128 74.0241 89.162 71.0453 89.2399 68.0785C89.26 67.3119 89.4857 66.9463 90.1645 66.6645ZM91.9055 72.3028C92.9688 72.2869 94.8717 72.4713 95.6072 71.8171C95.9936 71.2283 96.1259 70.6821 95.9959 69.9602C95.9368 69.6179 95.7419 69.3154 95.4577 69.1234C94.5509 68.5074 92.8395 68.904 91.8996 68.7538C91.9126 69.9367 91.9149 71.1198 91.9055 72.3028Z" fill="white"/>
<path d="M75.2735 66.6632C75.444 66.6548 75.6147 66.6481 75.7854 66.6432C76.6177 66.6205 77.5038 66.6295 78.3462 66.6304C79.8279 66.6318 81.6315 66.4607 82.7853 67.6331C84.2314 69.1029 84.1783 71.9389 82.7421 73.4039C81.6067 74.5622 80.1575 74.4203 78.7043 74.4313C78.1224 74.4392 77.5924 74.4429 77.0088 74.4191C77.0135 75.3599 77.1718 76.9765 76.8688 77.8196C76.7748 78.0807 76.6005 78.3472 76.3418 78.4616C75.9719 78.6248 75.4379 78.6521 75.0621 78.4958C74.841 78.4039 74.5999 78.2099 74.5137 77.9762C74.2954 77.3848 74.3328 68.812 74.4219 67.7459C74.4417 67.5103 74.5072 67.3169 74.6035 67.1028C74.8769 66.8664 74.9491 66.8193 75.2735 66.6632ZM77.004 72.3008C78.0072 72.2917 79.9838 72.4579 80.6898 71.8452C80.9149 71.5161 81.0555 71.3227 81.1122 70.9091C81.5009 68.071 78.6694 68.939 76.9981 68.7597C77.0194 69.8636 77.0359 71.1955 77.004 72.3008Z" fill="white"/>
<path d="M62.3684 66.658C64.1762 66.5447 64.5818 67.0087 65.1737 68.7002L66.9206 73.7768C67.2928 74.8509 67.6406 75.8163 67.9603 76.9585C68.315 78.2259 67.327 78.8387 66.2523 78.4851C65.6548 78.2884 65.199 76.4232 65.0213 75.8017L63.54 75.7992C62.7221 75.8053 61.5532 75.8455 60.7664 75.7759C60.565 76.4334 60.1291 78.3027 59.4304 78.5181C58.5225 78.798 57.4127 78.2156 57.7785 77.0696C58.7004 74.1814 59.8174 71.3425 60.8249 68.4814C61.1484 67.5631 61.4345 67.0269 62.3684 66.658ZM61.4489 73.7138C61.9723 73.7279 62.496 73.732 63.0195 73.726L64.2922 73.7216C64.216 73.4436 62.9575 69.6256 62.9142 69.5844C62.3349 70.8285 61.9796 72.4369 61.4489 73.7138Z" fill="white"/>
<path d="M100.669 66.6603C102.06 66.5836 103.518 66.6645 104.912 66.6351C105.751 66.6175 106.643 66.6287 107.482 66.663C108.059 67.0079 108.094 67.1523 108.124 67.8446C108.179 69.1183 106.313 68.8331 105.452 68.8327C104.437 68.8408 103.422 68.8397 102.406 68.8294C102.446 69.586 102.452 70.7067 102.408 71.4563C103.275 71.4231 106.569 71.2861 107.09 71.6378C107.334 71.802 107.479 72.0687 107.531 72.3573C107.583 72.6535 107.546 72.9771 107.369 73.2259C107.255 73.3872 107.076 73.5134 106.887 73.5671C105.896 73.8496 103.663 73.4944 102.478 73.6697C102.387 73.8326 102.423 73.937 102.426 74.1498C102.432 74.8514 102.449 75.5663 102.407 76.2657C103.159 76.2315 107.556 76.045 108.007 76.6076C108.564 77.3013 108.324 78.4893 106.932 78.502C105.185 78.518 103.175 78.5219 101.41 78.5145C100.652 78.5292 99.7975 78.233 99.801 77.2749C99.8122 74.0312 99.7112 70.7257 99.8465 67.4878C99.8595 67.1765 100.434 66.7932 100.669 66.6603Z" fill="white"/>
<path d="M49.8169 66.6636C50.8423 66.5317 51.5723 66.7227 51.6906 67.9288C51.7846 68.888 51.7434 69.8724 51.743 70.8383L51.7403 76.2663C52.5927 76.2402 55.9122 76.0869 56.5162 76.4118C56.8864 76.611 56.9964 76.9633 57.1119 77.3437C56.9578 77.8997 56.9339 78.1968 56.3592 78.4153C54.706 78.7203 52.0995 78.442 50.366 78.4792C49.6447 78.4947 49.0989 77.9809 49.0843 77.2075C49.0241 74.0412 48.9872 70.822 49.1048 67.6575C49.1221 67.1898 49.4868 66.9026 49.8169 66.6636Z" fill="white"/>
<path d="M86.0268 66.6196C87.9267 66.6209 87.5439 68.2517 87.545 69.7343L87.5468 73.0278C87.5468 74.5432 87.5793 76.0771 87.5031 77.5873C87.4712 78.2138 86.9974 78.4739 86.4651 78.5775C86.3871 78.5789 86.3086 78.5795 86.2306 78.5791C84.684 78.5696 84.8825 77.2727 84.8978 76.0565C84.9339 73.2197 84.8317 70.3492 84.9191 67.5176C85.0053 67.3697 85.0975 67.2258 85.1962 67.0862C85.4277 66.7646 85.657 66.6751 86.0268 66.6196Z" fill="white"/>
<path d="M138.685 59.2203C138.788 58.9725 138.938 58.7474 139.128 58.5579L145.556 52.1298C145.745 51.94 145.971 51.7895 146.218 51.6868C146.466 51.5841 146.732 51.5312 147 51.5312C147.268 51.5312 147.534 51.5841 147.781 51.6868C148.029 51.7895 148.254 51.94 148.444 52.1298L154.872 58.5579C155.062 58.7474 155.212 58.9725 155.315 59.2203C155.418 59.468 155.47 59.7336 155.47 60.0018C155.47 60.27 155.418 60.5356 155.315 60.7834C155.212 61.0312 155.062 61.2563 154.872 61.4458L148.444 67.8739C148.254 68.0636 148.029 68.2142 147.781 68.3169C147.534 68.4196 147.268 68.4724 147 68.4724C146.732 68.4724 146.466 68.4196 146.218 68.3169C145.971 68.2142 145.745 68.0636 145.556 67.8739L139.128 61.4458C138.938 61.2563 138.788 61.0312 138.685 60.7834C138.582 60.5356 138.529 60.27 138.529 60.0018C138.529 59.7336 138.582 59.468 138.685 59.2203Z" stroke="#FAD06B" stroke-width="2.54097" stroke-linecap="round"/>
<path d="M176.118 50.036C178.03 49.9613 180.451 50.0259 182.388 50.0265L266.337 50.0275C267.779 50.0273 269.213 50.012 270.654 50.0516C272.755 50.1092 273.83 51.5113 275.189 52.8298L278.398 55.9473L280.543 58.0252C281.782 59.2268 282.769 59.9306 281.164 61.4376C280.865 61.7191 280.488 62.0775 280.198 62.3753C279.074 63.5334 277.74 64.6368 276.649 65.8097C276.148 66.338 275.524 66.9136 275.001 67.4182C274.231 68.1609 273.099 69.4152 272.071 69.7253C270.801 70.1081 268.851 69.9799 267.524 69.9774L263.72 69.9741L179.209 69.9814C178.328 69.9819 177.448 69.9918 176.563 69.9728C176.066 69.9929 175.227 69.8071 175.125 69.2149C174.931 68.0905 175.02 66.4967 175.021 65.3718L175.025 59.0628L175.02 54.1564C175.019 53.2525 175.006 52.3478 175.034 51.4443C175.059 50.6434 175.361 50.2891 176.118 50.036Z" fill="white"/>
<path d="M245.519 55.872C246.532 55.8001 247.79 56.0092 248.607 56.6636C250.271 57.9963 250.303 61.4071 249.013 62.9776C248.325 63.8166 247.309 64.0895 246.235 64.1797C245.067 64.2014 243.872 64.1234 242.949 63.3352C241.329 61.952 241.314 58.5152 242.67 56.9698C243.389 56.1508 244.466 55.9389 245.519 55.872Z" fill="black"/>
<path d="M245.302 57.4449C246.575 57.3897 247.647 57.5847 247.932 58.9623C248.227 60.3875 248.097 62.2016 246.367 62.5798C245.033 62.7703 243.897 62.3274 243.649 60.934C243.498 60.087 243.512 58.9444 244.023 58.1952C244.345 57.7229 244.744 57.5483 245.302 57.4449Z" fill="white"/>
<path d="M205.547 56.0587L207.68 56.0519C209.089 56.0492 210.529 55.9708 211.644 56.9768C212.434 57.6891 212.71 58.8225 212.725 59.8325C212.743 61.0131 212.544 62.151 211.68 63.0302C210.568 64.0726 209.112 64.0098 207.69 64.0085L205.547 64.0073L205.547 56.0587Z" fill="black"/>
<path d="M207.403 57.6336C208.182 57.6292 209.429 57.5311 210.055 57.9904C211.169 58.8071 211.064 60.8617 210.31 61.8606C209.567 62.5153 208.37 62.408 207.409 62.4152L207.403 57.6336Z" fill="white"/>
<path d="M257.755 56.0569L259.595 56.0541L259.591 64.0054L258.08 64.0084C256.718 62.4472 255.304 60.6132 253.95 58.9991C254.054 60.4415 254.035 62.5337 254.035 64.0048L252.185 64.006L252.184 56.0564L253.715 56.0557C254.162 56.5268 254.771 57.3107 255.197 57.8274L257.844 61.0344C257.856 59.4242 257.787 57.6806 257.755 56.0569Z" fill="black"/>
<path d="M229.254 56.0571L231.095 56.0537L231.097 63.9998C230.651 64.0204 230.033 64.0028 229.572 64.0038C228.352 62.4234 226.749 60.5344 225.45 58.9979C225.485 60.6662 225.51 62.3346 225.524 64.0031L223.675 64.0009L223.672 56.0574L225.224 56.0553C226.149 57.1272 227.037 58.2762 227.953 59.3595C228.419 59.9101 228.858 60.5021 229.369 61.0118C229.286 59.3741 229.323 57.6935 229.254 56.0571Z" fill="black"/>
<path d="M197.6 56.2066C198.659 56.2052 198.337 57.3048 198.34 58.0799C198.813 58.1015 200.827 57.9873 201.096 58.1872C201.214 58.3613 201.202 58.2987 201.21 58.496C201.003 59.0174 198.872 58.9026 198.323 58.9141C198.306 59.8303 198.333 60.2928 198.843 61.0823C199.189 60.5548 199.326 59.1012 199.959 59.1887C200.674 59.7385 199.912 61.2577 199.681 61.9266C200.174 62.6488 202.105 62.631 202.925 62.5847C202.805 63.0725 202.658 63.4092 202.28 63.765C201.905 64.1128 201.402 64.3033 200.882 64.2947C199.999 64.2817 199.221 63.4835 198.644 62.9075C197.99 63.346 197.551 63.6926 196.72 63.7545C196.215 63.792 195.765 63.4072 196.355 63.1787C197.109 62.8864 197.51 62.6168 198.068 62.0562C197.666 61.2115 197.406 60.3102 197.299 59.3864L197.226 58.9085C196.801 58.9056 195.085 58.8858 194.749 59.021C194.588 59.1957 194.518 59.5236 194.692 59.6989C195.344 59.8459 196.707 59.3651 197.025 59.7498C197.549 60.5024 197.284 62.0653 196.66 62.7245C196.107 63.3084 194.604 63.1667 194.637 62.2919C194.78 62.2023 195.357 62.3242 195.576 62.2733C196.105 62.1501 196.495 60.8605 196.03 60.537C195.715 60.4495 195.148 60.443 194.842 60.5667C194.436 60.7305 194.401 62.2274 194.199 62.6938C193.995 63.1667 193.606 63.4647 193.127 63.6549C192.827 63.7741 192.462 63.853 192.151 63.7224C191.964 63.6442 191.67 63.371 191.6 63.1901C191.48 62.8797 192.528 62.5574 192.748 62.3833C193.018 62.1687 193.188 61.8873 193.326 61.5823C194.056 59.971 193.134 58.7147 193.436 58.083C193.551 57.8413 193.836 57.7732 194.074 57.6903C194.255 57.7808 194.619 58.0239 194.804 58.1403C195.354 58.1668 196.515 58.0937 197.137 58.0857C197.182 57.3708 196.835 56.5896 197.6 56.2066Z" fill="black"/>
<path d="M215.046 56.0571L221.286 56.0549L221.288 57.6361L216.905 57.6356L216.906 59.1793L220.722 59.1786L220.721 60.7511L217.211 60.7494L216.993 60.7651C216.818 60.9635 216.902 62.0972 216.909 62.4169C218.368 62.4067 219.826 62.4047 221.285 62.4111L221.286 64.0035L215.045 64.0056L215.046 56.0571Z" fill="black"/>
<path d="M265.133 55.8721C266.244 55.8416 267.179 55.9502 268.232 56.3005L268.226 57.9284C267.137 57.5747 266.286 57.445 265.157 57.4686C264.547 57.4814 263.637 57.7149 263.796 58.4299C264.081 59.7098 267.082 58.8709 268 59.9074C268.424 60.3868 268.534 60.5858 268.576 61.1938C268.775 63.3072 267.372 64.0488 265.371 64.1812C264.326 64.2023 263.107 64.1061 262.136 63.7309L262.135 62.1047C263.167 62.4491 264.258 62.6015 265.349 62.5541C265.972 62.5249 266.912 62.2686 266.775 61.5597C266.498 60.1227 263.499 61.0428 262.551 59.9558C262.134 59.4771 262.026 59.274 261.989 58.6682C261.865 56.5787 263.249 55.9752 265.133 55.8721Z" fill="black"/>
<path d="M184.633 56.4148C184.713 56.4102 184.794 56.4079 184.875 56.4077C185.936 56.4104 185.758 57.6115 185.745 58.3111C186.411 58.2972 188.59 58.3565 189.129 58.5852C190.127 59.7765 186.112 59.3743 185.645 59.3786C186.282 60.1947 188.093 61.4843 189.068 61.9436C189.53 62.1613 190.293 62.3595 190.814 62.6015L190.845 62.7076C190.723 63.2392 189.46 64.1207 189.002 63.9624C187.877 63.5741 186.296 61.51 185.566 60.6849C185.468 60.577 185.504 60.5839 185.386 60.5647C185.288 60.64 185.225 60.8053 185.187 60.9194C184.523 62.9052 182.481 63.8259 180.428 63.7498C180.014 63.7345 179.393 63.1024 179.42 62.6741C179.452 62.6208 179.51 62.5008 179.589 62.5014C181.443 62.5142 183.494 62.335 184.161 60.3526C184.264 60.0468 184.29 59.6971 184.327 59.3753C183.131 59.3525 182.13 59.6303 181.229 59.6249C180.517 59.2318 181.486 58.5169 181.868 58.3015C182.612 58.4784 183.603 58.3829 184.379 58.3189C184.362 57.8422 184.259 57.3342 184.318 56.8607C184.348 56.6176 184.43 56.5622 184.633 56.4148Z" fill="black"/>
<path d="M233.193 56.0563L240.256 56.0545L240.253 57.6353L237.643 57.635L237.64 64.0051L235.828 64.0084C235.774 62.0732 235.788 59.5645 235.837 57.6366L233.196 57.6356L233.193 56.0563Z" fill="black"/>
<path d="M199.983 56.3973C200.24 56.3909 200.63 56.5227 200.748 56.7664C200.805 57.3375 200.127 57.5325 199.696 57.663C199.453 57.7193 199.332 57.7659 199.125 57.6538L199.103 57.5389C199.219 57.2292 199.74 56.6999 199.983 56.3973Z" fill="black"/>
</svg>
