<svg width="260.48" height="40.64" viewBox="20 39.84 260.48 40.64" fill="none" xmlns="http://www.w3.org/2000/svg">
<path d="M49.1831 44.6351C49.2163 44.6322 49.2496 44.6301 49.283 44.629C51.6766 44.5568 53.5466 45.3296 55.3176 46.9554C59.2129 50.5313 59.2194 57.3807 55.6281 61.1968C54.149 62.7609 52.1208 63.6758 49.9802 63.7445C47.8072 63.8337 45.6806 63.0931 44.0239 61.6703C39.1993 57.5014 39.9903 48.2671 45.8742 45.4766C47.1011 44.8947 47.8483 44.737 49.1831 44.6351ZM50.2588 62.6385C54.2044 62.0533 55.7111 57.62 55.4456 54.144C55.3803 53.2898 55.5081 52.3686 55.3158 51.5021C54.6585 48.1415 52.4618 45.3447 48.7792 45.7167C47.3134 45.9642 46.0383 46.9376 45.1891 48.1538C42.1649 52.4847 43.2156 63.3801 50.2588 62.6385Z" fill="white"/>
<path d="M64.8296 44.8512C65.5339 44.8651 66.2581 44.9167 66.9688 44.9345C68.5266 44.9854 70.0822 44.9 71.6073 45.3029C73.8574 45.8973 75.3068 47.9288 74.6721 50.2914C74.335 51.5451 73.2072 52.3387 72.1342 52.94C72.7534 53.12 73.2456 53.2885 73.8367 53.5387C76.4609 54.6493 77.8527 57.7069 76.6353 60.3654C74.9369 63.4409 71.2412 63.4542 68.1904 63.4543L64.8292 63.4524L64.8296 44.8512ZM67.5205 62.4273C69.251 62.4893 71.6359 62.5404 73.0056 61.2748C73.3956 60.9148 73.6075 60.4654 73.8367 59.9964C74.3214 58.9051 74.2858 57.4191 73.9516 56.278C73.4636 54.6115 71.7493 53.544 70.1831 53.0364C70.5276 52.7924 71.1357 52.4459 71.3954 52.1474C72.4347 50.9534 72.6039 48.4289 71.7376 47.1091C70.8409 45.7437 68.8665 46.1088 67.528 45.8687C67.3813 50.6538 67.614 55.5479 67.5172 60.343C67.5035 61.0182 67.5027 61.755 67.5205 62.4273Z" fill="white"/>
<path d="M96.3118 44.8966C97.1762 44.9523 98.1564 44.9052 98.9809 44.9986C99.0025 45.7668 98.9913 46.5684 98.9861 47.3379C98.9509 52.6773 99.0259 58.0276 98.9631 63.3658C98.1798 63.41 97.4284 63.4556 96.6432 63.4574C96.526 63.4618 96.4191 63.4809 96.3244 63.4153C96.2673 63.0538 96.2935 60.8375 96.2991 60.3383C96.3226 58.1207 96.2602 55.8342 96.3146 53.6261C94.9059 53.594 93.4307 53.6146 92.0146 53.6143C90.1958 53.6075 88.3765 53.6118 86.5577 53.627L86.5619 59.0423C86.5624 60.4924 86.5844 62.0126 86.5464 63.4551L83.8791 63.4525C83.9855 57.3236 83.8041 51.0589 83.8904 44.9134C84.7417 44.8892 85.6942 44.9104 86.5535 44.9102C86.5671 47.4278 86.5675 49.9456 86.5544 52.4632C87.6532 52.4966 88.8776 52.4723 89.9834 52.4722L96.3043 52.4699C96.2551 50.1016 96.2658 47.268 96.3118 44.8966Z" fill="white"/>
<path d="M104.743 63.4508C105.145 62.245 105.931 60.4403 106.417 59.2382L111.366 47.0163C111.605 46.4307 112.104 45.1096 112.428 44.6164C112.821 45.433 113.2 46.4228 113.543 47.2704L115.225 51.4272C116.838 55.3697 118.43 59.3209 120 63.2808V63.3376C119.262 63.5171 118.046 63.4572 117.238 63.4545C116.501 61.8123 115.792 59.8108 115.082 58.1103C113.639 58.0911 112.166 58.1032 110.722 58.1014C109.911 58.1004 108.738 58.0655 107.957 58.1291C107.226 59.724 106.514 61.709 105.807 63.3643C105.418 63.4395 105.134 63.4531 104.743 63.4508ZM108.468 56.9225C109.372 57.0603 110.644 57.0458 111.576 57.0338C112.555 57.0338 113.534 57.01 114.513 56.9626C114.278 56.0971 111.787 49.7405 111.492 49.5133C110.765 51.1733 110.067 52.8462 109.398 54.5313C109.192 55.0407 108.586 56.4551 108.468 56.9225Z" fill="white"/>
<path d="M29.1734 44H30.6839C33.123 44.3215 32.7598 44.0922 33.9509 46.1785C32.019 45.2365 29.9786 44.5023 27.8652 45.5242C27.3409 45.7777 26.8848 46.3152 26.7293 46.8789C26.217 48.7362 27.9847 49.9724 29.2629 50.9156C31.353 52.5218 33.9738 53.918 35.3633 56.2339C36.0093 57.3105 36.0133 59.0765 35.7101 60.2843C35.4164 61.3295 34.5583 62.3036 33.5833 62.8093C31.4203 63.9311 28.7012 63.9595 26.3955 63.314C24.949 62.9091 24.6661 61.9409 24 60.6803C25.947 61.9909 28.0091 63.0152 30.4214 62.6258C31.3625 62.4739 32.3455 62.0055 32.9123 61.2038C33.2289 60.7561 33.3196 60.1996 33.3431 59.6617C33.3603 59.2665 33.338 58.8735 33.2106 58.4967C32.0354 55.0207 25.01 52.9598 24.3606 48.8797C24.2041 47.8964 24.4189 46.936 25.0036 46.1303C26.0547 44.6818 27.5171 44.2624 29.1734 44Z" fill="white"/>
<path d="M57.9182 71.865C58.836 71.8618 60.4534 71.7218 61.1496 72.1911C61.4212 72.6966 61.4311 72.9634 61.4075 73.5392C61.1811 73.8809 60.8762 74.1753 60.5788 74.4563C60.7585 74.7404 61.3585 75.6385 61.3954 75.9054C61.3701 75.9409 61.3501 75.9785 61.3157 76H60.8522C59.9772 75.4865 60.1009 74.342 58.9947 74.4268C58.9254 74.4321 58.8422 74.4301 58.7718 74.4322C58.7661 74.892 58.8763 75.6666 58.6178 76H57.9272C57.8858 74.8311 57.8711 73.0302 57.9182 71.865ZM58.7707 73.8675C59.2391 73.8603 59.6786 73.8356 60.1346 73.7146C60.3949 73.6295 60.745 73.3368 60.6192 73.0266C60.3986 72.4829 59.7273 72.4008 59.2176 72.4252L58.819 72.4415C58.7412 72.5571 58.7695 73.6706 58.7707 73.8675Z" fill="white"/>
<path d="M69.5236 71.6778C69.797 71.7065 70.2701 71.7305 70.3921 71.9743C70.8304 72.8502 71.7714 75.1322 72.0071 76H71.3457C70.6505 75.5399 71.3799 75.1749 70.012 75.1343C68.3934 75.0863 69.185 75.5336 68.5891 75.99L68.5759 76H68.0711C68.0108 75.9228 67.9458 75.8699 67.98 75.766C68.3742 74.5683 69.0431 72.7947 69.5236 71.6778ZM69.9824 74.5518C70.1445 74.5432 70.2945 74.553 70.4232 74.4543C70.5242 74.1888 70.1012 73.0771 69.8962 72.8541C69.7324 73.1751 69.3445 74.072 69.3845 74.4136C69.5494 74.5804 69.7164 74.5515 69.9552 74.5518H69.9824Z" fill="white"/>
<path d="M63.4205 71.8676C64.0547 71.8655 66.2548 71.7605 66.659 72.0491L66.7021 72.1494C66.4373 72.8023 64.8222 72.4853 64.2739 72.4123L64.2687 73.5723C64.5839 73.5726 65.8467 73.5122 66.0456 73.6857C66.1045 73.7988 66.1214 73.8197 66.0974 73.944C65.8541 74.3399 64.7093 74.2877 64.2723 74.2964L64.2693 75.2621C64.6803 75.272 66.3141 75.2699 66.5626 75.4862C66.6222 75.6382 66.6204 75.5765 66.5716 75.7309C66.1628 76.0991 64.7482 75.8871 64.2527 76H63.4198C63.4198 74.632 63.4048 73.2332 63.4205 71.8676Z" fill="white"/>
<path d="M82.583 71.8879C82.8071 71.8829 83.1024 71.8682 83.3199 71.8849C83.7666 72.2884 84.0699 73.0165 84.466 73.5379C84.8959 73.0216 85.2334 72.229 85.6051 71.8833C85.8639 71.8797 86.1405 71.8705 86.3974 71.8879C85.9572 72.7224 85.3994 73.4454 85.0206 74.3124C84.7862 74.8492 84.9718 75.6345 84.729 76H84.1426C83.8895 75.5644 84.0976 74.8631 83.8834 74.3038C83.5721 73.491 82.8975 72.6565 82.583 71.8879Z" fill="white"/>
<path d="M78.9365 72.5726C78.5877 72.5745 77.457 72.7158 77.5189 72.2006C77.5353 72.0648 77.5048 72.0143 77.5836 71.8952C78.2657 71.8086 80.3859 71.8655 81.195 71.8684C81.1992 72.0568 81.2297 72.2675 81.1312 72.4189C80.8434 72.6887 80.1885 72.5573 79.7845 72.5742C79.7845 73.6805 79.8107 74.9034 79.7779 76H78.9393L78.9365 72.5726Z" fill="white"/>
<path d="M73.7069 71.8656L74.5591 71.8667C74.5657 72.9985 74.5666 74.1302 74.5619 75.2619C74.9791 75.2674 76.3095 75.2151 76.6109 75.3804C76.7173 75.5146 76.6864 75.824 76.677 76H73.7163C73.6661 74.9038 73.6633 72.9671 73.7069 71.8656Z" fill="white"/>
<path d="M139.685 59.2203C139.788 58.9725 139.938 58.7474 140.128 58.5579L146.556 52.1298C146.745 51.94 146.971 51.7895 147.218 51.6868C147.466 51.5841 147.732 51.5312 148 51.5312C148.268 51.5312 148.534 51.5841 148.781 51.6868C149.029 51.7895 149.254 51.94 149.444 52.1298L155.872 58.5579C156.062 58.7474 156.212 58.9725 156.315 59.2203C156.418 59.468 156.47 59.7336 156.47 60.0018C156.47 60.27 156.418 60.5356 156.315 60.7834C156.212 61.0312 156.062 61.2563 155.872 61.4458L149.444 67.8739C149.254 68.0636 149.029 68.2142 148.781 68.3169C148.534 68.4196 148.268 68.4724 148 68.4724C147.732 68.4724 147.466 68.4196 147.218 68.3169C146.971 68.2142 146.745 68.0636 146.556 67.8739L140.128 61.4458C139.938 61.2563 139.788 61.0312 139.685 60.7834C139.582 60.5356 139.529 60.27 139.529 60.0018C139.529 59.7336 139.582 59.468 139.685 59.2203Z" stroke="#FAD06B" stroke-width="2.54097" stroke-linecap="round"/>
<path d="M249.927 54.0245C250.742 53.9776 251.904 54.0125 252.744 54.0126L255.666 65.9899L252.655 65.9907C252.46 64.9626 252.206 63.8822 251.984 62.8552L243.472 62.8578L240.195 65.9907L228.358 65.993C228.711 65.0081 229.399 63.5353 229.823 62.528C230.533 60.841 231.279 58.9965 232.102 57.3774C229.602 59.9272 225.657 62.384 222.84 64.7029C222.788 64.7454 222.493 64.7242 222.415 64.6825C222.281 64.4447 222.17 64.2037 222.061 63.9538C221.21 62.0049 220.275 60.0822 219.483 58.1108C219.388 57.8723 219.352 57.6014 219.325 57.3476C218.984 58.463 218.396 59.7451 217.927 60.8432L215.728 65.9951L206.99 65.9945L206.337 62.8674H198.157L194.837 65.9937L191.582 65.9927C192.466 65.1248 193.538 64.1833 194.46 63.3353C197.776 60.2201 201.218 57.1255 204.569 54.0337C206.514 54.0078 208.521 54.0334 210.47 54.0336L213.295 65.5325L218.184 54.0327L223.561 54.0338C224.172 55.0937 224.905 56.6525 225.477 57.7743L223.866 61.8118C224.001 61.7172 224.127 61.6178 224.254 61.5142C227.398 58.9579 230.613 56.4858 233.844 54.0339L239.218 54.0365C238.786 55.1256 238.205 56.3704 237.735 57.4728L234.316 65.4941C235.833 63.9976 237.775 62.3116 239.368 60.8629L246.812 54.0279L249.927 54.0245ZM246.422 61.2053C248.138 61.2048 249.918 61.2296 251.628 61.2033C251.51 60.6932 250.576 56.2575 250.483 56.158L245.197 61.2074L246.422 61.2053ZM199.88 61.222L200.932 61.2202L205.981 61.2201C205.884 60.7097 205.114 56.5065 205.008 56.4L199.88 61.222Z" fill="white"/>
<path d="M181.093 54.0371C181.439 54.0218 181.875 54.0332 182.226 54.0328L187.69 54.03C189.335 54.0303 190.915 53.9558 192.539 54.2757C197.82 55.316 195.948 60.3583 193.214 63.0164C192.042 64.1523 190.601 64.9886 189.017 65.4512C186.788 66.0929 183.978 65.9931 181.645 65.9934L176 65.9923C176.131 65.6575 176.291 65.2993 176.431 64.9652L178.946 59.0976L181.571 59.0984C181.018 60.566 180.136 62.4534 179.501 63.9316C181.825 63.9397 185.973 64.2791 187.657 62.6484C188.633 61.6605 189.644 59.4726 189.679 58.1352C189.745 55.6039 186.37 55.912 184.63 55.9121L180.309 55.9154L181.093 54.0371Z" fill="white"/>
<path d="M266.019 54.0678C267.018 53.9837 268.58 54.0301 269.63 54.0299L276 54.0384C275.534 55.2317 274.936 56.5491 274.43 57.7397C273.643 57.6969 272.601 57.7274 271.807 57.7333C272.051 57.1157 272.333 56.48 272.595 55.8672C269.601 55.8606 266.629 55.4549 264.343 57.6435C263.15 58.7366 262.422 60.2774 262.302 61.8631C262.13 64.108 265.517 64.0604 267.117 64.0923L271.617 64.0974C271.405 64.6837 271.08 65.4079 270.835 65.9948L264.523 65.9941C262.641 65.9939 259.717 66.1091 258.01 65.3292C254.749 63.8396 256.311 59.5981 258.102 57.5764C260.196 55.2136 262.898 54.3182 266.019 54.0678Z" fill="white"/>
</svg>
