<svg width="243.52" height="62.4" viewBox="28.32 28.96 243.52 62.4" fill="none" xmlns="http://www.w3.org/2000/svg">
<path d="M32.5 33H84.4015H87.5V33.0503V87H32.5V81.5694V80.1443V33Z" fill="white"/>
<path d="M51.9345 61.5282L56.8812 61.5252C56.8841 62.6097 57.2572 63.5659 57.5589 64.6096C57.8037 65.4745 58.041 66.3415 58.2707 67.2104C59.3033 65.7915 60.6151 64.4473 61.6474 63.0139C62.0293 62.4837 62.1636 62.1592 62.2956 61.5277C63.6703 61.5224 65.045 61.5255 66.4196 61.5368C65.1344 62.4784 63.3873 64.8257 62.3657 66.1239C61.4265 67.3026 60.481 68.4765 59.5295 69.6455C59.6469 70.3775 60.0595 71.1921 60.1411 71.9308L63.2648 67.9192C64.1605 66.7702 67.4873 62.6769 67.7508 61.5256L71.7783 61.5249C71.9577 63.3002 72.6142 65.0124 73.0993 66.7302C73.526 68.2415 74.0077 69.7451 74.4406 71.2553C74.7578 72.2478 75.1915 73.5622 75.5296 74.5287C76.1567 76.321 77.1542 80.053 78.1651 81.5588L73.0587 81.566C72.9431 79.9634 72.5863 79.0715 72.1068 77.5475L71.2897 74.9005C71.1368 74.4143 70.837 73.5458 70.7449 73.077C68.016 73.0767 65.2061 73.0418 62.484 73.0808C62.0806 73.6854 61.6552 74.2756 61.2087 74.8503C61.3649 75.5594 61.7078 76.4564 61.9366 77.165C62.4836 78.858 62.7314 80.0258 63.7232 81.5605L58.7179 81.5639C58.704 80.8511 58.5624 80.4627 58.3567 79.772C58.2742 79.4948 58.1664 79.2052 58.146 78.9208C57.3095 79.9456 56.8593 80.3769 56.2625 81.5716L52.3181 81.5639C52.2981 80.4814 51.906 79.8246 51.6874 78.8533C50.8644 79.8675 50.3882 80.3973 49.8306 81.5741L46.0125 81.5605C46.9166 80.7276 47.5043 80.1481 48.2641 79.1721C48.7637 78.5179 49.2686 77.8675 49.7789 77.221C49.9645 76.9871 50.2712 76.5744 50.4635 76.3796C50.293 75.5967 49.7585 73.8618 49.49 73.0773L44.0251 73.0747C43.3766 73.0745 41.8561 73.0352 41.3085 73.1049C40.9686 73.6445 40.1763 74.6043 39.7613 75.138C38.7876 76.397 37.8072 77.651 36.82 78.9C36.288 79.5716 35.2889 80.8316 34.9156 81.5682L32.5 81.5694V80.1443C35.2774 76.7421 38.0017 73.2987 40.672 69.8149L42.794 67.0908C44.0257 65.5262 45.7295 63.3667 46.4558 61.5282C47.8741 61.5273 49.3188 61.5128 50.7349 61.5301C50.7615 63.5485 51.3299 64.5905 51.8817 66.4927C52.4233 68.3598 53.1784 70.4042 53.6726 72.2673C54.1296 71.662 54.6998 71.0446 55.1189 70.4693L53.4881 65.5898C53.0717 64.3246 52.6531 62.6616 51.9345 61.5282Z" fill="black"/>
<path d="M47.2971 65.3771C47.3931 65.4898 47.4161 66.3807 47.4725 66.6437C47.7407 67.8941 48.4982 69.5748 48.7136 70.7775C47.3877 70.7985 46.0123 70.7809 44.6826 70.7812L43.2376 70.7801C43.6375 70.3495 44.3781 69.3918 44.7462 68.9095C45.5245 67.8901 46.7343 66.4839 47.2971 65.3771Z" fill="white"/>
<path d="M68.4244 65.2946C68.5389 65.4331 68.5228 66.4679 68.5913 66.7348C68.9419 68.1008 69.4632 69.4217 69.843 70.7788L64.3433 70.7834C65.324 69.5828 66.315 68.391 67.2234 67.1369C67.6365 66.5666 68.1453 65.9386 68.4244 65.2946Z" fill="white"/>
<path d="M56.084 73.2295C56.1388 73.2758 56.9731 75.6175 57.0767 75.8884C56.6349 76.571 56.0659 77.2299 55.6042 77.9236C55.5632 77.8883 54.7371 75.3868 54.628 75.0761C55.089 74.5425 55.6467 73.7988 56.084 73.2295Z" fill="white"/>
<path d="M84.4015 33H87.5V33.0503C87.3145 33.2015 86.4571 34.32 86.2456 34.5885L82.8055 38.9966L66.5845 59.6663L63.391 59.6656C64.7374 58.1309 66.3006 55.9992 67.5699 54.3728L74.1755 45.9966L81.4811 36.6994C82.3745 35.5523 83.602 34.1484 84.4015 33Z" fill="#FE1820"/>
<path d="M107.185 59.2203C107.288 58.9725 107.438 58.7474 107.628 58.5579L114.056 52.1298C114.245 51.94 114.471 51.7895 114.718 51.6868C114.966 51.5841 115.232 51.5312 115.5 51.5312C115.768 51.5312 116.034 51.5841 116.281 51.6868C116.529 51.7895 116.754 51.94 116.944 52.1298L123.372 58.5579C123.562 58.7474 123.712 58.9725 123.815 59.2203C123.918 59.468 123.97 59.7336 123.97 60.0018C123.97 60.27 123.918 60.5356 123.815 60.7834C123.712 61.0312 123.562 61.2563 123.372 61.4458L116.944 67.8739C116.754 68.0636 116.529 68.2142 116.281 68.3169C116.034 68.4196 115.768 68.4724 115.5 68.4724C115.232 68.4724 114.966 68.4196 114.718 68.3169C114.471 68.2142 114.245 68.0636 114.056 67.8739L107.628 61.4458C107.438 61.2563 107.288 61.0312 107.185 60.7834C107.082 60.5356 107.029 60.27 107.029 60.0018C107.029 59.7336 107.082 59.468 107.185 59.2203Z" stroke="#FAD06B" stroke-width="2.54097" stroke-linecap="round"/>
<path d="M193.797 53.9188C193.906 53.9148 194.015 53.9129 194.124 53.9131C199.547 53.9144 199.265 56.7029 199.266 60.9713L199.254 65.7454C199.249 66.8529 199.471 67.1776 200.607 67.1613L200.605 68.7993C199.32 68.7652 198.005 68.8175 196.717 68.8013C195.449 68.7853 194.865 68.5128 194.822 67.2146C192.705 68.9186 189.779 69.7376 187.456 67.9162C186.986 67.4477 186.678 66.5063 186.581 65.8659C185.738 60.3304 190.398 59.8394 194.68 59.2291C194.677 58.9177 194.636 58.078 194.486 57.8578C193.436 56.3157 189.491 57.8678 188.346 58.3762C187.998 57.3541 187.683 56.5271 187.277 55.5172C189.491 54.3643 191.305 54.0369 193.797 53.9188ZM191.423 65.6312C192.655 66.1578 193.806 65.3799 194.677 64.5795C194.677 64.2197 194.716 61.9355 194.623 61.8046L194.564 61.7975C193.645 61.9685 191.917 62.2617 191.332 63.0575C190.924 63.6125 190.873 65.1054 191.423 65.6312Z" fill="white"/>
<path d="M211.465 53.9749C213.308 53.7512 215.412 54.4749 215.714 56.4834C215.95 58.0472 215.876 59.6982 215.876 61.2811L215.868 68.8051C214.31 68.7772 212.689 68.7981 211.126 68.7986L211.14 62.4162C211.141 61.2583 211.143 60.1326 211.107 58.9492C211.041 56.8092 208.896 57.6669 207.821 58.4968C207.238 58.9472 207.433 60.42 207.438 61.167L207.439 68.7982C205.863 68.787 204.286 68.7908 202.709 68.8097L202.715 60.965C202.716 59.6229 202.734 58.2786 202.696 56.9375C202.665 55.8645 202.236 55.8221 201.279 55.7943L201.285 54.1087C202.602 54.1252 203.935 54.0905 205.255 54.1007C205.806 54.105 206.521 54.1101 206.945 54.5193C207.329 54.8892 207.267 55.5288 207.263 56.017C208.821 54.8296 209.4 54.1962 211.465 53.9749Z" fill="white"/>
<path d="M219.775 54.0971L229.501 54.0918C229.522 54.7814 229.64 56.5867 229.44 57.1704C229.317 57.528 223.798 65.0757 223.227 65.6777C225.342 65.6194 227.698 65.6685 229.831 65.6672C229.8 66.6983 229.805 67.771 229.796 68.8053L217.939 68.8135C217.965 68.0482 217.809 66.3768 218.019 65.7287C218.155 65.3058 223.651 57.7841 224.243 57.1528C223.406 57.1582 220.746 56.9724 220.08 57.4082C219.836 57.5676 219.856 58.1011 219.857 58.3914C219.23 58.3809 218.668 58.3765 218.04 58.3984C218.039 57.4671 217.838 55.1911 218.412 54.558C218.794 54.1351 219.251 54.1285 219.775 54.0971Z" fill="white"/>
<path d="M162.093 49.2378C163.159 49.2685 164.227 49.2271 165.297 49.2404C165.966 49.2558 166.968 49.1632 167.578 49.4455C168.457 49.8516 168.222 51.8518 168.22 52.6561L168.214 56.3842L168.216 68.806C166.747 68.7577 164.95 68.7841 163.471 68.8078L163.477 58.4048C163.477 56.3986 163.486 54.3917 163.469 52.3857C163.459 51.2172 163.327 50.9674 162.097 50.999L162.093 49.2378Z" fill="white"/>
<path d="M170.077 49.2449C171.131 49.2485 172.186 49.2467 173.24 49.2394C176.654 49.2309 176.272 49.6335 176.267 52.7447L176.261 56.4657L176.269 68.7993C174.689 68.7868 173.109 68.7904 171.53 68.8103L171.534 57.7396C171.534 55.8592 171.547 53.9781 171.516 52.0981C171.498 51.0199 171.068 50.983 170.082 50.9904L170.077 49.2449Z" fill="white"/>
<path d="M178.262 54.1164L181.306 54.1025C182.377 54.0983 184.278 53.8863 184.366 55.3023C184.451 56.6799 184.407 58.2267 184.407 59.6123L184.406 68.8089C182.963 68.7494 181.122 68.7905 179.661 68.8063C179.718 64.9072 179.667 60.9591 179.657 57.0564C179.654 55.9248 179.303 55.8223 178.247 55.7921C178.264 55.2411 178.259 54.6693 178.262 54.1164Z" fill="white"/>
<path d="M181.303 48.9012C182.162 48.8567 182.928 48.9232 183.673 49.4152C184.577 50.0123 184.78 51.3795 184.121 52.2231C183.627 52.8557 183.046 53.015 182.277 53.1192C181.434 53.1532 180.684 53.171 179.93 52.6922C178.981 52.0901 178.714 50.8026 179.35 49.8883C179.794 49.249 180.555 49.0311 181.303 48.9012Z" fill="white"/>
<path d="M250.815 45H253.387C254.141 45.14 254.88 45.1801 255.655 45.3339C261.129 46.4194 265.671 50.5529 267.009 55.8465C267.199 56.5986 267.289 57.4107 267.5 58.1524V61.8766C267.298 62.5264 267.206 63.3047 267.043 63.9793C264.593 74.0596 252.231 77.9583 243.514 72.5801C235.58 67.6846 234.489 56.0844 240.862 49.5364C243.094 47.2434 246.094 45.7285 249.307 45.2156C249.804 45.1362 250.311 45.0995 250.815 45ZM252.757 72.5445C259.874 72.2178 265.377 66.3484 265.057 59.4242C264.737 52.4999 258.716 47.1339 251.597 47.4292C244.455 47.7253 238.917 53.6055 239.238 60.552C239.559 67.4986 245.616 72.8722 252.757 72.5445Z" fill="white"/>
<path d="M248.562 50.0831C249.668 50.1479 253.268 49.8311 253.977 50.4683C254.212 50.6802 254.292 51.014 254.329 51.312C254.519 52.8674 254.384 54.766 254.383 56.3652L254.382 64.0761C254.383 65.4486 254.352 66.9536 254.393 68.3177L254.303 68.3872C252.828 68.3821 251.352 68.3844 249.876 68.3942L249.903 67.5839C249.983 64.792 249.884 61.8828 249.921 59.0771C249.901 57.0912 249.959 55.0998 249.894 53.115C249.857 51.9954 249.604 51.9716 248.579 51.9953C248.587 51.3444 248.597 50.7347 248.562 50.0831Z" fill="white"/>
<path d="M244.847 53.7939C245.734 53.7261 247.078 53.7638 247.999 53.7635L247.99 68.3851L246.846 68.3858C245.738 68.3784 244.629 68.3828 243.52 68.3991L243.52 59.6361C243.52 58.2501 243.488 56.8412 243.543 55.4581C243.585 54.4034 243.77 53.9975 244.847 53.7939Z" fill="white"/>
<path d="M256.298 53.7494C257.108 53.7436 260.079 53.5876 260.403 54.1568C260.955 55.1276 260.764 58.5826 260.763 59.742L260.767 68.3672C260.606 68.4032 259.55 68.3935 259.312 68.3926C258.303 68.3892 257.308 68.3731 256.298 68.4006V53.7494Z" fill="white"/>
<path d="M147.253 49.2417L152.466 49.2458C153.514 49.2451 155.595 49.0416 156.336 49.7776C156.522 49.9619 156.666 50.1818 156.76 50.4234C156.936 50.8666 157.13 51.6103 157.271 52.0818L158.249 55.3989L161.397 66.1497C161.666 67.0352 161.877 67.913 162.17 68.7996C160.461 68.7924 158.543 68.7508 156.844 68.8018C156.642 68.0288 156.385 67.2736 156.155 66.5063C155.915 65.7064 155.725 64.8107 155.439 64.0351L149.782 64.0246C149.357 65.6055 148.852 67.2269 148.381 68.8025L143.5 68.7931V68.4878C143.746 68.0381 144.017 67.0804 144.186 66.5598C144.513 65.5589 144.848 64.5604 145.19 63.5641C146.383 60.0602 147.638 56.5535 148.782 53.0322C148.913 52.6288 149.06 52.0332 149.073 51.6086C148.777 50.8749 147.904 50.963 147.216 50.9864C147.248 50.3753 147.256 49.8506 147.253 49.2417ZM150.564 60.878C151.262 60.8586 151.96 60.8515 152.658 60.8568L154.751 60.8519C154.512 60.123 152.859 53.8653 152.778 53.8143C152.032 55.84 151.5 58.0917 150.787 60.1413C150.703 60.3822 150.628 60.6312 150.564 60.878Z" fill="white"/>
</svg>
