<svg width="278.72" height="66.88" viewBox="10.72 26.72 278.72 66.88" fill="none" xmlns="http://www.w3.org/2000/svg">
<path d="M20.7121 56.4431C27.5224 50.3445 39.0984 49.8406 45.3832 57.0469C45.545 57.2327 45.7053 57.4197 45.8643 57.608C46.1201 57.8373 46.1311 57.7746 46.196 58.058C45.9202 58.5901 42.6178 62.5431 42.0832 63.0433C39.0212 60.3282 36.6338 58.6252 32.3928 58.8807C25.8845 59.2729 21.8432 65.0321 22.4342 71.3659C22.9119 77.6145 27.8286 82.1152 34.054 81.6966C37.0043 81.4416 39.3546 79.9347 41.5625 78.0329L42.1056 77.535C42.8412 78.4284 45.6341 81.9641 46.3115 82.573C42.8714 86.4679 39.9892 88.4589 34.5769 88.8723C33.8516 88.9278 32.2384 88.9132 31.5277 88.8007C27.2797 88.8305 22.2029 86.1421 19.4187 82.9804C15.836 78.912 14.7619 74.1896 15.0424 68.8752C15.3081 63.8398 17.0202 59.8504 20.7121 56.4431Z" fill="white"/>
<path d="M20.7121 56.4431C27.5224 50.3445 39.0984 49.8406 45.3832 57.0469C45.545 57.2327 45.7053 57.4197 45.8643 57.608C44.4115 57.8135 43.3391 57.6763 41.9108 57.684C39.0274 57.6998 36.216 57.3163 33.3548 57.164C29.9024 56.9801 26.461 57.1674 23.0106 56.7186C22.426 56.6425 21.1881 56.6598 20.7121 56.4431Z" fill="white"/>
<path d="M41.5625 78.0329L42.1056 77.535C42.8412 78.4284 45.6341 81.9641 46.3115 82.573C42.8714 86.4679 39.9892 88.4589 34.5769 88.8723C33.8516 88.9278 32.2384 88.9132 31.5277 88.8007C32.1434 88.7447 33.6216 88.8259 34.4279 88.7886C36.5948 85.2894 38.7108 81.8015 41.4416 78.7112C41.5662 78.5703 41.561 78.2173 41.5625 78.0329Z" fill="white"/>
<path d="M45.309 46.967C46.1963 45.6882 46.7149 44.8183 47.7516 43.586C53.1301 37.228 60.5157 32.9438 68.6588 31.4581C72.0465 30.8592 77.0864 30.8323 80.4811 31.4674C85.294 32.3678 90.9346 34.9449 94.9414 37.7976C97.6156 39.6873 100.013 41.9492 102.061 44.5164C102.76 45.3941 103.364 46.3511 104 47.1559C102.956 47.1883 102.053 47.2135 101.008 47.1732C99.2154 47.1898 97.2752 47.2227 95.494 47.1535C90.9695 42.7155 87.2206 39.7853 80.8796 38.3087C73.2632 36.532 65.2589 38.1053 58.8555 42.6376C57.9179 43.312 57.0177 44.0379 56.159 44.8123C55.6684 45.26 54.2318 46.6391 53.7578 46.9278C53.0713 47.3458 49.5247 47.1266 48.7622 46.9455C47.6341 46.9432 46.4284 46.9204 45.309 46.967Z" fill="#F5353B"/>
<path d="M48.7622 46.9455C48.7866 46.9424 49.4166 46.8829 49.3857 46.9116C51.3132 45.1373 52.9819 43.4622 55.1763 41.9913C65.1924 35.2768 78.2678 33.862 89.1726 39.2082C93.9138 41.5326 96.2731 43.3004 100.001 47.0794C100.291 47.0976 100.741 47.1119 101.008 47.1732C99.2154 47.1898 97.2752 47.2227 95.494 47.1535C90.9695 42.7155 87.2206 39.7853 80.8796 38.3087C73.2632 36.532 65.2589 38.1053 58.8555 42.6376C57.9179 43.312 57.0177 44.0379 56.159 44.8123C55.6684 45.26 54.2318 46.6391 53.7578 46.9278C53.0713 47.3458 49.5247 47.1266 48.7622 46.9455Z" fill="#D2010A"/>
<path d="M92.2407 52.6964C93.341 52.7213 98.7688 52.5301 99.3953 52.7182C99.5058 52.9674 99.4584 53.2045 99.4395 53.4851C99.5329 56.5427 99.4704 59.8995 99.4703 62.9768L99.4539 81.1806C99.4545 83.712 99.4034 86.4916 99.481 89C98.4758 88.8 93.3999 88.8815 92.2679 88.9817C92.4112 81.3992 92.2079 73.6544 92.2962 66.0426C92.1537 61.7231 92.4571 56.94 92.2407 52.6964Z" fill="white"/>
<path d="M92.2407 52.6964C93.341 52.7213 98.7688 52.5301 99.3953 52.7182C99.5058 52.9674 99.4584 53.2045 99.4395 53.4851C99.292 54.536 99.3873 58.2025 99.3882 59.5177L99.3625 72.5308C97.1081 70.7272 94.9449 68.9181 92.4001 67.5239C92.3865 67.1236 92.3858 66.4068 92.2962 66.0426C92.1537 61.7231 92.4571 56.94 92.2407 52.6964Z" fill="white"/>
<path d="M50.8064 52.9296L50.875 52.7594C51.7662 52.6019 56.8927 52.626 57.8945 52.7203C57.9266 52.8212 57.9467 52.8401 57.9426 52.9381C57.9628 53.3641 58.0038 55.1517 57.9446 55.5559C58.0348 58.3594 57.9789 61.4372 57.9803 64.2573L57.9616 81.4631C57.9624 83.8895 57.9068 86.5911 57.9902 89C56.9715 88.7966 51.9394 88.8882 50.7723 88.9768C50.8652 84.0987 50.7291 79.1395 50.7834 74.2576C50.8042 72.3871 50.7028 70.0316 50.7982 68.2126C50.7323 67.34 50.7747 66.1887 50.7826 65.288C50.8186 61.1785 50.7185 57.0354 50.8064 52.9296Z" fill="white"/>
<path d="M50.8064 52.9296L50.875 52.7594C51.7662 52.6019 56.8927 52.626 57.8945 52.7203C57.9266 52.8212 57.9467 52.8401 57.9426 52.9381C57.9628 53.3641 58.0038 55.1517 57.9446 55.5559C57.8301 56.4728 57.8811 58.338 57.8835 59.3171L57.9035 66.0419C55.8514 66.8313 52.3844 68.5191 50.8986 70.1213C50.8937 69.4839 50.9137 68.8372 50.7982 68.2126C50.7323 67.34 50.7747 66.1887 50.7826 65.288C50.8186 61.1785 50.7185 57.0354 50.8064 52.9296Z" fill="white"/>
<path d="M50.8064 52.9296L50.875 52.7594C51.7662 52.6019 56.8927 52.626 57.8945 52.7203C57.9266 52.8212 57.9467 52.8401 57.9426 52.9381C57.8302 53.4566 57.8567 54.8815 57.8545 55.4752C56.0801 54.8939 52.7647 54.1304 50.9144 54.1363C50.9009 53.6558 50.8861 53.4017 50.8064 52.9296Z" fill="white"/>
<path d="M77.9644 59.0874C78.0784 60.5216 78.006 62.899 78.002 64.3901L77.9897 73.9633C77.9914 75.7942 77.9421 77.6519 78.16 79.4597C78.4044 81.4879 79.8114 82.2014 81.7049 81.995C83.7389 81.8176 85.1194 80.8186 86.8551 79.9664C86.3215 81.5401 85.5976 85.9343 85.0683 86.9679C82.9378 88.4793 79.542 88.8735 76.995 88.4991C73.8686 88.01 71.3945 85.2225 70.9854 82.0952C70.7619 80.3865 70.7914 78.6385 70.8119 76.9243C70.8761 71.5889 70.7326 66.2249 70.8299 60.8947C70.9175 61.4337 70.903 62.0404 70.9084 62.5909C73.368 62.5165 75.4849 62.5615 77.9293 62.6613C77.9089 61.7004 77.8667 60.018 77.9644 59.0874Z" fill="white"/>
<path d="M77.7441 41.3584L77.8892 41.2889C77.9247 41.3277 77.9601 41.3665 77.9956 41.4053C77.9149 43.9881 78.0998 50.1838 77.9968 52.5186C77.9937 52.5905 77.9898 52.6623 77.9849 52.7341C80.3836 52.6519 82.7744 52.7229 85.1632 52.6776C85.1296 54.2306 85.0793 57.1043 85.1999 58.6078C84.4849 58.4634 79.006 58.4629 78.1014 58.5382C77.9433 58.7464 77.9876 58.7941 77.9644 59.0874C77.8667 60.018 77.9089 61.7004 77.9293 62.6613C75.4849 62.5615 73.368 62.5165 70.9084 62.5909C70.903 62.0404 70.9175 61.4337 70.8299 60.8947C70.7801 60.2734 70.8255 59.1536 70.8327 58.4967C68.6891 58.5363 65.7 58.3925 63.6543 58.5991C63.7072 56.953 63.7089 54.3258 63.6245 52.6994C66.013 52.7471 68.4246 52.6611 70.8384 52.7191C70.8063 51.9322 70.7315 45.5443 70.9069 45.1663C71.497 44.6829 73.1753 43.7903 73.884 43.4127C75.1227 42.7527 76.4884 41.9673 77.7441 41.3584Z" fill="white"/>
<path d="M77.7441 41.3584C77.7809 41.3973 77.8245 41.4434 77.875 41.4967C77.9195 43.0131 77.916 46.1948 77.8815 47.5961C77.8775 47.7527 77.8718 47.9092 77.8646 48.0656C75.9236 47.7094 73.9603 46.6147 72.1721 45.7802C72.0118 45.7053 70.9913 45.2318 70.9069 45.1663C71.497 44.6829 73.1753 43.7903 73.884 43.4127C75.1227 42.7527 76.4884 41.9673 77.7441 41.3584Z" fill="white"/>
<path d="M123.685 59.2203C123.788 58.9725 123.938 58.7474 124.128 58.5579L130.556 52.1298C130.745 51.94 130.971 51.7895 131.218 51.6868C131.466 51.5841 131.732 51.5312 132 51.5312C132.268 51.5312 132.534 51.5841 132.781 51.6868C133.029 51.7895 133.254 51.94 133.444 52.1298L139.872 58.5579C140.062 58.7474 140.212 58.9725 140.315 59.2203C140.418 59.468 140.47 59.7336 140.47 60.0018C140.47 60.27 140.418 60.5356 140.315 60.7834C140.212 61.0312 140.062 61.2563 139.872 61.4458L133.444 67.8739C133.254 68.0636 133.029 68.2142 132.781 68.3169C132.534 68.4196 132.268 68.4724 132 68.4724C131.732 68.4724 131.466 68.4196 131.218 68.3169C130.971 68.2142 130.745 68.0636 130.556 67.8739L124.128 61.4458C123.938 61.2563 123.788 61.0312 123.685 60.7834C123.582 60.5356 123.529 60.27 123.529 60.0018C123.529 59.7336 123.582 59.468 123.685 59.2203Z" stroke="#FAD06B" stroke-width="2.54097" stroke-linecap="round"/>
<path d="M260.128 52.8836L264.282 52.8691C266.822 52.8628 270.504 52.688 270.813 56.3107C270.963 58.064 269.712 59.1782 268.138 59.6626C270.592 60.3777 271.794 61.5874 271.169 64.2938C270.025 67.5375 265.699 67.061 263.011 67.0894C262.122 67.0988 261.05 67.1302 260.171 67.0532C260.123 62.3302 260.108 57.6068 260.128 52.8836ZM267.593 64.3247C268.078 63.764 268.188 63.349 268.146 62.6068C268.005 60.13 264.644 60.9922 263.099 60.7959L263.093 64.9172C264.485 64.9299 266.487 65.1396 267.593 64.3247ZM263.13 58.7677C264.338 58.7842 266.316 58.9675 267.283 58.1825C267.662 57.7464 267.823 57.3664 267.784 56.7805C267.625 54.3992 264.579 55.2267 263.143 55.0443C263.11 56.2706 263.127 57.5379 263.13 58.7677Z" fill="white"/>
<path d="M232.975 52.8432C233.868 52.7994 235.132 52.8221 236.036 52.8476C235.946 54.6151 236.063 56.8101 236.014 58.6505C238.009 58.6843 240.07 58.6599 242.069 58.6617C242.125 56.804 242.081 54.7263 242.083 52.8517C242.906 52.7937 244.312 52.8206 245.155 52.8493C245.155 54.1159 245.197 66.8843 245.107 67.0519L244.915 67.081C243.969 67.0823 243.022 67.0913 242.076 67.0529C242.109 66.4822 242.082 65.6311 242.082 65.0267L242.078 61.0419C240.065 61.0326 238.054 61.0334 236.041 61.0444C235.983 62.5142 236.057 64.0278 236.024 65.5017C236.013 66.0104 236.015 66.5603 236.038 67.0665C235.167 67.1093 233.806 67.0924 232.935 67.0519L232.929 56.7931C232.929 56.2502 232.898 53.1249 232.975 52.8432Z" fill="white"/>
<path d="M252.476 52.5998C253.859 52.5223 255.739 52.8159 256.785 53.7912C257.738 54.679 257.844 55.5239 257.911 56.7212C257.127 56.7482 255.626 56.7582 254.879 56.6914C254.781 56.1327 254.721 55.7902 254.318 55.3527C253.25 54.1911 250.413 54.6115 250.363 56.4442C250.353 56.8201 250.545 57.3138 250.865 57.5318C253.342 59.2159 258.426 58.7621 258.386 62.8654C258.321 66.4158 254.998 67.3897 252.064 67.3597C249.008 67.0328 247.114 66.151 246.934 62.6908C247.913 62.651 248.972 62.675 249.954 62.6827C250.071 63.4151 250.166 63.9954 250.751 64.5224C252.114 65.7497 255.336 65.0912 255.209 62.905C255.167 62.1961 254.619 61.982 254.058 61.6999C252.162 60.9028 249.945 60.7497 248.318 59.3835C246.826 58.1299 246.86 55.7086 248.095 54.2905C249.19 53.0451 250.899 52.6948 252.476 52.5998Z" fill="white"/>
<path d="M176.768 43H210.502L210.469 43.0454C210.957 43.4088 211.76 44.2542 212.219 44.7117C213.346 45.8282 214.462 46.9574 215.564 48.0988L224.556 57.1385C225.501 58.0786 226.367 59.0479 227.347 59.9832C224.33 63.1794 220.946 66.4602 217.825 69.6027L213.16 74.3009C212.682 74.7811 210.673 76.8939 210.303 77H176.85C176.509 76.7568 175.95 76.1065 175.622 75.7648C175.035 75.1512 174.434 74.5494 173.822 73.9599C171.891 72.1087 170.171 70.2941 168.285 68.4102L160 60.1481V59.8271C160.579 59.3086 161.361 58.3965 161.974 57.8094C163.348 56.4817 164.697 55.1672 165.997 53.7643C167.237 52.389 168.729 51.1974 169.988 49.8609C171.62 48.1289 173.231 46.4161 174.977 44.7937C175.588 44.2262 176.154 43.5792 176.768 43Z" fill="#DB0010"/>
<path d="M210.469 43.0454C210.399 44.2761 210.451 46.0653 210.45 47.3314L210.45 55.4699C210.45 62.5826 210.375 69.8434 210.471 76.946C209.564 76.0589 208.739 75.1565 207.85 74.2571L202.044 68.4163C201.34 67.6812 200.445 66.8687 199.696 66.1186L193.611 60.0001C194.784 58.733 196.157 57.4569 197.388 56.2392L208.41 45.132C208.969 44.5695 209.847 43.4809 210.469 43.0454Z" fill="#FEFEFE"/>
<path d="M176.75 43.0415C176.963 43.1715 178.146 44.394 178.406 44.6547L182.531 48.8151C186.179 52.5262 190.026 56.2296 193.604 59.9948L185.163 68.5L176.74 76.9624C176.827 76.2799 176.778 73.7879 176.778 73L176.778 50.6351C176.778 48.2809 176.855 45.3492 176.75 43.0415Z" fill="#FEFEFE"/>
<path d="M285 63.7319C284.902 64.0088 284.796 64.2989 284.672 64.5675C283.256 67.6371 278.748 67.9075 276.031 66.6974C274.655 66.0845 273.683 64.784 273.214 63.3642C272.026 59.7699 272.787 54.3238 276.877 52.9662C278.68 52.3667 280.89 52.4006 282.624 53.2261C283.952 53.8584 284.531 54.7382 285 56.0953V57.0287C284.056 57.0469 282.817 57.0816 281.884 57.0248C281.747 56.3929 281.466 55.5802 280.883 55.2774C279.349 54.4809 277.493 55.0528 276.658 56.5438C275.732 58.1957 275.653 60.1675 276.01 61.9786C276.439 63.9632 277.916 65.4608 280.055 64.9472C281.212 64.6692 281.669 63.9459 281.942 62.8303C282.939 62.8308 284.008 62.8111 285 62.8342V63.7319Z" fill="white"/>
</svg>
