<svg width="227.52" height="84.8" viewBox="36.32 17.76 227.52 84.8" fill="none" xmlns="http://www.w3.org/2000/svg">
<path d="M131.997 44.9295C139.252 44.8036 146.816 44.8658 154.079 45.0717C156.678 45.1454 160.791 47.011 161.706 49.638C163.889 55.9088 159.51 58.9858 154.399 61.1023C155.462 62.1594 156.737 63.7642 157.746 64.7957C160.23 67.3348 166.138 73.7485 169.061 75.1102C167.796 75.2165 166.285 75.5069 165.044 75.535C162.776 75.586 160.132 75.7023 157.892 75.5022C154.103 75.1635 151.046 71.7681 148.833 68.9324C147.152 66.7709 144.941 63.9473 143.589 61.638C145.373 60.451 147.179 60.0434 148.909 58.1692C150.147 56.9479 150.868 55.6092 150.832 53.8115C150.737 49.0659 145.186 49.3315 141.909 49.3687C142.01 52.5373 141.92 56.2915 141.92 59.5087C141.938 64.7409 141.927 69.973 141.885 75.2051C140.559 75.1193 138.858 75.1743 137.508 75.1678C135.317 75.1574 133.058 75.1487 130.872 75.2345L130.864 48.7024C130.864 47.6651 130.818 46.0644 130.915 45.0745C131.18 44.8809 131.649 44.9303 131.997 44.9295Z" fill="white"/>
<path d="M234.214 44.3709C234.545 44.3101 236.323 44.2968 236.783 44.291C241.162 44.2348 244.329 44.3984 248.471 45.6882C248.469 47.3842 248.422 49.3388 248.521 51.0129C244.825 49.1871 237.584 47.1633 234.531 50.8962C234.525 51.119 234.525 51.342 234.529 51.5649C234.569 53.7511 236.827 54.4142 238.608 54.9915C244.293 56.8179 252.133 57.835 252.344 65.3781C252.562 73.1102 243.971 75.7351 237.613 75.7722C232.415 75.9352 228.431 75.2648 223.379 74.1733C223.248 72.3343 223.284 70.5641 223.358 68.7236C228.071 70.5972 231.553 71.5194 236.691 71.0287C238.474 70.8585 241.801 69.6225 241.19 67.4452C240.242 64.0687 233.391 63.6858 230.611 62.3742C229.142 61.6807 227.894 61.4012 226.614 60.2796C225.139 59.1498 223.702 57.5588 223.366 55.6881C222.007 48.1316 227.392 45.1983 234.214 44.3709Z" fill="white"/>
<path d="M185.654 58.7747C187.534 45.3073 203.005 43.2532 214.105 44.5823C216.003 44.8095 217.646 45.442 219.451 46.001C219.529 47.5652 219.369 50.0896 219.508 51.4056C214.327 49.1859 209.063 47.9879 203.569 50.1056C195.225 53.3218 194.912 65.8224 203.48 69.152C208.676 71.1719 213.891 70.9477 219.085 68.8397C219.204 68.7911 219.324 68.7404 219.441 68.6877C219.269 69.5212 219.406 72.9831 219.414 74.0817C216.763 74.9212 214.028 75.4677 211.257 75.7112C202.453 76.443 189.169 74.0796 186.126 64.1161C185.654 61.2096 185.603 61.7887 185.654 58.7747Z" fill="white"/>
<path d="M171.371 45.0291C174.692 44.7348 178.954 45.1772 182.294 44.9025C182.465 49.2853 182.31 54.3189 182.349 58.7932C182.347 59.3086 182.307 60.8723 182.361 61.3045C182.288 65.6381 182.222 70.9035 182.321 75.2139C179.043 75.101 174.543 75.1078 171.266 75.2251L171.282 55.1764L171.276 49.0894C171.275 47.84 171.233 46.2373 171.371 45.0291Z" fill="white"/>
<path d="M254.164 44.8189C256.108 43.8838 258.814 44.8184 259.324 47.0221C259.434 47.4955 259.59 49.0995 259.434 49.5268C258.324 52.7327 254.288 53.1456 252.602 50.4211C252.025 49.5008 251.843 48.3887 252.094 47.333C252.393 46.1264 253.135 45.4333 254.164 44.8189Z" fill="#161616"/>
<path d="M259.434 49.5268C258.324 52.7327 254.288 53.1456 252.602 50.4211C252.025 49.5008 251.843 48.3887 252.094 47.333C252.393 46.1264 253.135 45.4333 254.164 44.8189C254.582 44.925 254.92 45.1032 255.338 45.1106C254.386 45.4255 253.664 45.7891 253.186 46.7375C252.387 48.3274 252.978 50.5138 254.63 51.3029C255.269 51.6123 256.007 51.6502 256.674 51.408C257.482 51.1172 258.057 50.556 258.514 49.8451L258.545 49.8841C258.558 49.887 259.322 49.5886 259.434 49.5268Z" fill="white"/>
<path d="M254.164 44.8189C256.108 43.8838 258.814 44.8184 259.324 47.0221C259.434 47.4955 259.59 49.0995 259.434 49.5268C259.322 49.5886 258.558 49.887 258.545 49.8841L258.514 49.8451C259.186 47.3806 258.342 44.886 255.338 45.1106C254.92 45.1032 254.582 44.925 254.164 44.8189Z" fill="white"/>
<path fill-rule="evenodd" clip-rule="evenodd" d="M256.033 46.2704C257.226 46.2234 257.651 46.9058 257.382 48.0194C257.31 48.3208 256.909 48.496 256.644 48.6403C256.529 49.1733 257.452 49.9833 257.382 50.4831C257.099 50.5637 257.152 50.5235 256.819 50.4028C256.483 49.8988 255.849 48.6785 255.289 48.5434L255.097 48.6852C254.942 49.0749 255.016 49.8482 254.938 50.4069C254.706 50.5674 254.816 50.5367 254.517 50.5083C254.273 50.1794 254.386 46.927 254.39 46.2885C254.907 46.2816 255.511 46.291 256.033 46.2704ZM256.714 47.0995C256.308 46.6684 255.536 46.8108 254.973 46.8303L255 48.1136C255.515 48.0948 256.285 48.0884 256.776 48.0277C256.825 47.6369 256.879 47.4496 256.714 47.0995Z" fill="white"/>
<path d="M76.0519 22.0899C77.5884 22.0035 79.2865 21.9416 80.822 22.0876C85.3481 22.7055 87.0181 22.6827 91.4926 24.3485C92.3131 24.6202 94.4919 25.5417 95.2051 26.0039C100.878 28.46 106.1 33.3528 109.621 38.3535C122.371 56.4622 116.385 82.5286 96.8591 93.2116C95.3622 94.6054 92.1498 96.0571 90.1466 96.3663C89.3286 96.4925 88.0682 96.6701 87.3353 96.8916C84.4679 97.3705 78.8016 98.3632 75.9563 97.8626C73.6716 97.6057 65.4862 96.7535 64.1255 95.2499C61.8367 93.998 59.8309 93.1382 57.6197 91.6739C49.2644 86.1979 43.3953 77.6777 41.271 67.9403C39.1775 55.9979 41.271 39.7838 61.2037 26.1444C61.8999 25.6354 64.176 24.7558 64.9937 24.434C65.8828 24.2542 67.2847 23.5956 68.268 23.3494C70.7574 22.7263 73.4929 22.2682 76.0519 22.0899Z" fill="#161616"/>
<path d="M72.1929 51.5511C71.6325 52.2126 71.1109 52.8321 70.5827 53.522C70.6506 53.1933 70.8327 52.8636 70.9797 52.5568L70.7567 52.3604C71.2443 52.0175 71.6613 51.8187 72.1929 51.5511Z" fill="#3C373A"/>
<path d="M95.2051 26.0039C100.878 28.46 106.1 33.3528 109.621 38.3535C122.371 56.4622 116.385 82.5286 96.8591 93.2116C96.8203 92.077 97.075 91.3292 96.8533 89.8873C96.0253 84.5039 92.2373 79.2011 88.0031 75.9119C85.6357 74.0727 82.7926 72.5639 80.3685 70.7548C76.522 67.8843 74.5822 65.2562 73.8582 60.4266C73.377 57.2165 73.9675 51.9142 75.9064 49.3048C73.3249 48.0617 72.0174 46.6283 72.2379 43.5626C72.3513 41.9874 72.9951 40.9071 74.1869 39.8857C73.44 44.394 75.6109 47.0836 80.2614 46.8529C77.2521 53.0268 76.7356 58.8974 81.3711 64.5762C83.8365 67.5966 86.8655 69.2586 90.2287 71.1084C94.2234 70.2632 96.4738 71.5823 98.7303 74.7898C101.482 72.2119 102.192 69.6479 101.959 65.9945C101.266 66.8617 100.337 67.5121 99.2838 67.8681C96.4728 68.8064 93.321 66.9086 92.4736 64.1643C91.5826 61.2787 93.2561 58.0576 96.1258 57.169C97.5557 56.7222 99.1051 56.8575 100.435 57.5452C101.852 58.2921 102.848 59.7131 103.317 61.2159C105.11 59.5673 106.363 58.3749 106.897 55.8905C107.75 55.3741 110.087 54.0613 109.797 52.8539C109.092 52.3161 107.277 51.5171 106.386 51.0958L100.829 48.4867C99.5561 47.9017 98.0657 47.2803 96.8629 46.5989C97.1661 46.053 98.2154 44.7812 97.851 44.2069C96.2596 41.6988 92.1246 40.9432 89.6766 39.8737C91.4079 35.3087 93.3996 30.5765 95.2051 26.0039Z" fill="white"/>
<path d="M99.7984 62.3471C101.04 62.3019 102.152 62.5559 103.312 62.9674C106.829 64.2151 108.755 64.0854 112.204 62.758C111.984 64.2473 111.739 64.768 110.632 65.7784C110.468 65.8962 110.303 66.0114 110.135 66.124C106.935 68.2659 104.099 65.5276 101.445 63.9567C100.198 63.2185 99.0824 62.7992 97.671 62.5224C98.4067 62.4124 99.06 62.3847 99.7984 62.3471Z" fill="#161616"/>
<path d="M61.2037 26.1444C62.0454 27.7216 62.6213 29.4408 63.3039 31.0937C64.5235 34.0475 65.639 37.0969 66.8855 40.0332C60.4975 41.8828 54.9091 45.1395 50.9538 50.5999C53.2498 50.4352 54.329 50.267 56.4508 51.2609C53.1922 53.4886 48.2847 59.2493 47.2547 63.2667C47.1023 63.8613 47.3297 66.0663 47.3935 66.7937C47.9562 73.6537 50.3599 80.2366 54.3529 85.8531C56.2632 88.466 58.5087 90.8184 61.032 92.8502C61.6146 93.3251 63.8435 94.9169 64.1255 95.2499C61.8367 93.998 59.8309 93.1382 57.6197 91.6739C49.2644 86.1979 43.3953 77.6777 41.271 67.9403C41.271 67.9403 39.8985 61.1859 40.8159 54.3701C42.3934 42.6498 50.4427 31.3177 61.2037 26.1444Z" fill="white"/>
<path d="M70.7567 52.3604L70.9797 52.5568C70.8327 52.8636 70.6506 53.1933 70.5827 53.522C70.2586 54.065 69.9005 54.5801 69.5785 55.116C67.5766 58.4485 66.3795 62.3926 67.2727 66.2708C67.5112 67.307 68.072 68.392 68.5448 69.3481C68.9792 68.0042 69.4542 67.5664 70.2961 66.4496C71.654 71.4335 76.9932 74.881 80.5067 78.619C83.9994 82.3349 86.65 87.0658 87.007 92.3539C87.0436 92.8968 87.1472 96.8488 87.1566 96.8635L87.3353 96.8916C84.4679 97.3705 78.8016 98.3632 75.9563 97.8626C77.5371 91.4624 75.6388 84.7257 71.5511 79.6247C70.1579 77.8861 67.6039 75.1623 66.789 73.1693C66.2893 74.9594 65.6924 76.91 65.4374 78.7356C64.7721 78.085 64.1885 77.3565 63.6993 76.566C59.1185 69.1632 63.5641 56.7852 70.7567 52.3604Z" fill="white"/>
<path d="M64.9937 24.434C65.8828 24.2542 67.2847 23.5956 68.268 23.3494C70.7574 22.7263 73.4929 22.2682 76.0519 22.0899C76.1166 24.2231 76.1807 25.504 74.6233 27.2176C72.6156 29.4265 68.9556 29.5445 66.7863 27.508C65.808 26.5896 65.3712 25.7012 64.9937 24.434Z" fill="white"/>
<path d="M80.822 22.0876C85.3481 22.7055 87.0181 22.6827 91.4926 24.3485C91.2065 26.2813 89.5487 28.0199 87.704 28.603C86.2702 29.0596 84.7126 28.9233 83.3806 28.2248C81.285 27.1331 79.6088 24.3582 80.822 22.0876Z" fill="white"/>
<path d="M88.0623 43.5142C90.0809 43.7656 92.3898 44.8855 94.157 45.8354C93.8031 46.4519 93.6415 46.7618 93.1603 47.2787C91.0123 48.763 88.6851 47.9705 87.9912 45.3692C87.8235 44.7405 87.9539 44.1503 88.0623 43.5142Z" fill="white"/>
</svg>
