<svg width="276.48" height="64.32" viewBox="21.92 28 276.48 64.32" fill="none" xmlns="http://www.w3.org/2000/svg">
<path d="M26 44H143V76H26V44Z" fill="#FEFEFE"/>
<path d="M49.0328 45.9118C52.3796 45.8456 55.9581 45.9094 59.3195 45.9093L141.291 45.9103L141.291 74.0927L49.0334 74.0995L49.0328 45.9118Z" fill="#05367B"/>
<path d="M127.58 55.1375C131.261 55.1071 136.017 54.7609 136.149 59.8517C136.19 61.4367 135.973 62.6018 134.823 63.79C133.006 65.4363 129.921 65.1393 127.58 65.1335L127.58 55.1375Z" fill="#FEFEFE"/>
<path d="M129.613 56.7163C130.011 56.7116 130.398 56.7119 130.796 56.723C133.894 56.8095 135.044 60.4673 133.084 62.6025L133.062 62.6237C132.033 63.627 130.915 63.5681 129.615 63.5589L129.613 56.7163Z" fill="#05367B"/>
<path d="M119.395 55.1371C121.143 55.1294 125.444 54.5835 126.049 56.864C126.488 58.5178 125.761 59.4869 124.143 59.9531C126.104 60.3271 126.67 61.2807 126.358 63.1853C125.679 65.237 123.423 65.1386 121.66 65.1376L119.394 65.1326L119.395 55.1371Z" fill="#FEFEFE"/>
<path d="M121.405 60.6843C122.562 60.669 124.35 60.4651 124.455 62.0474C124.486 62.5103 124.352 62.7807 124.051 63.119C123.306 63.6501 122.292 63.5637 121.404 63.5588L121.405 60.6843Z" fill="#05367B"/>
<path d="M121.402 56.7159C122.065 56.7103 123.227 56.6231 123.744 57.0695C124.33 57.5743 124.265 58.2397 123.8 58.7887C123.111 59.281 122.215 59.198 121.404 59.1877L121.402 56.7159Z" fill="#05367B"/>
<path d="M109.517 55.1372L111.997 55.1331L115.871 62.6489C115.911 60.1937 115.875 57.6015 115.875 55.1372L117.808 55.1368L117.805 65.1315L115.337 65.1337L111.456 57.6314L111.452 65.1318L109.517 65.134V55.1372Z" fill="#FEFEFE"/>
<path d="M65.1085 57.6397C66.4389 57.5148 67.1472 57.7166 67.8476 58.8709C67.9562 58.6899 68.0854 58.5218 68.2328 58.37C68.8221 57.7719 69.4139 57.6245 70.2241 57.6078C72.2153 57.5667 72.5553 59.2684 72.5489 60.8522C72.5431 62.2832 72.5428 63.7072 72.537 65.1318L70.5999 65.1336C70.575 63.4242 70.7378 61.4337 70.4603 59.7388C70.3869 59.2905 69.8279 59.0677 69.4014 59.0905C67.6392 59.1847 68.0064 62.5723 68.0132 63.8163L68.0126 65.1314L66.0674 65.1327L66.0742 61.8452C66.0748 61.2399 66.1835 59.591 65.7096 59.3226C64.2537 58.4982 63.5718 59.9776 63.5458 61.0928C63.5118 62.551 63.5278 63.7921 63.532 65.1333L61.609 65.1327L61.6096 57.7676C62.2033 57.7501 62.8148 57.7593 63.41 57.7612L63.4113 58.8112C63.9104 58.1492 64.3212 57.8702 65.1085 57.6397Z" fill="#FEFEFE"/>
<path d="M54.6185 55.137L60.5645 55.1368L60.5628 56.7156L56.643 56.7174L56.6426 59.1867L60.241 59.1923C60.2543 59.6973 60.2435 60.24 60.2427 60.7481L56.6421 60.7491L56.6426 63.5583L60.6158 63.5613V65.133L54.6187 65.1308L54.6185 55.137Z" fill="#FEFEFE"/>
<path d="M83.6465 57.6448C85.9225 57.4464 87.457 57.9506 87.5655 60.4934C87.6301 62.008 87.517 63.6315 87.6587 65.1312L85.9585 65.1312C85.9442 64.8142 85.8905 64.3804 85.8597 64.0561C84.8514 65.4193 83.3483 65.6682 81.8845 64.8285C80.7618 64.0451 80.6415 62.4005 81.595 61.4492C82.5582 60.4882 84.4817 60.5785 85.7797 60.5815C85.766 60.2018 85.7694 59.8 85.5003 59.5038C84.564 58.4744 82.7592 59.1834 81.8244 59.7901C81.7766 59.2791 81.7753 58.6678 81.762 58.1474C82.3348 57.9015 83.0291 57.7288 83.6465 57.6448Z" fill="#FEFEFE"/>
<path d="M84.9673 61.7217L85.7734 61.7203C85.7488 63.1951 85.2067 63.9824 83.6191 63.8558C82.8019 63.6628 82.4621 62.9807 83.0658 62.3153C83.554 61.777 84.2898 61.7554 84.9673 61.7217Z" fill="#05367B"/>
<path d="M95.7184 57.6372C98.9445 57.388 99.8882 59.1947 99.858 62.0374H94.7324C94.7615 62.2182 94.7969 62.498 94.858 62.6602C95.03 63.1252 95.3853 63.5011 95.8424 63.7015C96.6845 64.0695 97.7436 63.8453 98.5686 63.5293C98.7931 63.4334 99.0919 63.2737 99.317 63.1621L99.3318 64.7106C98.8782 64.9469 98.392 65.1157 97.8893 65.2112C95.7567 65.6345 93.3875 64.8781 92.9688 62.4737C92.5997 60.3548 93.3064 58.0922 95.7184 57.6372Z" fill="#FEFEFE"/>
<path d="M96.3245 58.9977C97.4997 58.9748 97.8973 59.6764 98.0116 60.7108L94.7284 60.7112C94.8832 59.6482 95.2414 59.1824 96.3245 58.9977Z" fill="#05367B"/>
<path d="M102.467 57.6378C103.623 57.5891 104.088 57.6025 105.216 57.8766C105.162 58.2188 105.132 58.9473 105.104 59.3149C104.476 59.0932 103.818 58.9755 103.144 59.0251C102.735 59.0552 102.063 59.3732 102.215 59.8431C102.485 60.6772 104.094 60.655 104.74 61.2188C105.169 61.5933 105.476 61.857 105.561 62.4698C105.778 64.405 104.461 65.0551 102.869 65.298C102.13 65.4054 100.993 65.1476 100.254 65.0023C100.303 64.4817 100.342 63.9605 100.373 63.4386C101.037 63.6949 102.036 64.0379 102.688 63.843C104.198 63.4283 103.647 62.2885 102.348 62.0453C99.3575 61.4859 99.4152 58.1663 102.467 57.6378Z" fill="#FEFEFE"/>
<path d="M90.9561 55.7099C91.1053 55.8726 91.0378 57.4274 91.0361 57.7606L92.7431 57.7603L92.7403 59.1942L91.0401 59.1912C91.0401 60.0414 91.0538 60.9564 91.023 61.8038C90.9744 63.1408 91.1241 64.2959 92.8368 63.6282C92.8328 64.1308 92.874 64.619 92.91 65.1194C92.4358 65.2504 91.9456 65.3176 91.4532 65.3193C89.6182 65.2558 89.0606 64.1399 89.0915 62.4958C89.1115 61.4078 89.0989 60.2861 89.1046 59.1952L87.6524 59.1867L87.6507 57.7647L89.0995 57.7537L89.1012 56.2973C89.7165 56.0931 90.3352 55.8973 90.9561 55.7099Z" fill="#FEFEFE"/>
<path d="M79.9972 57.6378C80.3114 57.6099 80.7202 57.6229 81.0424 57.6244L81.0436 59.5472C80.7767 59.4697 80.5002 59.4288 80.2221 59.4259C78.0453 59.4202 78.5602 63.6391 78.5634 65.1333C78.215 65.1356 76.9802 65.1687 76.7143 65.1004L76.6662 64.9881L76.667 57.7642C77.2277 57.7494 77.8166 57.76 78.3796 57.7619L78.3813 59.396C78.4092 59.3184 78.4386 59.2414 78.4693 59.1649C78.7977 58.3518 79.2077 57.9717 79.9972 57.6378Z" fill="#FEFEFE"/>
<path d="M73.64 57.8074L75.5921 57.8101L75.5918 65.1693L73.6376 65.1668L73.64 57.8074Z" fill="#FEFEFE"/>
<path d="M73.6368 54.6267L75.5927 54.6266L75.5911 56.4501L73.6382 56.4479L73.6368 54.6267Z" fill="#FEFEFE"/>
<path d="M45.496 45.9207C45.9637 45.8977 46.6109 45.9167 47.093 45.9158L47.0939 74.1235L38.2924 74.1284L38.0027 73.6177C36.1014 70.054 35.5641 66.7411 35.7445 62.7665C36.0526 55.9771 39.9446 49.7562 45.496 45.9207Z" fill="#05367B"/>
<path d="M41.3467 62.1709C42.386 59.8229 42.5056 56.6916 42.1741 54.1647C42.0527 53.2393 41.8115 52.3445 41.5801 51.4432C43.3054 53.9047 43.9302 57.1993 43.4068 60.1475C42.8878 63.0708 41.2934 65.8141 38.829 67.5509C38.6077 67.7068 38.3096 67.9004 38.0663 68.0133C37.9902 68.0901 37.2709 68.4865 37.1308 68.5681C40.4049 64.5074 41.2194 61.2488 39.61 56.2384C41.0173 58.1852 41.3928 59.8159 41.3467 62.1709Z" fill="#FEFEFE"/>
<path d="M39.61 56.2384C41.0173 58.1852 41.3928 59.8159 41.3467 62.1709C40.9432 64.1655 40.5752 65.4142 39.1319 66.9958C38.7824 67.3788 38.3709 67.6883 38.0663 68.0133C37.9902 68.0901 37.2709 68.4865 37.1308 68.5681C40.4049 64.5074 41.2194 61.2488 39.61 56.2384Z" fill="#FEB913"/>
<path d="M36.5891 45.9167L39.7027 45.9143L41.6966 45.9178C35.1307 51.7349 32.3722 59.4671 34.4838 68.0972C34.847 69.5817 35.3984 70.715 36.035 72.0889C36.4986 72.7756 36.831 73.4173 37.3404 74.1083L37.3507 74.122C37.0855 74.1222 36.5942 74.1356 36.3451 74.1178C33.5081 74.1572 30.5847 74.1247 27.7411 74.1259C27.7813 70.8149 27.7482 67.4397 27.7483 64.1247L27.7465 45.9143L36.5891 45.9167Z" fill="#05367B"/>
<path d="M36.5891 45.9167L39.7027 45.9143L41.6966 45.9178C35.1307 51.7349 32.3722 59.4671 34.4838 68.0972C34.847 69.5817 35.3984 70.715 36.035 72.0889C36.4986 72.7756 36.831 73.4173 37.3404 74.1083L37.3507 74.122C37.0855 74.1222 36.5942 74.1356 36.3451 74.1178C28.9602 66.3351 29.431 54.8386 35.9284 46.7254C36.1459 46.4537 36.3677 46.1853 36.5891 45.9167Z" fill="#FEB913"/>
<path d="M39.7027 45.9143L41.6966 45.9178C35.1307 51.7349 32.3722 59.4671 34.4838 68.0972C34.847 69.5817 35.3984 70.715 36.035 72.0889C35.782 71.8371 35.2476 70.892 35.0614 70.5498C33.5966 67.8565 32.8995 65.3644 32.8068 62.3217C32.6575 57.4231 34.2642 52.8177 37.1564 48.8622C37.9527 47.7731 38.7835 46.8904 39.7027 45.9143Z" fill="#05367B"/>
<path d="M162.685 59.2203C162.788 58.9725 162.938 58.7474 163.128 58.5579L169.556 52.1298C169.745 51.94 169.971 51.7895 170.218 51.6868C170.466 51.5841 170.732 51.5312 171 51.5312C171.268 51.5312 171.534 51.5841 171.781 51.6868C172.029 51.7895 172.254 51.94 172.444 52.1298L178.872 58.5579C179.062 58.7474 179.212 58.9725 179.315 59.2203C179.418 59.468 179.47 59.7336 179.47 60.0018C179.47 60.27 179.418 60.5356 179.315 60.7834C179.212 61.0312 179.062 61.2563 178.872 61.4458L172.444 67.8739C172.254 68.0636 172.029 68.2142 171.781 68.3169C171.534 68.4196 171.268 68.4724 171 68.4724C170.732 68.4724 170.466 68.4196 170.218 68.3169C169.971 68.2142 169.745 68.0636 169.556 67.8739L163.128 61.4458C162.938 61.2563 162.788 61.0312 162.685 60.7834C162.582 60.5356 162.529 60.27 162.529 60.0018C162.529 59.7336 162.582 59.468 162.685 59.2203Z" stroke="#FAD06B" stroke-width="2.54097" stroke-linecap="round"/>
<path d="M246.439 46.6651C248.984 46.7362 251.561 46.6526 254.113 46.6885C257.377 46.7344 260.724 46.3483 263.771 47.8017C265.586 48.6671 266.908 49.9365 267.582 51.8529C268.262 53.808 268.145 55.9545 267.256 57.8231C266.391 59.6245 265.127 60.5432 263.29 61.1921C264.21 61.4406 265.024 61.7838 265.845 62.2623C269.09 64.1539 269.559 68.5702 268.23 71.794C267.912 72.5133 267.491 73.182 266.981 73.7791C263.999 77.2322 259.256 77.0666 255.165 77.0657L249.85 77.0636C248.789 77.0632 247.487 77.0354 246.446 77.111L246.446 58.1451C246.446 54.3569 246.496 50.4436 246.439 46.6651ZM253.113 71.7973C254.49 71.7818 255.867 71.7991 257.243 71.7559C258.539 71.7153 259.47 71.5186 260.501 70.7198C262.028 69.3098 262.061 66.3362 260.707 64.8731C259.086 63.1192 255.269 63.7405 253.109 63.6377C253.163 64.1986 253.142 64.9531 253.141 65.5359L253.144 68.5413C253.144 69.0684 253.177 71.428 253.113 71.7973ZM253.113 59.0967C254.466 59.083 255.827 59.1048 257.177 59.0329C258.332 58.9715 259.273 58.7845 260.205 58.0658C261.475 56.8575 261.635 54.3356 260.416 53.087C258.738 51.3686 255.296 52.1232 253.098 51.9526C253.165 52.4497 253.143 53.1631 253.143 53.6787L253.145 56.3597C253.145 56.8528 253.175 58.7388 253.113 59.0967Z" fill="white"/>
<path d="M225.831 46.6556C226.424 46.71 227.206 46.688 227.816 46.6889L231.192 46.6832C231.687 46.6804 232.822 46.6413 233.251 46.748C233.58 47.1566 235.265 52.0803 235.565 52.8992L241.514 69.2341C242.44 71.7778 243.392 74.5856 244.369 77.0808C243.619 77.0245 242.403 77.0634 241.601 77.0627C240.114 77.0612 238.544 77.0465 237.062 77.1018C236.545 75.7493 236.191 74.2211 235.696 72.8477C235.492 72.2808 235.256 71.6064 235.123 71.0258C234.397 71.0484 233.609 71.0354 232.878 71.0368L226.515 71.0358C225.85 71.0357 223.975 71.0764 223.437 70.9778C223.331 71.4611 222.929 72.5532 222.752 73.0745L221.382 77.1196C220.853 77.0346 219.506 77.0644 218.936 77.0641L214.431 77.0628C214.979 75.8208 215.574 74.1016 216.062 72.8052L223.888 51.8449C224.513 50.1638 225.243 48.3346 225.831 46.6556ZM225.201 65.5167C226.545 65.5437 227.888 65.5545 229.232 65.5491C230.348 65.5444 232.296 65.4806 233.332 65.5667C232.319 62.2164 231.152 58.9098 230.113 55.5667C229.991 55.1762 229.546 53.2842 229.328 53.0952C228.298 56.0649 227.424 59.2136 226.352 62.1866C225.996 63.1753 225.598 64.5834 225.201 65.5167Z" fill="white"/>
<path d="M293.965 32C294.023 32.1289 294.012 32.1467 293.906 32.3239C293.386 33.1975 292.862 34.0705 292.361 34.9552C291.187 36.9896 290.08 39.0629 289.043 41.1714C282.782 53.7463 278.956 67.9116 280.884 82.0382C280.941 82.4551 281.059 83.0603 281.051 83.463L280.992 83.4883C280.889 83.4089 280.375 82.531 280.267 82.3599C278.297 79.2622 276.81 75.8801 275.856 72.3306C275.458 71.175 275.02 68.724 274.856 67.5004C274.026 61.37 274.72 55.128 276.876 49.3335C277.19 48.4838 277.59 47.6101 277.954 46.7781C277.907 46.7534 267.907 46.7385 267.261 46.8322C267.828 46.2841 269.733 45.3071 270.544 44.8562L276.882 41.371L286.426 36.1062C288.758 34.8028 291.594 33.1557 293.965 32Z" fill="#F02D26"/>
<path d="M232.246 34.0792C232.462 34.0814 232.749 34.1169 232.97 34.1376C232.987 35.006 232.985 35.8748 232.962 36.7431C233.845 36.0126 235.189 35.4073 236.123 36.3424C236.97 37.1901 237.115 40.034 235.418 40.0392C234.219 40.0519 232.937 40.1123 231.742 40.0503C230.534 39.9875 229.455 40.0453 228.26 40.0531L222.18 40.0573C222.055 39.2807 222.203 37.6864 221.953 36.9793C221.819 36.6031 221.113 36.6535 221.039 37.4103C220.925 38.5657 221.107 39.8731 220.949 41.0253C220.139 41.1095 219.35 41.0973 218.543 41.11C216.9 41.1357 215.918 40.6671 215.977 38.8339C216.246 37.9769 216.614 37.731 217.354 37.2841C217.5 37.5661 217.663 37.7573 217.858 38.0051C217.271 38.4877 216.002 39.5681 217.539 40.056C218.191 40.2628 219.384 40.1102 220.134 40.1456C220.043 39.266 220.062 38.2401 220.087 37.353C220.111 36.5033 220.798 35.707 221.703 35.8635C223.282 36.1367 223.175 37.9728 222.98 39.1764C225.059 39.1307 227.51 39.1249 229.585 39.1764C229.574 39.0884 229.564 39.0002 229.557 38.9118C229.496 38.176 229.521 37.2218 229.552 36.4691C229.571 36.0166 230.107 35.731 230.409 36.073C230.562 36.522 230.518 38.6319 230.467 39.1759C231.001 39.1648 231.545 39.1666 232.08 39.1631C231.964 37.6459 231.908 35.8874 232.079 34.3688C232.102 34.1643 232.113 34.1804 232.246 34.0792ZM232.987 37.8291C232.98 38.2244 232.99 38.7959 232.96 39.1779L233.817 39.1645C234.258 39.1683 235.276 39.2326 235.626 39.0396C235.978 38.6285 235.944 36.7818 234.932 36.7692C234.06 36.9655 233.685 37.2472 232.987 37.8291Z" fill="white"/>
<path d="M256.048 34.0925L256.636 34.1452C256.622 35.1965 256.619 36.2479 256.626 37.2992C256.627 37.8425 256.653 38.6519 256.59 39.1745C258.953 39.1371 261.628 39.1188 263.984 39.1768C263.939 38.8142 263.676 35.1333 264.684 35.9574C265.091 36.2901 264.975 38.5191 264.919 39.1738C265.622 39.1561 266.325 39.1559 267.028 39.1731C266.969 38.6993 266.931 36.5474 267.039 36.133C267.26 35.9714 267.689 36.0835 267.973 36.1257C267.935 36.9421 267.947 37.8621 267.978 38.6808C268.037 40.2539 266.802 40.0795 265.644 40.0579C262.516 39.9719 259.371 40.1472 256.238 40.0036C254.429 39.9206 250.59 40.9618 251.048 37.8111C251.123 37.2934 251.804 36.2696 252.432 36.4142C252.586 36.5407 252.719 36.8576 252.814 37.0479C252.458 37.3286 251.923 37.6693 251.903 38.1575C251.863 39.1123 252.67 39.1885 253.396 39.1762C254.168 39.1633 254.948 39.151 255.709 39.1747C255.635 38.4985 255.669 37.6135 255.671 36.9111C255.672 36.0508 255.625 35.0794 255.668 34.2302C255.812 34.0933 255.815 34.1317 256.048 34.0925Z" fill="white"/>
<path d="M238.948 35.8937C241.111 35.7024 241.153 37.5782 241.015 39.174C242.578 39.1264 244.471 39.1502 246.033 39.1704C246.017 38.818 245.957 36.4102 246.03 36.2334C246.083 36.1009 246.187 35.9959 246.319 35.9423C246.473 35.8805 246.615 35.8828 246.765 35.9521C246.995 36.1597 246.92 37.9086 246.915 38.3007C246.892 39.9706 246.585 40.0575 245.164 40.0576L241.09 40.0431C240.703 41.8402 239.761 41.7105 238.239 41.7269C238.219 40.7527 238.281 40.7774 239.246 40.7502C239.781 40.7351 239.97 40.4893 240.293 40.109C239.656 40.0896 238.829 40.111 238.259 39.7975C237.262 39.2489 237.182 37.6577 237.694 36.7501C238.014 36.1837 238.368 36.0569 238.948 35.8937ZM239.314 39.1588L240.158 39.1831C240.133 38.2999 240.409 36.7208 239.14 36.7615C238.843 36.8614 238.58 36.9764 238.466 37.2818C238.121 38.2049 238.27 39.0508 239.314 39.1588Z" fill="white"/>
<path d="M204.85 35.8935C204.959 35.8843 205.068 35.8786 205.177 35.8766C207.359 35.8527 207.093 38.0312 207.09 39.5371C207.086 41.5385 206.054 41.7572 204.381 41.7172C204.254 41.6 204.293 41.6171 204.269 41.3983C204.268 41.3624 204.267 41.3265 204.266 41.2907C204.252 40.5223 204.966 40.756 205.559 40.7708C205.912 40.5984 206.023 40.4135 206.27 40.1124C205.763 40.1106 204.745 40.0987 204.339 39.8419C202.886 38.9231 203.115 36.3727 204.85 35.8935ZM205.408 39.1594C205.661 39.1668 205.946 39.1682 206.196 39.1844C206.178 38.3151 206.39 36.7001 205.114 36.7659C204.839 36.8649 204.571 36.9832 204.478 37.2735C204.154 38.2904 204.275 39.0999 205.408 39.1594Z" fill="white"/>
<path d="M211.334 34.0996L211.881 34.1099C211.802 35.325 211.85 36.9138 211.874 38.1547C211.921 40.6278 210.078 40.0663 208.129 40.0549C207.99 40.0639 207.929 40.0838 207.816 40.005C207.728 39.8335 207.738 39.4246 207.717 39.1934C208.297 39.1543 210.469 39.2947 210.808 39.0164C211.139 38.7437 210.89 34.9716 210.984 34.2249C211.091 34.0948 211.125 34.1303 211.334 34.0996Z" fill="white"/>
<path d="M247.705 34.1006C247.945 34.0813 248.291 34.0388 248.498 34.1656C248.549 34.3007 248.624 39.7675 248.57 40.0092L248.478 40.0499L247.613 40.0825C247.656 38.3803 247.572 35.9834 247.622 34.2182C247.655 34.1719 247.683 34.1327 247.705 34.1006Z" fill="white"/>
<path d="M212.879 34.0795L213.5 34.1422C213.703 35.7051 213.591 37.6725 213.533 39.251C213.526 39.4285 213.547 39.9089 213.512 40.0268L213.38 40.043C213.135 40.069 212.892 40.0696 212.646 40.0741L212.648 36.1222C212.649 35.5475 212.633 34.8684 212.692 34.2958C212.707 34.15 212.757 34.154 212.879 34.0795Z" fill="white"/>
<path d="M209.593 34.7042C209.713 34.6793 209.718 34.6763 209.834 34.71C209.956 34.9353 209.933 38.5478 209.862 38.8619C209.694 38.9513 209.682 38.9117 209.455 38.8882C209.24 38.9353 209.167 38.9862 209.034 38.8128C208.991 38.3485 208.968 35.1723 209.047 34.8142C209.174 34.7131 209.422 34.7169 209.593 34.7042Z" fill="white"/>
<path d="M209.539 32.6531C209.905 32.7028 210.308 32.8651 210.24 33.3096C210.114 33.4427 210.179 33.407 209.989 33.4372C209.786 33.398 209.688 33.2509 209.548 33.0941L209.268 33.7553C209.877 33.7749 209.997 33.7487 210.454 34.1267C210.493 34.1847 210.48 34.223 210.476 34.2955C210.335 34.3999 208.811 34.4336 208.633 34.2754C208.532 33.9622 208.858 33.4529 208.979 33.1575C209.111 32.8328 209.225 32.7756 209.539 32.6531Z" fill="white"/>
<path d="M247.967 32.0363C248.374 32.0251 248.983 32.275 249.029 32.7133C248.9 32.8213 248.951 32.7871 248.752 32.8189C248.469 32.7448 248.403 32.5334 248.261 32.5048C248.114 32.6531 248.005 32.9384 247.914 33.1364C248.341 33.1616 248.58 33.1646 248.991 33.2853C249.039 33.3857 249.033 33.4123 249.037 33.5265C248.783 33.7685 247.534 33.691 247.121 33.6856C247.35 33.1916 247.599 32.3778 247.967 32.0363Z" fill="white"/>
<path d="M254.168 35.4988C254.682 35.6102 254.844 35.9676 255.108 36.3829C254.74 36.31 254.335 36.0921 254.033 36.2164C253.975 36.3788 253.932 36.4739 253.927 36.6496C254.128 36.7826 254.42 36.6061 255.013 36.8957C255.018 37.0062 255.011 37.014 254.974 37.1204C254.74 37.2535 253.365 37.2954 253.216 37.1119C253.208 36.9356 253.297 36.6541 253.379 36.4975C253.691 35.9061 253.568 35.7393 254.168 35.4988Z" fill="white"/>
<path d="M203.085 81.8205C203.893 81.7673 204.121 82.6805 203.412 82.9965C202.508 83.012 202.408 82.2174 203.085 81.8205Z" fill="white"/>
<path d="M248.163 81.8677C248.365 81.7748 248.602 81.8047 248.776 81.9449C248.95 82.0852 249.03 82.312 248.983 82.5309C248.936 82.75 248.771 82.9238 248.556 82.9802C248.26 83.0577 247.954 82.8948 247.852 82.6052C247.75 82.3156 247.885 81.9953 248.163 81.8677Z" fill="white"/>
<path d="M217.949 41.7579L218.695 41.7651C218.683 42.0712 218.78 42.5416 218.535 42.7221C218.272 42.696 217.986 42.7003 217.72 42.698C217.703 42.3134 217.581 41.9342 217.949 41.7579Z" fill="white"/>
<path d="M218.96 41.8111C219.042 41.8018 219.125 41.7933 219.207 41.7856C219.478 41.7609 219.569 41.7341 219.788 41.9171C219.907 42.1084 219.872 42.4585 219.839 42.6796C219.57 42.6815 219.265 42.7017 218.993 42.7133C218.971 42.4103 218.967 42.1145 218.96 41.8111Z" fill="white"/>
<path d="M245.924 40.7099C246.654 40.6534 246.354 41.4621 245.932 41.7184C245.519 41.6447 245.246 41.4254 245.452 40.9503C245.535 40.7591 245.738 40.7523 245.924 40.7099Z" fill="white"/>
<path d="M264.102 34.3671C264.447 34.326 264.574 34.2712 264.842 34.4604C264.968 34.645 264.915 35.0106 264.895 35.2448C264.599 35.2587 264.348 35.3112 264.12 35.1249C263.977 34.9013 264.057 34.6261 264.102 34.3671Z" fill="white"/>
<path d="M229.757 40.711C229.974 40.7265 230.25 40.7771 230.47 40.8111C230.494 41.0242 230.542 41.3173 230.506 41.5209L230.406 41.5816C230.146 41.5969 229.876 41.5886 229.614 41.5853C229.586 41.2335 229.506 40.9785 229.757 40.711Z" fill="white"/>
<path d="M234.264 34.3601C234.603 34.3286 234.758 34.2714 235.019 34.4569C235.133 34.6428 235.105 34.9976 235.108 35.2307L234.246 35.2473C234.234 34.9226 234.246 34.6828 234.264 34.3601Z" fill="white"/>
<path d="M266.587 40.7384C266.84 40.7482 267.153 40.7887 267.411 40.8148C267.414 41.0684 267.431 41.3328 267.443 41.587L266.535 41.5878C266.538 41.2937 266.562 41.0304 266.587 40.7384Z" fill="white"/>
<path d="M217.538 46.6655L217.528 52.2996C216.938 52.1746 215.283 52.2145 214.59 52.216L208.621 52.2213C207.891 52.222 206.287 52.2738 205.645 52.2023C205.734 53.0086 205.688 54.8419 205.686 55.7424C205.683 56.6099 205.735 58.3918 205.656 59.1953C208.075 59.1329 210.542 59.213 212.964 59.1828C213.869 59.1716 215.366 59.23 216.224 59.1507C216.224 59.7055 216.263 64.2205 216.186 64.3806C216.09 64.3939 215.672 64.3604 215.519 64.3598L213.5 64.3629C210.885 64.3516 208.27 64.3588 205.655 64.3845C205.727 65.3082 205.685 66.779 205.684 67.7354L205.683 73.8226C205.683 74.5687 205.639 76.4358 205.743 77.0678C203.679 77.0582 201.018 76.9874 199 77.0707V46.6751C199.933 46.7348 201.321 46.6936 202.3 46.693L214.371 46.6899C215.252 46.6897 216.691 46.728 217.538 46.6655Z" fill="white"/>
<path d="M230.55 82.3415C231.738 82.4232 233.434 82.242 234.296 83.2264C235.208 84.267 235.182 86.4071 234.119 87.3534C233.211 88.1609 232.212 87.746 231.214 88H230.608C230.429 86.5562 230.615 83.9147 230.55 82.3415ZM231.564 87.1602C232.213 87.1164 232.864 87.1301 233.403 86.7359C234.067 85.8525 234.196 84.3306 233.292 83.54C232.946 83.2373 232.03 83.2645 231.557 83.2324C231.6 84.0179 231.638 86.4227 231.564 87.1602Z" fill="white"/>
<path d="M251.884 82.3415C253.35 82.4436 255.961 82.0934 255.456 84.3182C255.426 84.4924 255.297 84.6064 255.208 84.7331C255.141 84.8273 254.862 85.0437 254.966 85.1215C255.908 85.8297 256.057 86.7398 255.095 87.5806C254.424 88.1669 253.265 87.7646 252.483 88H251.942C251.763 86.6228 251.946 83.8629 251.884 82.3415ZM252.898 87.1514C253.349 87.1273 253.893 87.112 254.327 87.0222C254.72 86.7348 254.655 86.1019 254.448 85.7276C254.236 85.3469 253.249 85.4254 252.882 85.4226C252.919 85.8929 252.948 86.6815 252.898 87.1514ZM252.896 84.7282C253.354 84.7255 254.045 84.7987 254.36 84.4906L254.638 83.9824C254.532 83.7459 254.455 83.5609 254.312 83.3418C253.821 83.2811 253.355 83.2832 252.862 83.2769C252.941 83.7243 252.945 84.277 252.896 84.7282Z" fill="white"/>
<path d="M220.099 81.9013C220.419 81.9158 220.845 81.9227 221.155 81.9531C221.147 82.437 221.157 83.3446 221.083 83.7892C221.712 83.5979 222.33 83.4454 222.942 83.7842C223.985 84.3624 224.058 86.0162 223.537 86.9511C223.325 87.3398 222.993 87.6485 222.591 87.8303C222.465 87.8888 222.337 87.9168 222.236 88H220.775C220.518 87.8658 220.418 87.8242 220.142 87.7383C220.052 85.8552 220.126 83.804 220.099 81.9013ZM221.092 87.239C221.613 87.2155 222.044 87.2697 222.448 86.9587C222.997 86.0906 223.016 85.1865 222.303 84.3995L221.155 84.3837C221.067 85.2281 221.226 86.4256 221.092 87.239Z" fill="white"/>
<path d="M243.683 81.913C243.969 81.9233 244.392 81.9276 244.667 81.9581C244.651 82.5001 244.671 83.3536 244.588 83.8457C245.185 83.6129 245.729 83.4504 246.354 83.7145C247.734 84.2968 247.657 86.8076 246.557 87.6085C246.323 87.7793 246.009 87.8489 245.782 88H244.497C244.221 87.9266 243.993 87.85 243.726 87.7574C243.642 85.9309 243.694 83.7656 243.683 81.913ZM244.597 87.2385C245.059 87.2188 245.641 87.2669 245.99 86.9981C246.351 86.3945 246.63 85.0473 245.934 84.4953C245.73 84.3337 244.947 84.3825 244.667 84.3874C244.577 85.2184 244.73 86.4513 244.597 87.2385Z" fill="white"/>
<path d="M216.769 82.3694C216.921 82.3644 217.635 82.3259 217.695 82.4457C218.024 83.097 219.747 87.5183 219.658 88H218.776C218.572 87.7706 218.366 87.0113 218.262 86.6833C217.544 86.6966 216.825 86.696 216.107 86.6827C215.944 87.1679 215.858 87.7422 215.456 88H215.039C214.946 87.9381 214.905 87.942 214.794 87.9414C214.671 87.6628 215.247 86.3354 215.388 85.9588L216.519 82.917C216.584 82.749 216.683 82.5267 216.769 82.3694ZM216.368 85.8464C216.624 85.8392 216.881 85.8365 217.138 85.8382C217.387 85.8347 217.761 85.8177 217.999 85.8505C217.905 85.5622 217.286 83.563 217.191 83.4929C216.975 84.1569 216.653 85.2222 216.368 85.8464Z" fill="white"/>
<path d="M241.705 84.431C241.496 84.3911 241.324 84.3568 241.111 84.3525C240.879 84.3478 240.112 84.4999 239.96 84.4458C239.882 84.2676 239.952 83.829 240.112 83.7464C240.573 83.524 241.679 83.4982 242.128 83.7123C243.281 84.2617 242.673 86.0005 242.902 86.9511C243.024 87.4564 243.383 87.1695 243.345 88H240.42C239.999 87.7252 239.689 87.5111 239.568 86.9725C239.503 86.6861 239.555 86.386 239.713 86.139C240.199 85.3731 241.159 85.4603 241.934 85.458C241.879 85.0174 241.865 84.8409 241.705 84.431ZM241.113 87.2768L241.889 87.1164C241.887 86.7513 241.878 86.3599 241.887 85.9973L241.196 86.0519C240.38 86.319 240.16 87.0475 241.113 87.2768Z" fill="white"/>
<path d="M256.434 84.5451C256.473 84.3331 256.519 83.9332 256.633 83.7728C257.214 83.4248 258.823 83.4669 259.16 84.1317C259.558 84.9153 259.243 86.0592 259.354 86.9172C259.789 87.4126 259.904 87.3595 259.897 88H256.971C256.614 87.7734 256.122 87.3792 256.08 86.9517C255.94 85.5196 257.601 85.411 258.484 85.4707C258.425 85.0429 258.407 84.8232 258.25 84.4222C257.58 84.3097 257.094 84.3303 256.434 84.5451ZM257.645 87.2675C257.886 87.2423 258.138 87.2352 258.351 87.1241C258.467 86.9418 258.426 86.3119 258.413 86.0718L258.381 86.0213C258.216 86.0218 258.1 86.024 257.934 86.0397C257.037 86.1992 256.67 87.0261 257.645 87.2675Z" fill="white"/>
<path d="M235.629 81.9125C235.916 81.9233 236.335 81.9282 236.611 81.9588C236.598 82.5117 236.619 83.3631 236.544 83.8725C237.401 83.5314 238.091 83.3596 238.883 83.9983C238.94 84.1479 239.03 84.4124 239.041 84.5619C239.085 85.1589 239.144 87.5604 239.004 88H238.239C238.045 87.066 238.308 85.8891 238.143 84.9525C238 84.139 237.212 84.3404 236.673 84.4678C236.475 85.4473 236.714 86.8848 236.547 87.7925C236.423 87.9463 236.379 87.9217 236.162 88H235.862C235.731 87.8554 235.694 87.8379 235.674 87.6162C235.611 86.9199 235.64 86.1392 235.643 85.438C235.647 84.2629 235.642 83.0876 235.629 81.9125Z" fill="white"/>
<path d="M201.471 40.3402C202.178 39.1548 201.65 35.8291 201.82 34.3651C201.864 33.9839 202.322 34.1083 202.635 34.1361L202.631 37.7088C202.634 38.5282 202.682 39.4178 202.561 40.2189C202.45 40.9551 201.403 41.5232 200.727 41.5128C199.907 41.5002 199.331 40.8134 199 40.1385V37.4744C199.294 37.4724 199.617 37.4785 199.906 37.4478C199.879 38.0947 199.848 38.8461 199.902 39.4937C199.979 40.4226 200.614 40.9256 201.471 40.3402Z" fill="white"/>
<path d="M264.511 81.9044C264.81 81.9133 265.139 81.9315 265.435 81.9128C265.382 82.8215 265.381 84.5457 265.42 85.4705C265.591 85.2411 265.793 84.9796 265.958 84.7512C266.657 83.7816 266.8 83.5404 267.992 83.6153C267.451 84.1728 266.834 85.0793 266.327 85.5054C266.805 86.2532 267.43 86.7989 267.907 87.521C267.954 87.5922 267.947 87.8943 267.944 88H267.304C266.403 87.4898 266.14 86.6118 265.503 85.9614C265.347 86.1039 265.457 87.5703 265.346 88H264.579C264.473 87.4235 264.522 86.6097 264.509 86.0079C264.477 84.6744 264.559 83.2277 264.511 81.9044Z" fill="white"/>
<path d="M226.83 83.6069C227.266 83.5824 227.465 83.5886 227.9 83.6297C227.896 84.2506 227.941 87.7569 227.806 88H225.184C224.716 87.7093 224.41 87.3195 224.349 86.7606C224.238 85.7291 224.358 84.66 224.3 83.6201C224.663 83.6087 224.924 83.5968 225.287 83.6341C225.279 84.1552 225.282 84.7222 225.263 85.2384C225.215 86.5778 225.158 87.614 226.852 87.0398C226.869 86.31 226.9 84.2667 226.83 83.6069Z" fill="white"/>
<path d="M261.318 83.7831C262.199 83.5277 263.355 83.3089 263.65 84.5172C263.79 85.0882 263.988 87.6255 263.639 88H262.84C262.665 87.2155 263.001 84.8286 262.473 84.4068C262.034 84.3003 261.625 84.4059 261.182 84.4843C261.169 85.3595 261.27 87.002 261.146 87.7898C261.07 87.9217 260.96 87.942 260.812 88H260.404C260.093 87.6086 260.295 84.4002 260.214 83.6053C260.646 83.6232 260.908 83.6202 261.318 83.7831Z" fill="white"/>
<path d="M199 82.3659C199.992 82.4557 201.183 82.3273 202.216 82.4083C202.212 82.7038 202.202 83.0177 202.22 83.3112C201.515 83.3084 200.615 83.3269 199.919 83.2882C199.942 83.7661 199.964 84.2579 199.953 84.7365C200.56 84.6995 201.316 84.695 201.931 84.7111L201.946 85.5107C201.324 85.4811 200.475 85.5235 199.92 85.4753C199.946 86.0348 200.114 87.6107 199.76 88H199V82.3659Z" fill="white"/>
<path d="M207.315 84.0109C208.095 83.5047 208.513 83.5552 209.417 83.6007C209.787 83.6193 209.858 84.0174 209.792 84.3085C209.45 84.6787 208.119 83.9 207.99 84.7249C208.265 85.4137 210.511 85.5032 210.004 87.0786C209.875 87.4821 209.368 87.8149 209.001 88H207.679C207.06 87.7881 207.135 87.6715 207.086 87.0584C207.605 87.1471 208.449 87.3638 208.923 87.0846C209.096 86.9828 209.195 86.6501 209.014 86.5126C207.94 85.6974 206.589 85.8767 207.315 84.0109Z" fill="white"/>
<path d="M211.358 88C210.97 87.6989 210.809 87.5188 210.75 86.9987C210.659 86.2074 210.84 85.1816 210.736 84.4137C210.584 84.3007 210.504 84.3677 210.334 84.3128C210.085 84.2318 210.051 83.8545 210.182 83.6663C210.337 83.6269 210.622 83.6009 210.679 83.4547C210.846 83.0287 210.741 82.2561 211.482 82.5392C211.706 82.7784 211.663 82.8455 211.652 83.1974C211.648 83.3329 211.644 83.4684 211.638 83.6038C212.04 83.5973 212.529 83.5307 212.737 83.9705C212.659 84.4584 211.993 84.3442 211.634 84.3175C211.637 84.9078 211.596 86.5813 211.759 87.0392C212.021 87.2938 212.455 87.1958 212.791 87.1482C212.757 87.3803 212.713 87.8029 212.619 88H211.358Z" fill="white"/>
<path d="M204.483 83.6156C204.969 83.5882 205.038 83.5998 205.47 83.756C205.64 83.8174 206.603 83.5323 206.841 83.4771C206.872 83.7946 206.907 84.1072 206.91 84.4263C206.317 84.386 205.471 84.3344 205.427 85.1314C205.385 85.8689 205.642 87.1887 205.364 87.8379C205.237 87.9501 205.183 87.9567 205.025 88H204.739C204.701 87.9611 204.652 87.9113 204.593 87.8505C204.438 87.2899 204.517 86.3398 204.504 85.7971C204.485 85.0609 204.554 84.302 204.483 83.6156Z" fill="white"/>
<path d="M202.937 88C202.696 87.7438 202.764 86.4986 202.77 86.082C202.78 85.3112 202.709 84.4321 202.803 83.6788C202.836 83.5277 203.509 83.6042 203.75 83.6288C203.722 84.1963 203.773 87.6803 203.624 87.8801L203.387 88H202.937Z" fill="white"/>
<path d="M248.039 88C247.947 87.5034 247.933 84.2348 247.997 83.7126C248.204 83.5027 248.61 83.5889 248.893 83.6112C248.86 84.3816 248.934 87.5604 248.802 88H248.039Z" fill="white"/>
</svg>
