<svg width="300" height="120" viewBox="0 0 300 120" fill="none" xmlns="http://www.w3.org/2000/svg">
<path d="M46.3372 47.0058C46.895 47.0609 48.4236 47.0164 49.0358 47.0167L56.6913 47.0213C59.7512 47.0215 62.6162 46.7908 65.5129 48.2063C68.8098 49.8174 69.3918 53.6929 68.0176 56.9177C67.4554 58.2373 66.2546 59.1044 64.9442 59.5571C68.5379 61.3111 69.8148 64.6136 68.3056 68.4463C66.2499 72.6621 62.0097 72.9449 57.9991 72.9411L54.7691 72.9403C51.9892 72.9397 49.1128 72.8997 46.3396 72.9527L46.3372 47.0058ZM52.5351 66.8738L58.4047 66.8807C59.0539 66.8811 59.7173 66.8793 60.3656 66.881C61.2605 66.8834 61.6156 66.8385 62.3167 66.2133C63.3757 64.857 63.0567 63.1199 61.274 62.6104C60.7989 62.4746 59.7711 62.546 59.2449 62.5465L54.5701 62.5543C54.2487 62.555 52.7965 62.5855 52.5339 62.5498C52.4912 63.8409 52.5128 65.5711 52.5351 66.8738ZM52.5323 56.9013L58.5282 56.9012C59.1529 56.9018 59.7944 56.8981 60.4178 56.9013C61.3209 56.906 61.7085 56.9048 62.4044 56.2405C62.8188 55.6977 63.0551 55.2208 62.975 54.4887C62.9161 53.9432 62.6507 53.4442 62.237 53.1009C61.9839 52.8903 61.6814 52.7529 61.3603 52.7028C60.8743 52.6291 59.1323 52.6711 58.5377 52.6716L52.5188 52.677C52.5324 54.0648 52.4994 55.531 52.5323 56.9013Z" fill="white"/>
<path d="M71.916 47.0302L81.4095 47.0289C85.4117 47.0262 91.9357 46.395 93.7882 51.1778C94.1884 52.2114 94.2796 53.3922 94.1979 54.4988C94.022 56.8852 92.6817 58.6954 90.5413 59.5549C91.3928 59.9069 92.0808 60.3112 92.7361 60.9911C93.3504 61.6203 93.7852 62.4122 93.9933 63.2801C94.2296 64.257 94.1607 66.2609 94.1612 67.3544L94.1587 72.9638C92.8065 72.9324 91.4324 72.9724 90.0792 72.9633C89.6512 72.9604 88.5868 73.0055 88.2242 72.9512C88.135 72.8288 88.1613 72.6372 88.1638 72.4755C88.1672 70.4893 88.1687 68.502 88.1682 66.5156C88.1682 65.3636 87.9329 64.3365 87.1072 63.5049C86.6778 63.0711 86.1448 62.7633 85.5628 62.613C84.8683 62.4403 83.3125 62.4967 82.5339 62.4966C81.0375 62.492 79.5406 62.4968 78.0442 62.5109C78.0947 65.9615 78.0487 69.5355 78.0472 72.9975C76.0045 72.9858 73.9617 72.9866 71.919 72.9997C71.8724 70.1405 71.9165 67.1478 71.916 64.2798V47.0302ZM87.9027 56.284C88.7101 55.3862 88.83 54.136 87.9126 53.2623C87.6397 53.0044 87.3014 52.8325 86.9373 52.7668C86.5 52.6907 84.6043 52.7251 84.0892 52.7255L78.0308 52.7315C78.0403 54.0014 78.0833 55.6172 78.0328 56.8601L84.1595 56.8554C85.0581 56.8552 86.1413 56.8979 87.0339 56.7994C87.2484 56.7757 87.7353 56.4524 87.9027 56.284Z" fill="white"/>
<path d="M119.921 47.0212L119.968 47.0629C120.041 48.7246 119.968 50.9701 119.964 52.6771L104.104 52.684L104.125 56.8424L118.387 56.8357L118.384 62.5631C114.951 62.5018 111.467 62.5861 108.029 62.5524C106.742 62.5398 105.4 62.5883 104.121 62.548C104.138 64.0419 104.124 65.5661 104.124 67.0624L117.364 67.0639C118.234 67.0687 119.104 67.0637 119.974 67.0487L119.973 72.9969L97.9747 73C97.9252 70.1476 97.9722 67.1404 97.9722 64.2778L97.9727 47.0242L119.921 47.0212Z" fill="white"/>
<path d="M31.1339 47.0653C31.7162 46.9751 34.0608 47.0305 34.7751 47.0308L42.5959 47.0174C42.6201 48.9561 42.587 50.9899 42.5743 52.9327C40.9103 52.8366 39.0646 52.8555 37.3837 52.883C35.1039 52.9202 32.2126 52.7274 30.0147 53.2476C26.2866 54.13 24.335 57.7995 25.2647 61.605C25.5122 62.6409 26.0006 63.5984 26.6876 64.3939C28.9159 66.9435 31.7688 66.5898 34.7159 66.7354C35.6514 66.7815 42.3574 66.6635 42.5466 66.7801C42.6472 66.9621 42.6105 66.9764 42.6072 67.2185L42.5985 72.9546C40.4662 72.9068 38.2201 72.9454 36.0786 72.9414C31.4392 72.9327 26.9137 72.8786 23.1938 69.5641C20.769 67.4189 19.2739 64.3584 19.0415 61.0649C18.767 57.5641 19.8619 54.0958 22.0803 51.4387C24.6171 48.3976 27.4032 47.3505 31.1339 47.0653Z" fill="white"/>
<path d="M139.685 59.2203C139.788 58.9725 139.938 58.7474 140.128 58.5579L146.556 52.1298C146.745 51.94 146.971 51.7895 147.218 51.6868C147.466 51.5841 147.732 51.5312 148 51.5312C148.268 51.5312 148.534 51.5841 148.781 51.6868C149.029 51.7895 149.254 51.94 149.444 52.1298L155.872 58.5579C156.062 58.7474 156.212 58.9725 156.315 59.2203C156.418 59.468 156.47 59.7336 156.47 60.0018C156.47 60.27 156.418 60.5356 156.315 60.7834C156.212 61.0312 156.062 61.2563 155.872 61.4458L149.444 67.8739C149.254 68.0636 149.029 68.2142 148.781 68.3169C148.534 68.4196 148.268 68.4724 148 68.4724C147.732 68.4724 147.466 68.4196 147.218 68.3169C146.971 68.2142 146.745 68.0636 146.556 67.8739L140.128 61.4458C139.938 61.2563 139.788 61.0312 139.685 60.7834C139.582 60.5356 139.529 60.27 139.529 60.0018C139.529 59.7336 139.582 59.468 139.685 59.2203Z" stroke="#FAD06B" stroke-width="2.54097" stroke-linecap="round"/>
<path d="M201.389 41.491C202.613 41.4079 204.471 41.465 205.729 41.4653L213.951 41.4642L213.945 49.7823C213.946 51.0401 213.998 52.7407 213.918 53.9587C213.65 54.3756 212.462 55.4895 212.047 55.8973C210.597 57.3195 209.134 58.8389 207.632 60.1971C205.375 58.1901 202.834 55.5017 200.646 53.3627C198.98 51.7344 196.543 49.4422 195.008 47.737C194.617 48.1838 194.198 48.6248 193.776 49.0446C190.867 51.9524 187.893 54.799 184.996 57.7192C184.192 58.5294 183.235 59.3679 182.487 60.2037C182.842 60.6297 183.402 61.1165 183.815 61.5239L192.9 70.518C193.253 70.8649 194.618 72.2982 194.906 72.4816C195.126 72.5044 195.042 72.5191 195.243 72.41C196.423 70.998 198.555 69.0953 199.913 67.7469L204.285 63.4203C205.333 62.3772 206.498 61.1762 207.594 60.188L207.617 60.2044C208.025 60.4993 208.68 61.1722 209.062 61.5483L210.889 63.3328C211.446 63.8849 213.547 65.784 213.823 66.3599C214.075 66.8876 213.944 75.1609 213.944 76.3552C213.944 77.2141 213.87 78.1528 214.007 78.998C211.081 78.9716 208.155 78.9662 205.228 78.9815C203.983 78.982 202.652 79.0056 201.413 78.962C200.708 78.4136 199.479 77.1404 198.829 76.4882L194.983 72.6566C194.525 73.2163 193.995 73.7348 193.488 74.2506C192.709 75.0427 189.204 78.6075 188.635 78.8986C188.263 79.089 177.502 78.9753 176.023 78.9914C175.983 78.5659 176.017 77.8168 176.023 77.3765C176.029 76.5936 176.031 75.8107 176.028 75.0277L176.041 66.5624C176.316 66.0766 178.12 64.3281 178.621 63.8513C179.78 62.7475 181.191 61.1902 182.409 60.1924C181.683 59.626 180.058 57.9417 179.354 57.2399C178.415 56.3043 176.875 54.8797 176.052 53.9169C175.96 52.6359 176.016 50.2514 176.028 48.9186C176.05 46.4509 175.978 43.9088 176.009 41.4601C177.022 41.4764 178.039 41.4635 179.053 41.4669C182.046 41.4769 185.04 41.4512 188.032 41.4716C188.216 41.4729 188.735 41.5653 188.873 41.6629C189.37 42.0129 189.755 42.5391 190.199 42.9534C191.83 44.5121 193.394 46.1496 195.017 47.7161C196.441 46.3498 197.843 44.7687 199.309 43.4124C199.879 42.8856 200.777 41.8592 201.389 41.491Z" fill="white"/>
<path d="M257.641 45.8285C258.447 45.6876 259.252 45.5337 260.054 45.367C260.169 49.5802 260.071 54.0296 259.969 58.2541C259.929 59.944 259.33 61.4571 257.584 62.0351C254.931 62.9132 252.644 62.3633 250.161 61.2828C250.275 60.9902 250.388 60.6968 250.498 60.4025C250.54 60.2613 250.815 59.2079 250.994 59.2061C251.103 59.205 251.59 59.3839 251.731 59.4371C253.399 60.0707 254.737 60.4508 256.439 59.7147C257.258 58.6149 256.826 57.8097 257.027 56.6077C256.471 57.0594 255.821 57.4977 255.104 57.5783C249.408 58.2186 248.725 50.7299 251.086 47.1899C251.921 45.9383 253.124 45.6489 254.469 45.435C255.679 45.3432 256.601 45.9256 257.483 46.6487C257.52 46.3712 257.582 46.1022 257.641 45.8285ZM255.239 55.183C256.71 55.2548 256.958 53.9004 256.981 52.7446C257.008 51.3883 256.952 50.0222 256.985 48.6675C256.396 48.2487 255.931 47.9597 255.177 47.975C253.867 48.2157 253.358 49.1524 253.394 50.4116C253.444 52.1401 252.776 55.0328 255.239 55.183Z" fill="white"/>
<path d="M231.554 41.4522C231.605 41.4482 231.579 41.4472 231.638 41.4954C231.502 42.137 227.362 47.7367 226.693 48.8628C227.009 49.4561 227.581 50.201 227.973 50.8032L231.152 55.6789C231.355 55.9943 232.128 57.1582 232.204 57.4386C231.832 57.561 228.583 57.5265 228.091 57.4571C227.803 57.0642 227.172 55.8913 226.869 55.4032C225.613 53.3826 224.47 51.1733 223.23 49.1535C223.352 50.5251 223.29 52.7604 223.289 54.2L223.3 57.5011C222.913 57.5223 220.131 57.5638 219.934 57.4377C219.872 56.8968 219.915 56.3925 219.917 55.8495L219.918 46.0312C219.919 44.5511 219.949 42.955 219.888 41.4832C220.843 41.4097 222.301 41.4758 223.339 41.4468C223.257 41.9533 223.291 43.3521 223.289 43.9352C223.284 45.5593 223.305 47.1383 223.231 48.7659C223.996 47.688 227.217 41.9828 227.958 41.4725C229.153 41.4536 230.359 41.4915 231.554 41.4522Z" fill="white"/>
<path d="M265.232 41.1514C265.353 41.1397 265.384 41.1504 265.502 41.1772C265.602 41.6681 265.536 46.1374 265.396 46.7285C265.657 46.5726 265.911 46.3172 266.17 46.1259C266.894 45.597 267.83 45.3806 268.714 45.3706C270.374 45.3518 271.903 46.0222 272.135 47.8167C272.297 49.0666 272.243 50.3052 272.241 51.5616C272.234 53.5446 272.237 55.5275 272.251 57.5105C271.187 57.5247 270.192 57.4993 269.121 57.5447C269.06 54.9618 269.161 52.3171 269.099 49.7268C269.086 49.3987 269.078 48.477 268.812 48.2566C268.1 47.6677 266.79 48.0699 266.181 48.6609C265.513 49.3098 265.521 50.1431 265.522 51.0081C265.522 51.5055 265.519 52.0036 265.519 52.5011L265.532 57.4987C264.641 57.5577 263.168 57.5211 262.225 57.5294C262.2 56.4893 262.233 55.2704 262.233 54.2158L262.233 46.8916L262.229 43.7551C262.228 43.3159 262.199 42.1606 262.29 41.7783C262.687 41.4993 264.473 41.4046 265.232 41.1514Z" fill="white"/>
<path d="M241.082 66.8466C242.287 66.7677 243.586 66.7857 244.654 67.4383C245.22 67.7819 245.646 68.3117 245.86 68.9357C246.275 70.1685 245.931 72.9509 246.021 74.3382C246.109 75.7137 245.821 76.6681 247.26 77.5344C246.642 78.1941 246.019 78.8493 245.391 79.5C244.607 79.1046 244.206 78.7047 243.679 78.0341C242.927 78.8328 242.184 79.1748 241.076 79.2982C239.98 79.4201 238.548 79.1697 237.672 78.4604C237.583 78.3864 237.497 78.3085 237.415 78.227C236.667 77.4855 236.477 76.6301 236.471 75.6144C236.45 71.8417 239.934 71.5163 242.904 71.5402C242.875 71.1504 242.913 70.1822 242.736 69.9069C241.788 68.4329 238.811 70.0856 237.915 70.5704C237.523 69.8982 237.14 69.2207 236.767 68.5381C237.744 67.8125 239.887 66.861 241.082 66.8466ZM240.627 76.9079C241.518 77.2466 242.122 76.8507 242.882 76.4418C242.864 75.5836 242.817 74.4083 242.868 73.5762L242.385 73.6016C241.754 73.6596 240.681 73.7256 240.27 74.259C239.7 74.9971 239.738 76.4032 240.627 76.9079Z" fill="white"/>
<path d="M263.316 62.6607L263.503 62.6508L263.564 62.7122C263.49 65.7968 263.621 68.9786 263.53 72.047C264.03 71.4549 266.068 67.3352 266.716 67.1058C266.931 67.0297 270.066 67.054 270.285 67.1108C270.088 67.6451 267.03 71.4467 266.542 72.0459C266.947 72.4777 267.71 73.6692 268.075 74.2053C269.111 75.7269 270.305 77.3451 271.287 78.8955C271.047 78.8896 270.773 78.9073 270.531 78.917C269.559 78.8697 268.56 78.932 267.57 78.8908C267.132 78.32 266.726 77.5342 266.331 76.9181C265.361 75.4074 264.459 73.7169 263.503 72.218C263.572 72.902 263.538 73.7645 263.546 74.4577C263.564 75.9371 263.518 77.4382 263.571 78.9162C262.491 78.9014 261.445 78.8899 260.366 78.9438C260.334 73.7124 260.423 68.4132 260.341 63.191C261.106 63.035 262.718 62.8735 263.316 62.6607Z" fill="white"/>
<path d="M239.194 45.4338C240.565 45.3561 242.362 46.1835 242.459 47.7377C242.66 50.9816 242.494 54.2491 242.561 57.5016C241.538 57.5346 240.476 57.5026 239.423 57.5342C239.384 56.0415 239.602 49.4134 239.191 48.4658C239.129 48.3238 239.022 48.2342 238.877 48.1821C238.478 48.0389 237.852 48.1333 237.473 48.3133C236.92 48.576 236.59 49.0817 236.388 49.6348C236.134 52.0953 236.396 55.0195 236.297 57.5122C235.271 57.5513 234.127 57.5035 233.049 57.5358C232.983 53.6846 233.09 49.7672 233.027 45.8973C233.952 45.7974 234.871 45.6506 235.781 45.4574L235.908 47.0725C236.962 45.9071 237.662 45.6596 239.194 45.4338Z" fill="white"/>
<path d="M251.42 68.4864C251.502 68.3851 251.587 68.2867 251.676 68.1914C253.079 66.7083 255.668 66.3382 257.296 67.7343C258.012 68.399 258.08 69.6757 258.095 70.5806C258.144 73.3569 258.05 76.1451 258.123 78.9183C257.046 78.9046 255.969 78.9019 254.893 78.9103C254.913 76.4566 254.918 74.0028 254.909 71.5491C254.895 70.9237 254.944 70.2288 254.568 69.6902C254.457 69.5307 253.965 69.5164 253.778 69.5226C253.241 69.5361 252.732 69.7644 252.366 70.156C251.536 71.0525 251.783 73.5353 251.762 74.7498C251.739 76.0874 251.741 77.5907 251.793 78.929C251.257 78.8428 248.812 79.0526 248.596 78.7471C248.532 78.3351 248.574 77.7812 248.578 77.3501L248.586 75.0307L248.579 70.0555C248.578 69.4163 248.539 67.938 248.646 67.4041C248.821 67.2182 250.782 66.9356 251.137 66.8978L251.259 66.8976C251.433 67.1065 251.414 68.179 251.42 68.4864Z" fill="white"/>
<path d="M219.862 62.8845C222.695 62.7879 225.841 62.8987 228.718 62.8631C228.636 63.719 228.426 64.6047 228.333 65.4735C226.688 65.3762 224.811 65.4847 223.134 65.4432C223.184 66.4692 223.161 68.1658 223.139 69.2027C224.447 69.1532 225.979 69.1881 227.297 69.1903C227.219 69.8237 227.263 71.1455 227.279 71.802C226.675 71.7775 225.954 71.7928 225.34 71.7897C224.607 71.7958 223.865 71.8098 223.133 71.7788C223.226 74.0945 223.071 76.5711 223.174 78.9155C222.265 78.8532 220.785 78.9057 219.846 78.9114C219.8 77.9971 219.863 76.3445 219.863 75.3755L219.863 67.5051L219.859 64.3604C219.856 64.043 219.797 63.1412 219.862 62.8845Z" fill="white"/>
<path d="M277.904 42.3994L278.07 42.4125C278.207 42.6345 278.162 45.3279 278.108 45.7181C278.951 45.6612 280.058 45.6937 280.917 45.6972C280.71 46.1973 280.272 47.3157 280.16 47.813C279.513 47.862 278.775 47.8549 278.128 47.8355C278.223 49.3338 277.876 54.1289 278.39 55.1706C278.483 55.3568 278.588 55.4738 278.789 55.5368C279.312 55.7 280.049 55.5649 280.529 55.3227C280.781 55.9967 280.865 56.5307 281 57.2358C280.589 57.3739 280.131 57.5433 279.708 57.6168C279.127 57.7338 278.78 57.8066 278.175 57.7801C274.073 57.603 275.038 53.9314 274.936 51.0656C274.9 50.0664 274.876 48.8177 274.931 47.8339C274.518 47.8289 274.169 47.8428 273.757 47.8648C273.772 47.1401 273.767 46.4152 273.744 45.6907L274.967 45.6964C274.909 45.2374 274.707 42.9496 275.302 42.8312C276.108 42.6708 277.083 42.6787 277.879 42.4084L277.904 42.3994Z" fill="white"/>
<path d="M234.491 66.7854C235.064 66.7447 235.461 66.8049 235.992 67.0013C235.716 67.8415 235.564 68.7646 235.189 69.5599C235.107 69.7343 234.749 69.663 234.577 69.6362C234.071 69.5573 233.73 69.5925 233.228 69.6827C232.582 70.1779 232.306 70.7504 232.298 71.5576C232.276 73.9721 232.207 76.4979 232.295 78.9079C231.28 78.8916 230.266 78.8993 229.251 78.9309C229.187 78.9322 229.165 78.9094 229.112 78.8731C229.042 78.3411 229.088 76.073 229.088 75.3987C229.103 72.7125 229.096 70.0263 229.066 67.3402C229.925 67.2853 230.879 67.1382 231.751 67.0452C231.785 67.4875 231.901 68.1609 231.966 68.6168C232.006 68.5513 232.047 68.4864 232.09 68.4221C232.66 67.5568 233.476 66.9948 234.491 66.7854Z" fill="white"/>
<path d="M247.691 45.431C247.79 45.4168 247.868 45.4169 247.967 45.4148C248.07 45.576 247.994 56.2046 248.025 57.4974L245.161 57.5275C245.024 57.5428 244.984 57.5544 244.855 57.4938C244.762 57.3147 244.811 46.9934 244.818 45.881C245.87 45.7465 246.645 45.6419 247.691 45.431Z" fill="white"/>
<path d="M246.038 40.541C246.729 40.3978 247.443 40.6358 247.908 41.1637C248.372 41.6917 248.515 42.4278 248.281 43.09C248.048 43.7522 247.474 44.2379 246.78 44.361C245.728 44.5475 244.721 43.8588 244.518 42.8147C244.315 41.7706 244.993 40.7579 246.038 40.541Z" fill="white"/>
</svg>
