<svg width="279.68" height="76.48" viewBox="10.4 21.92 279.68 76.48" fill="none" xmlns="http://www.w3.org/2000/svg">
<path d="M14.7183 48.0952L19.9762 48.0886C23.7823 48.0859 27.419 48.0076 30.5107 50.7636C32.476 52.5156 33.5369 55.3683 33.6457 57.9784C33.8262 62.3082 33.3659 65.3139 30.46 68.5866C26.9423 71.6111 24.4051 71.6291 20.0467 71.6287L14.5443 71.6245L14.5415 53.9168C14.5416 53.0839 14.4228 48.7465 14.5868 48.1504L14.7183 48.0952ZM20.6778 66.3371C22.4926 66.3611 24.2559 66.5025 25.6677 65.1078C25.778 64.9979 25.886 64.8854 25.9913 64.7706C27.8338 62.4761 28.0083 56.2233 25.525 54.2051C24.0408 52.9988 22.3852 53.3579 20.6869 53.233C20.6315 57.5705 20.6761 61.9933 20.6778 66.3371Z" fill="white"/>
<path d="M69.8849 53.7752C75.0562 53.4926 78.4343 56.9282 78.6919 62.0461C78.9616 67.4178 76.5903 71.5568 70.9783 71.9235C68.6782 72.0125 66.5767 71.605 64.7627 70.0437C61.1497 66.9343 60.9873 59.8574 63.9746 56.2853C65.507 54.4531 67.6071 53.9397 69.8849 53.7752ZM70.9555 67.3506C71.6917 67.017 72.0668 66.7562 72.3344 65.9406C72.9695 64.0048 73.0191 61.5118 72.2915 59.597C71.8655 58.4759 70.9256 58.2787 69.8855 58.342C67.5062 58.7432 67.7018 62.9071 67.9577 64.7196C68.2385 66.7078 68.9946 67.4808 70.9555 67.3506Z" fill="white"/>
<path d="M43.2293 53.7751C43.3311 53.7663 43.4334 53.7623 43.5357 53.7632C45.812 53.7666 47.9535 54.1923 49.6262 55.8781C51.891 58.1609 51.6719 61.4691 51.6599 64.4727C50.7364 64.5403 49.2553 64.492 48.2664 64.4914C45.933 64.48 43.5996 64.4855 41.2663 64.508C41.3064 64.7976 41.3662 65.2405 41.4625 65.5121C41.719 66.2516 42.2591 66.8554 42.9608 67.187C44.8252 68.077 47.7656 67.3539 49.6145 66.691C49.7589 67.3631 49.9608 67.9238 50.0839 68.6457C50.2481 69.3168 50.3816 70.0087 50.5199 70.6867C48.7465 71.4942 47.9995 71.6798 46.0727 71.8831C40.6761 72.4525 35.9092 70.3069 35.4561 64.273C35.289 61.4641 35.5255 58.4811 37.4166 56.2574C39.0072 54.3872 40.9286 53.9387 43.2293 53.7751ZM41.3793 60.6391L44.3698 60.6474L46.3668 60.6479C46.1255 58.77 45.4764 57.8261 43.4839 57.963C42.0103 58.237 41.5359 59.2443 41.3793 60.6391Z" fill="white"/>
<path d="M123.955 53.775C124.149 53.7672 124.343 53.7635 124.537 53.7638C126.654 53.7729 128.819 54.3015 130.343 55.8708C132.685 58.2831 132.362 61.3909 132.349 64.4789C131.224 64.5431 129.578 64.4907 128.422 64.4905C126.268 64.5096 124.113 64.5107 121.959 64.4937C122.473 68.8396 127.563 67.6512 130.357 66.6922C130.524 67.3735 130.655 68.0221 130.834 68.7172C130.957 69.3576 131.122 70.0181 131.271 70.6548C129.578 71.5108 128.677 71.6795 126.857 71.8782C120.528 72.5688 115.94 69.5718 116.106 62.7332C116.191 59.2209 117.199 55.9154 120.664 54.4317C121.831 53.9393 122.699 53.8651 123.955 53.775ZM122.086 60.6307C123.067 60.6507 124.048 60.6563 125.029 60.6473L127.05 60.6471C126.967 58.8213 126.14 57.856 124.287 57.9565C124.263 57.9578 124.239 57.9592 124.215 57.9609C122.66 58.231 122.373 59.2481 122.086 60.6307Z" fill="white"/>
<path d="M110.068 48.6044C110.189 48.5891 110.277 48.6015 110.397 48.6121C110.482 48.7516 110.447 53.4633 110.446 54.0431L114.125 54.0679C114.157 55.424 114.178 57.3082 114.108 58.6431L110.45 58.65C110.445 58.8506 110.428 59.2606 110.446 59.4478C110.618 61.2799 110.1 64.9494 110.676 66.5865C111.788 67.5314 113.577 66.9488 114.812 66.5243C114.833 67.9994 114.833 69.4747 114.813 70.9498C113.835 71.4504 112.7 71.7117 111.623 71.8742C109.833 72.0363 107.343 72.0123 106.003 70.6104C104.243 68.7702 104.53 65.5506 104.53 63.1802L104.534 58.651C103.865 58.6531 103.196 58.6423 102.528 58.6188C102.476 57.2468 102.495 55.4428 102.532 54.0671C103.177 54.0502 103.881 54.0604 104.53 54.0584L104.539 49.5159C105.563 49.3029 106.675 49.2082 107.712 49.0048C108.481 48.8539 109.293 48.7137 110.068 48.6044Z" fill="white"/>
<path d="M96.6876 48.6017L96.9433 48.5949L97.0064 48.6581C97.1122 49.983 97.0281 52.617 97.0313 54.0414C98.2223 54.0768 99.497 54.062 100.696 54.0682C100.708 55.5676 100.724 57.1448 100.684 58.6391L97.0402 58.6546C96.9771 59.6902 96.9082 65.5476 97.1639 66.2522C97.2818 66.5766 97.4891 66.8512 97.8053 66.9957C98.6585 67.3858 100.491 66.8729 101.343 66.539C101.351 68.0137 101.35 69.4885 101.34 70.9632C100.479 71.4295 99.0659 71.7819 98.1057 71.8798C97.6995 71.9096 97.2927 71.9295 96.8852 71.9396C90.889 72.033 91.1045 67.8927 91.1109 63.1644C91.1198 61.6601 91.1179 60.1557 91.1058 58.6514C90.4414 58.652 89.777 58.6409 89.1132 58.6182C89.0813 57.1409 89.0973 55.5441 89.1164 54.0671C89.7534 54.0493 90.4561 54.0606 91.0988 54.0591C91.1402 52.6062 91.1052 51.0642 91.1262 49.5948C91.4144 49.5214 91.7269 49.4639 92.0214 49.4222C93.5772 49.2019 95.1382 48.8246 96.6876 48.6017Z" fill="white"/>
<path d="M53.8803 48L59.6559 48.0004C59.7147 51.3954 59.668 54.9293 59.6682 58.3334L59.6575 71.6203L53.8608 71.6224L53.8596 55.5567C53.8594 53.1119 53.8073 50.4288 53.8803 48Z" fill="white"/>
<path d="M81.0262 54.0649C82.9193 54.0298 84.9062 54.054 86.8038 54.0674C86.8388 56.7929 86.8089 59.5688 86.8108 62.3009C86.8127 65.3993 86.8363 68.5298 86.798 71.6238L81.0154 71.6207C81.0734 69.9476 81.018 67.9535 81.018 66.2502L81.0262 54.0649Z" fill="white"/>
<path d="M136.672 65.176C138.518 64.9297 140.215 66.2396 140.468 68.1073C140.721 69.9751 139.436 71.6989 137.592 71.9652C135.734 72.2335 134.015 70.9208 133.76 69.0389C133.505 67.157 134.811 65.4241 136.672 65.176Z" fill="#87BE26"/>
<path d="M81.0231 48.0007L86.8057 48.0032C86.8146 49.3272 86.8127 50.6512 86.7999 51.9752L81.0173 51.9705L81.0231 48.0007Z" fill="white"/>
<path d="M160.185 59.2203C160.288 58.9725 160.438 58.7474 160.628 58.5579L167.056 52.1298C167.245 51.94 167.471 51.7895 167.718 51.6868C167.966 51.5841 168.232 51.5312 168.5 51.5312C168.768 51.5312 169.034 51.5841 169.281 51.6868C169.529 51.7895 169.754 51.94 169.944 52.1298L176.372 58.5579C176.562 58.7474 176.712 58.9725 176.815 59.2203C176.918 59.468 176.97 59.7336 176.97 60.0018C176.97 60.27 176.918 60.5356 176.815 60.7834C176.712 61.0312 176.562 61.2563 176.372 61.4458L169.944 67.8739C169.754 68.0636 169.529 68.2142 169.281 68.3169C169.034 68.4196 168.768 68.4724 168.5 68.4724C168.232 68.4724 167.966 68.4196 167.718 68.3169C167.471 68.2142 167.245 68.0636 167.056 67.8739L160.628 61.4458C160.438 61.2563 160.288 61.0312 160.185 60.7834C160.082 60.5356 160.029 60.27 160.029 60.0018C160.029 59.7336 160.082 59.468 160.185 59.2203Z" stroke="#FAD06B" stroke-width="2.54097" stroke-linecap="round"/>
<path d="M242.805 68.9881C243.608 68.9423 244.453 69.1464 245.07 69.6777C246.776 71.146 246.159 73.3229 245.032 74.8875C243.018 77.6823 240.868 80.3056 238.794 83.0506C237.933 84.1906 237.058 85.3383 236.155 86.435C234.911 86.6215 232.832 86.3848 231.489 86.5047L231.494 79.7081C231.495 78.5698 231.542 76.9911 231.459 75.8814C230.032 78.199 228.622 80.528 227.232 82.8681C226.627 83.8757 225.689 85.5602 225.031 86.4509C223.95 86.5808 222.059 86.4391 220.87 86.4905C220.96 85.5484 220.89 83.2329 220.89 82.1976L220.89 73.5026L220.894 72.7961C219.68 72.6917 218.723 72.6187 217.514 72.4462C217.514 71.9331 217.512 71.42 217.506 70.9069C219.449 70.3839 221.693 69.916 223.676 69.5509C224.177 69.4587 225.303 69.5257 225.849 69.531L225.856 76.7783C225.855 77.8109 225.805 79.646 225.91 80.6139C226.226 79.8521 227.741 77.4063 228.238 76.6211C229.668 74.3606 231.064 71.7239 232.548 69.5391C233.848 69.4907 235.219 69.5412 236.532 69.5245L236.541 77.7012C236.541 79.1446 236.588 80.9196 236.514 82.3424C237.201 81.5375 237.91 80.5054 238.55 79.6391C239.265 78.67 240.056 77.6458 240.729 76.6553C240.778 75.5677 240.584 70.4568 240.903 69.9559C241.279 69.3666 242.163 69.1367 242.805 68.9881Z" fill="white"/>
<path d="M262.192 85.0785C256.692 87.7118 248.914 87.867 246.638 80.9414C245.883 78.6446 246.059 76.141 247.129 73.9743C248.3 71.6606 249.895 70.3541 252.378 69.5404C254.901 68.7559 257.751 68.6961 260.156 69.8856C261.964 70.78 263.291 72.8709 262.221 74.8337C261.872 75.4791 261.28 75.9561 260.577 76.1568C259.278 76.5318 257.915 76.1115 256.777 75.471C256.689 74.7339 256.739 71.697 256.763 70.8551C254.965 71.3921 253.712 71.9618 252.983 73.8888C251.824 76.9534 252.243 81.8688 255.704 83.2611C257.68 84.0562 259.695 83.1389 261.48 82.322C261.831 82.3459 261.92 82.3486 262.264 82.2892C262.425 82.5539 262.368 84.6799 262.192 85.0785Z" fill="white"/>
<path d="M261.48 82.322C261.876 82.1212 262.328 81.9238 262.703 81.7003C262.717 82.5534 262.75 83.4168 262.732 84.268C262.721 84.7276 262.605 84.9203 262.192 85.0785C262.368 84.6799 262.425 82.5539 262.264 82.2892C261.92 82.3486 261.831 82.3459 261.48 82.322Z" fill="black" fill-opacity="0.976471"/>
<path d="M253.099 26H269.734C269.711 26.8528 269.764 28.2721 269.675 29.0394L269.703 29.2616C270.385 29.1438 272.169 29.2072 273.02 29.1493C272.943 30.8542 273.001 32.6366 272.961 34.3478L272.998 34.3727C274.804 34.3593 276.609 34.3559 278.415 34.3625C279.391 34.3592 280.469 34.3074 281.425 34.3223C281.457 37.3783 281.368 40.4887 281.405 43.5494C281.419 44.6276 281.365 45.7899 281.399 46.8521C280.661 46.9406 279.175 46.9013 278.386 46.9005L272.98 46.8926L272.942 46.9044C271.98 46.8567 270.684 46.8955 269.695 46.8948L269.656 46.9057C267.762 46.828 265.41 46.8952 263.47 46.8921L263.44 46.9036C260.005 46.857 256.502 46.9553 253.077 46.887L253.08 42.4808L253.085 34.2585L253.097 27.089L253.099 26Z" fill="#D9550A"/>
<path d="M253.099 26H269.734C269.711 26.8528 269.764 28.2721 269.675 29.0394L269.703 29.2616C270.385 29.1438 272.169 29.2072 273.02 29.1493C272.943 30.8542 273.001 32.6366 272.961 34.3478C272.625 34.3899 269.977 34.4215 269.661 34.3393L269.651 34.379C265.229 34.3783 257.846 34.403 253.211 34.3622C253.162 34.3217 253.12 34.2872 253.085 34.2585L253.097 27.089L253.099 26Z" fill="#E3721D"/>
<path d="M253.099 26H269.734C269.711 26.8528 269.764 28.2721 269.675 29.0394L269.645 29.1869C269.62 29.2096 269.595 29.2322 269.57 29.2549C264.95 29.3535 257.487 29.2805 253.17 29.3119C253.156 28.7989 253.22 27.5161 253.097 27.089L253.099 26Z" fill="#EC9629"/>
<path d="M269.703 29.2616C270.385 29.1438 272.169 29.2072 273.02 29.1493C272.943 30.8542 273.001 32.6366 272.961 34.3478C272.625 34.3899 269.977 34.4215 269.661 34.3393C269.695 33.2398 269.623 32.0376 269.648 30.9299C269.66 30.4501 269.623 29.7155 269.703 29.2616Z" fill="#F4BC88"/>
<path d="M272.961 34.3478L272.998 34.3727C274.804 34.3593 276.609 34.3559 278.415 34.3625C279.391 34.3592 280.469 34.3074 281.425 34.3223C281.457 37.3783 281.368 40.4887 281.405 43.5494C281.419 44.6276 281.365 45.7899 281.399 46.8521C280.661 46.9406 279.175 46.9013 278.386 46.9005L272.98 46.8926L272.942 46.9044C271.98 46.8567 270.684 46.8955 269.695 46.8948C269.608 46.1327 269.663 43.8089 269.664 42.9201C269.675 40.0731 269.671 37.226 269.651 34.379L269.661 34.3393C269.977 34.4215 272.625 34.3899 272.961 34.3478Z" fill="#F3BE27"/>
<path d="M272.961 34.3478L272.998 34.3727C272.905 35.1566 272.943 36.5402 272.943 37.366L272.94 42.6231C272.94 43.2187 272.914 46.6142 272.98 46.8926L272.942 46.9044C271.98 46.8567 270.684 46.8955 269.695 46.8948C269.608 46.1327 269.663 43.8089 269.664 42.9201C269.675 40.0731 269.671 37.226 269.651 34.379L269.661 34.3393C269.977 34.4215 272.625 34.3899 272.961 34.3478Z" fill="#EC9629"/>
<path d="M253.08 42.4808L253.214 42.6737C253.495 42.7167 254.216 42.6922 254.534 42.6903L261.058 42.6837C261.786 42.6828 262.749 42.7082 263.452 42.6591C263.441 43.2071 263.387 46.5248 263.47 46.8921L263.44 46.9036C260.005 46.857 256.502 46.9553 253.077 46.887L253.08 42.4808Z" fill="#C84105"/>
<path d="M196.5 71.1182C197.741 70.7222 199.023 70.3711 200.256 69.9734C202.043 69.3969 202.931 69.0131 204.818 69.1484C204.823 69.7773 204.856 70.7084 204.823 71.3118C206.883 70.2583 208.287 69.0835 210.735 69.2017C216.162 69.4637 217.985 76.0877 216.484 80.5259C214.706 85.7845 209.788 86.9562 204.835 86.3524C204.817 88.0453 204.778 90.0747 204.836 91.7493C205.745 91.9689 206.698 92.2038 207.611 92.3986C207.593 92.7864 207.587 93.6724 207.522 94H196.817C196.712 93.5809 196.733 92.8318 196.729 92.3726C197.5 92.1737 198.348 91.9317 199.132 91.8372C199.288 90.1337 199.175 87.3977 199.193 85.6151C199.235 81.3423 199.143 77.0275 199.199 72.7528L196.5 72.7422V71.1182ZM204.835 73.0489L204.827 80.5919C204.828 81.5446 204.883 83.3775 204.807 84.2901C206.178 84.3361 207.827 84.3062 208.968 83.3684C210.383 82.1572 210.959 80.5221 211.028 78.6948C211.161 75.2036 209.987 72.5278 206.11 72.7727C205.624 72.828 205.305 72.8785 204.835 73.0489Z" fill="white"/>
<path d="M253.077 46.887C256.502 46.9553 260.005 46.857 263.44 46.9036L263.47 46.8921C265.41 46.8952 267.762 46.828 269.656 46.9057L269.695 46.8948C270.684 46.8955 271.98 46.8567 272.942 46.9044C272.956 49.6695 272.954 52.4348 272.937 55.1999L273.297 55.2317C272.883 55.2804 271.77 55.2602 271.313 55.2645L266.811 55.2784L253.197 55.2738C253.281 56.5746 253.196 58.0929 253.234 59.4343C248.928 59.3376 244.582 59.4562 240.271 59.4097C239.081 59.3969 237.659 59.3622 236.485 59.4832C236.475 58.0212 236.498 56.5812 236.449 55.1185C237.049 55.1757 238.042 55.1492 238.673 55.1498L242.592 55.1509C246.007 55.1512 249.735 55.2281 253.114 55.1042C253.015 52.4666 253.074 49.5504 253.077 46.887Z" fill="#AF1B00"/>
<path d="M269.695 46.8948C270.684 46.8955 271.98 46.8567 272.942 46.9044C272.956 49.6695 272.954 52.4348 272.937 55.1999L269.664 55.2158C267.918 55.1172 265.266 55.2059 263.44 55.2208C263.485 53.3284 263.453 51.3602 263.471 49.4624C263.475 49.0061 263.485 47.2865 263.44 46.9036L263.47 46.8921C265.41 46.8952 267.762 46.828 269.656 46.9057L269.695 46.8948Z" fill="#C32301"/>
<path d="M269.695 46.8948C270.684 46.8955 271.98 46.8567 272.942 46.9044C272.956 49.6695 272.954 52.4348 272.937 55.1999L269.664 55.2158C269.623 54.6737 269.683 53.1324 269.687 52.5054C269.706 50.6388 269.696 48.772 269.656 46.9057L269.695 46.8948Z" fill="#C84105"/>
<path d="M281.399 46.8521L281.423 46.8832C282.771 46.8416 284.122 46.9221 285.5 46.8486V55.2123C284.183 55.2033 282.688 55.1643 281.385 55.2318L273.297 55.2317L272.937 55.1999C272.954 52.4348 272.956 49.6695 272.942 46.9044L272.98 46.8926L278.386 46.9005C279.175 46.9013 280.661 46.9406 281.399 46.8521Z" fill="#D9550A"/>
<path d="M285.5 46.8486V55.2123C284.183 55.2033 282.688 55.1643 281.385 55.2318C281.285 54.1707 281.379 52.0771 281.351 50.9513C281.334 50.2076 281.316 47.508 281.423 46.8832C282.771 46.8416 284.122 46.9221 285.5 46.8486Z" fill="#E669A2"/>
</svg>
