<svg width="300" height="120" viewBox="0 0 300 120" fill="none" xmlns="http://www.w3.org/2000/svg">
<path d="M38.5 31.5H50.6266H51.4705H66.8926H67.6738H83.0301H83.5525H95.5V41.6191V42.815V61.2973V63.2037V88.5H38.5V66.2725V61.3977V42.1786V41.9104V31.5Z" fill="#FEFEFE"/>
<path d="M95.5 63.2037V88.5H38.5V66.2725C40.5477 66.2655 42.7719 66.5419 44.8138 66.747C52.9208 67.5739 60.9371 69.1281 68.7657 71.3908C70.9658 72.0357 73.1498 72.7332 75.3162 73.483C76.2255 73.7991 77.1325 74.1434 78.0351 74.4782C78.2739 74.5667 78.5105 74.6697 78.7604 74.7215L78.9583 74.4791C78.4173 74.13 77.8848 73.741 77.3418 73.3967C76.7585 73.0271 76.1345 72.6605 75.5316 72.3221C74.8436 71.9372 74.1514 71.5598 73.4551 71.1896C72.9023 70.8971 72.3248 70.6115 71.798 70.2773C72.3827 70.0095 73.2998 69.7195 73.916 69.5041C75.2594 69.0293 76.6085 68.5692 77.9619 68.1236C81.6221 66.8893 85.3143 65.752 89.0346 64.7131C91.1913 64.1258 93.2924 63.5745 95.5 63.2037Z" fill="#151515"/>
<path d="M82.4515 76.4549C83.8837 76.4156 87.1994 76.2489 88.2161 77.3402C89.8392 79.0825 88.4379 81.4577 86.1017 81.4296C86.6029 81.8779 87.0691 82.4193 87.562 82.8832C88.5793 83.8406 89.552 84.8351 90.5721 85.7917C89.9851 85.7967 89.3981 85.7986 88.8114 85.7975L88.6113 85.6013C88.3658 85.3572 88.0547 85.0995 87.7953 84.856C87.3221 84.4031 86.8607 83.9381 86.4117 83.4613C86.206 83.2411 86.0196 83.0182 85.8192 82.7953C85.3316 82.2523 84.9781 81.5924 84.2244 81.4042C84.2005 81.8674 84.2063 82.4387 84.2108 82.9133C84.2202 83.9166 84.1292 84.8128 84.4446 85.78C83.8634 85.8223 83.0441 85.7978 82.4476 85.797C82.6636 84.9225 82.648 84.424 82.6486 83.5345L82.6488 79.1429C82.6486 78.1674 82.7159 77.4009 82.4515 76.4549Z" fill="#FEFEFE"/>
<path d="M84.3135 77.0082C85.2478 77.0015 86.2175 77.0029 86.9603 77.6611C87.7644 78.3739 87.7429 79.7251 87.043 80.4963C86.2481 81.1994 85.3658 81.0243 84.3124 81.0176L84.3135 77.0082Z" fill="#151515"/>
<path d="M60.9068 76.5425C61.0018 76.5417 61.0231 76.5456 61.1139 76.5595C61.262 76.6847 61.282 77.2567 61.3119 77.4816C61.3997 78.1117 61.4809 78.7426 61.5552 79.3744C61.6988 80.5617 61.8737 81.7452 62.0263 82.9316C62.1123 83.6005 62.1882 84.2985 62.3049 84.9628C62.3511 85.2261 62.5394 85.6378 62.6502 85.8924C62.5198 85.8657 62.3895 85.8496 62.2565 85.8487C61.7178 85.8445 61.1807 85.8117 60.6428 85.7853C60.8762 85.1187 60.5698 83.6004 60.4779 82.8451L60.2629 81.2024C60.2039 80.7273 60.1647 80.2083 60.0444 79.7471C59.9426 79.9564 59.8109 80.1955 59.6956 80.3987C58.7081 82.1365 57.8549 84.102 56.8323 85.8039C56.6427 85.805 56.5105 85.8 56.3215 85.7844C55.2284 83.7129 54.0526 81.5584 52.9999 79.4752C52.9118 79.8214 52.8727 80.3433 52.81 80.7282C52.667 81.6689 52.5318 82.6107 52.4045 83.5537C52.3041 84.2681 52.0784 85.208 52.3115 85.8891C51.9375 85.896 51.5633 85.8955 51.1893 85.8874C51.5214 85.2231 51.6846 83.262 51.7892 82.4399L52.3078 78.4668C52.383 77.8835 52.4496 77.1181 52.5423 76.5598C52.7304 76.55 52.9231 76.5556 53.1117 76.5576C53.2202 76.8648 53.7443 77.7847 53.9304 78.134L55.9832 81.9968C56.2083 82.4198 56.8305 83.5239 56.9788 83.9258C57.666 82.4702 58.5656 80.8537 59.3044 79.4064L60.2463 77.5651C60.4029 77.2581 60.563 76.9283 60.7384 76.631C60.785 76.552 60.8197 76.562 60.9068 76.5425Z" fill="#FEFEFE"/>
<path d="M67.496 76.4529C67.5578 76.4498 67.6195 76.4476 67.6813 76.4465C67.8642 76.444 67.9204 76.4665 68.0003 76.6372C68.1854 77.0318 68.3627 77.4337 68.5413 77.8309L70.5592 82.3171C70.9449 83.1824 71.3298 84.1223 71.7776 84.9545C71.9213 85.2217 72.3176 85.5737 72.5458 85.7925C71.8464 85.8 71.0304 85.8128 70.3396 85.7894C69.9883 85.0054 69.6702 84.1961 69.3134 83.4131C69.1642 83.0861 69.012 82.7357 68.8929 82.3981C68.6908 82.3739 68.4192 82.3817 68.2107 82.3817L65.7147 82.3789C65.3911 83.4015 64.6691 84.7238 64.2747 85.8014L63.1658 85.7956C63.9982 84.702 64.6669 82.9241 65.2312 81.6244L67.496 76.4529Z" fill="#FEFEFE"/>
<path d="M67.2318 78.9119C67.3334 79.0098 68.3574 81.3166 68.5194 81.6664C68.1612 81.6753 67.7907 81.6722 67.4314 81.6734L66.0871 81.6739C66.4576 80.8211 66.9084 79.7761 67.2318 78.9119Z" fill="#151515"/>
<path d="M77.1478 76.4512C77.2995 76.4471 77.4587 76.4487 77.611 76.4485C77.8603 76.9458 78.1523 77.6644 78.3933 78.1949L80.3744 82.5979L80.9767 83.9483C81.4036 84.9158 81.4546 85.0881 82.2606 85.7931L80.0404 85.7978C79.7351 85.0792 79.4245 84.3628 79.108 83.6489C78.9349 83.2514 78.7212 82.788 78.5837 82.3839L78.0176 82.3817L75.4409 82.3825C75.1598 82.9547 74.8879 83.6428 74.6343 84.2328C74.4139 84.746 74.1595 85.2882 73.9541 85.7997L72.8639 85.7956C73.0807 85.5128 73.4754 84.8935 73.6249 84.574C74.2166 83.3082 74.7479 81.9996 75.3145 80.7223L76.5982 77.7964C76.7178 77.5205 77.0913 76.7087 77.1478 76.4512Z" fill="#FEFEFE"/>
<path d="M76.9179 78.9113C77.103 79.0875 77.9614 81.2283 78.2263 81.6528C77.7947 81.6789 77.3616 81.6739 76.9291 81.6731C76.506 81.6742 76.083 81.6728 75.6602 81.6692C75.8948 81.2267 76.1161 80.7115 76.3232 80.2511C76.5108 79.8342 76.7624 79.3338 76.9179 78.9113Z" fill="#151515"/>
<path d="M43.9062 76.4529L50.2463 76.454L50.243 77.3366C49.3575 76.9272 48.9615 77.0056 48.0208 77.0079L45.68 77.0082L45.6775 80.6695C47.0792 80.6745 48.4838 80.6592 49.8851 80.6756C49.8234 80.8854 49.7391 81.1189 49.6688 81.3285C48.3855 81.2976 46.9729 81.3243 45.6799 81.323L45.6778 84.9848L48.3873 84.9854C48.8829 84.9859 49.3731 85.0196 49.8588 85.0146C50.007 85.0132 50.5284 84.9016 50.6976 84.8682C50.682 85.1577 50.635 85.51 50.5909 85.7942C50.3025 85.7989 50.0102 85.7986 49.7216 85.797C47.7865 85.7844 45.8465 85.8181 43.9118 85.7942C44.1072 84.9623 44.133 84.3422 44.1158 83.4886C44.1025 82.8295 44.1167 82.1487 44.1168 81.4877L44.1164 79.1991C44.1158 78.1443 44.1805 77.4819 43.9062 76.4529Z" fill="#FEFEFE"/>
<path d="M38.5 31.5H50.6266C50.8746 32.2824 51.1605 33.0737 51.4271 33.8517L60.3365 59.6607C60.636 60.5522 60.9434 61.4411 61.2585 62.3273C61.3911 62.7089 61.5554 63.2569 61.7081 63.6165C59.745 61.8425 57.7642 59.9318 55.8294 58.1179L39.4049 42.7515C39.136 42.4972 38.7809 42.1421 38.5 41.9104V31.5Z" fill="#151515"/>
<path d="M83.5525 31.5H95.5V41.6191C95.2284 41.8079 94.5426 42.511 94.2528 42.7815C92.8607 44.0812 91.4866 45.4135 90.0967 46.7154L74.0496 61.882C73.5024 62.3963 72.9605 62.9288 72.3991 63.4261C72.5572 63.1289 72.6969 62.6922 72.8116 62.3682L73.4501 60.5141L82.3563 34.9164C82.7209 33.8671 83.1406 32.5155 83.5525 31.5Z" fill="#151515"/>
<path d="M51.4705 31.5H66.8926C66.8967 32.2824 66.8464 32.9166 66.8099 33.688L66.6343 37.581C66.6181 37.9226 66.5717 38.2707 66.5578 38.6113L65.5362 60.1219C65.5098 60.7773 65.4379 61.1737 65.443 61.8848C65.2982 61.6379 65.1127 61.2126 64.9869 60.9396L64.1737 59.1502L52.6902 34.1312C52.297 33.27 51.8969 32.3418 51.4705 31.5Z" fill="#151515"/>
<path d="M67.6738 31.5H83.0301C82.8567 31.7891 82.709 32.1727 82.5648 32.4844C82.2854 33.0768 82.0115 33.6717 81.7426 34.2691L72.3457 54.7521C71.2647 57.1061 70.1712 59.5923 69.0465 61.9148C69.0754 61.6329 69.0228 61.2978 69.0189 61.0078C69.0056 59.9819 68.9201 58.953 68.8714 57.9313L68.4687 49.056L67.9338 36.891L67.7648 33.3923C67.7373 32.7226 67.7632 32.1934 67.6738 31.5Z" fill="#151515"/>
<path d="M38.5 42.1786L56.8076 62.9224L58.307 64.6154C58.5698 64.9146 58.9409 65.366 59.21 65.6329C53.7539 63.7927 48.9834 62.7785 43.3177 61.9404C42.5352 61.8244 41.7516 61.7164 40.9669 61.6165C40.1518 61.5088 39.322 61.3949 38.5 61.3977V42.1786Z" fill="#151515"/>
<path d="M95.5 42.815V61.2973C93.9946 61.4186 92.107 61.7125 90.6322 61.9602C87.4513 62.4974 84.2959 63.1767 81.1754 63.9953C79.1993 64.5144 77.3452 65.081 75.3922 65.6354C75.6329 65.3989 75.8946 65.078 76.1233 64.8183L93.6762 44.8743C94.2648 44.2065 94.8938 43.4555 95.5 42.815Z" fill="#151515"/>
<path d="M115.185 59.2203C115.288 58.9725 115.438 58.7474 115.628 58.5579L122.056 52.1298C122.245 51.94 122.471 51.7895 122.718 51.6868C122.966 51.5841 123.232 51.5312 123.5 51.5312C123.768 51.5312 124.034 51.5841 124.281 51.6868C124.529 51.7895 124.754 51.94 124.944 52.1298L131.372 58.5579C131.562 58.7474 131.712 58.9725 131.815 59.2203C131.918 59.468 131.97 59.7336 131.97 60.0018C131.97 60.27 131.918 60.5356 131.815 60.7834C131.712 61.0312 131.562 61.2563 131.372 61.4458L124.944 67.8739C124.754 68.0636 124.529 68.2142 124.281 68.3169C124.034 68.4196 123.768 68.4724 123.5 68.4724C123.232 68.4724 122.966 68.4196 122.718 68.3169C122.471 68.2142 122.245 68.0636 122.056 67.8739L115.628 61.4458C115.438 61.2563 115.288 61.0312 115.185 60.7834C115.082 60.5356 115.029 60.27 115.029 60.0018C115.029 59.7336 115.082 59.468 115.185 59.2203Z" stroke="#FAD06B" stroke-width="2.54097" stroke-linecap="round"/>
<path d="M161.751 36.6772C162.058 36.6734 162.383 36.6568 162.692 36.6461C162.757 38.1689 162.708 40.0234 162.708 41.5665L162.71 50.6605L215.189 50.6629C217.504 50.6632 220.041 50.7135 222.343 50.6393C222.271 49.7444 222.322 48.3638 222.313 47.4193C222.291 45.121 222.341 42.8072 222.31 40.5071C223.906 40.4633 225.604 40.4871 227.208 40.4833C227.155 43.8697 227.236 47.2869 227.186 50.6759C228.073 50.5941 230.402 50.6601 231.362 50.6604C234.425 50.6716 237.488 50.667 240.552 50.6469C240.432 50.2222 240.356 49.663 240.27 49.2188L238.569 40.6842C238.484 41.0142 238.227 42.5143 238.157 42.9335C237.971 44.0551 237.418 46.0869 237.377 47.1137C235.956 47.0936 234.455 47.1006 233.033 47.1055C233.28 46.1799 234.209 40.916 234.482 40.5847C234.961 40.4344 237.433 40.4894 238.067 40.49C239.646 40.494 241.224 40.4898 242.802 40.4775C242.873 41.2595 243.24 42.7647 243.396 43.6018C243.834 45.9575 244.363 48.3207 244.807 50.6783C246.529 50.6009 248.496 50.6837 250.259 50.6488C250.389 50.4341 250.291 41.4992 250.311 40.5071C251.87 40.4525 253.627 40.4871 255.2 40.4831C255.149 43.5348 255.187 46.6803 255.185 49.7393L255.183 52.4928C255.183 53.0162 255.156 53.7927 255.232 54.2809C254.339 54.2241 252.868 54.2682 251.935 54.2686L162.664 54.2713C162.812 55.7033 162.598 57.5861 162.737 58.9947C160.081 58.9149 157.349 59.0273 154.686 58.9811C153.681 58.9637 152.5 58.9389 151.513 59.0186L151.531 55.3532C153.613 55.4007 155.747 55.3547 157.838 55.3752C157.789 54.7259 157.815 53.823 157.815 53.1592L157.817 49.372L157.808 36.6785C159.083 36.7116 160.471 36.6856 161.751 36.6772Z" fill="white"/>
<path d="M151.529 65.8244C152.422 65.874 153.65 65.845 154.556 65.8449L160.063 65.8365C161.103 70.3957 162.014 74.9928 163.031 79.5575C163.41 81.2593 163.775 82.954 164.071 84.6729C164.164 83.8936 164.121 82.9104 164.12 82.1036L164.12 77.8841C164.121 73.9741 164.21 69.7063 164.108 65.8307C165.495 65.8685 167.162 65.8672 168.547 65.8251L168.539 84.5641C168.549 84.7151 168.551 84.7484 168.523 84.8965C168.289 85.0306 160.981 84.92 159.945 84.9564C159.676 83.1549 159.046 80.6339 158.649 78.816L155.949 66.4011C155.902 67.0174 155.93 67.9167 155.931 68.5607L155.934 72.2722L155.923 84.9667C155.228 84.91 152.197 84.9089 151.524 84.9815C151.472 82.6143 151.52 80.057 151.52 77.674L151.529 65.8244Z" fill="white"/>
<path d="M173.975 65.8314C176.8 65.8772 179.712 65.8422 182.544 65.8407C183.522 69.6529 184.154 73.7179 185.035 77.5709C185.592 80.0069 186.107 82.5275 186.593 84.9768C186.033 84.9029 182.783 84.915 182.234 84.9778C182.005 84.1094 181.823 82.9666 181.616 82.0423C181.525 81.6891 181.482 81.4984 181.438 81.1369C179.466 81.1757 177.036 81.1883 175.073 81.132C174.91 82.2355 174.526 83.8148 174.29 84.9569C173.2 84.9068 170.995 84.9044 169.908 84.9539C170.273 83.4957 170.603 81.6822 170.917 80.1864L173.006 70.3238C173.261 69.1583 173.475 67.984 173.728 66.8182C173.8 66.4867 173.86 66.1515 173.975 65.8314ZM175.812 77.7368C176.585 77.6927 177.491 77.7164 178.274 77.7204C178.853 77.7178 180.193 77.6768 180.711 77.7334C180.519 77.1882 180.212 75.4623 180.084 74.8326L178.949 69.4416C178.855 68.9891 178.39 66.404 178.17 66.1945C178.05 67.5221 177.448 70.0633 177.144 71.4376C176.701 73.4419 176.311 75.7923 175.812 77.7368Z" fill="white"/>
<path d="M209.405 65.8139L209.527 65.8077C209.717 66.0093 209.637 66.8198 209.637 67.1298V76.8487C209.922 76.2029 211.263 74.1403 211.721 73.5112C211.984 73.149 214.485 73.2956 215.149 73.3007C215.11 72.4209 215.134 71.389 215.134 70.5002C215.129 68.9497 215.134 67.3991 215.149 65.8487C216.772 65.8318 218.406 65.868 220.028 65.8259C219.949 71.3598 220.048 76.9111 220.011 82.4467C220.006 83.2834 220.004 84.1328 220.023 84.9691C219.547 84.9173 218.796 84.937 218.297 84.9359C217.563 84.9351 215.786 84.8952 215.123 84.9831C215.162 82.3508 215.092 79.6942 215.15 77.0638L209.625 77.0487C209.657 79.6756 209.64 82.3443 209.635 84.973C209.107 84.9139 208.122 84.9347 207.577 84.9345C206.668 84.9343 205.66 84.9168 204.757 84.9606C204.689 83.0596 204.762 80.6413 204.763 78.7103L204.758 65.8372C206.056 65.8691 208.128 65.8864 209.405 65.8139Z" fill="white"/>
<path d="M198.385 65.8403C199.629 65.8436 202.101 65.9149 203.282 65.8017C202.998 66.4275 202.492 67.2509 202.14 67.8649L200.098 71.402L197.945 75.1433C197.561 75.8112 197.12 76.6255 196.7 77.2606C198.009 77.25 199.319 77.2528 200.628 77.2686L201.124 78.5723C201.308 79.2409 201.633 80.1034 201.867 80.7712C202.367 82.1674 202.848 83.5705 203.309 84.98C202.844 84.9168 201.96 84.9343 201.463 84.9343C200.427 84.9336 199.39 84.9392 198.353 84.9513C197.615 82.5951 196.638 79.918 195.807 77.5766C194.813 77.5904 193.819 77.5911 192.825 77.5787C192.911 79.9144 192.834 82.5953 192.844 84.9691C192.203 84.9052 191.075 84.9343 190.401 84.9322C189.755 84.9303 188.56 84.9061 187.958 84.9837C187.916 84.1343 187.95 82.9176 187.95 82.036L187.951 69.6609C187.95 68.4299 187.923 67.0587 187.974 65.8393C189.544 65.858 191.284 65.865 192.846 65.8264L192.842 72.2569C192.843 72.9866 192.889 74.9005 192.78 75.5171C193.182 75.007 194.195 73.1145 194.567 72.4784C195.853 70.2796 197.091 68.0367 198.385 65.8403Z" fill="white"/>
<path d="M222.343 65.8421L229.985 65.8455C231.33 65.8454 233.179 65.9013 234.475 65.8126C234.417 66.4304 234.428 68.85 234.485 69.4615C233.796 69.4131 232.716 69.4431 232.002 69.4425C230.398 69.439 228.793 69.4449 227.188 69.4602C227.256 71.5793 227.259 74.5151 227.191 76.632C227.806 75.8623 228.579 74.3482 229.235 73.4252C230.411 73.363 231.773 73.43 232.988 73.3982C232.947 74.4588 232.96 75.9267 232.986 76.9937C232.475 76.9463 231.658 76.9699 231.12 76.9707C229.937 76.9806 228.754 76.9766 227.571 76.9587C227.426 76.9477 227.372 76.9372 227.227 76.9788C227.116 77.323 227.213 80.7374 227.19 81.4041C227.749 81.3673 228.422 81.412 228.993 81.3976C230.747 81.353 232.747 81.4761 234.475 81.3731C234.423 82.4694 234.438 83.8565 234.463 84.9622C233.657 84.9108 232.685 84.9357 231.862 84.9356L224.365 84.9341C223.76 84.9343 222.901 84.9118 222.326 84.9823C222.286 84.3192 222.322 83.1965 222.322 82.5L222.321 77.7596C222.306 73.7871 222.314 69.8145 222.343 65.8421Z" fill="white"/>
<path d="M236.336 65.83C239.455 65.9001 242.607 65.805 245.728 65.8443C246.62 65.8555 247.555 65.856 248.444 65.8217C248.394 66.328 248.394 68.9606 248.459 69.4573C247.767 69.4126 246.711 69.4426 245.995 69.4423L241.187 69.4576C241.266 71.0038 241.176 72.6221 241.21 74.1757C241.227 74.9489 241.226 75.8285 241.177 76.5961C241.648 75.9881 242.022 75.3018 242.436 74.6568C242.68 74.2779 242.989 73.4702 243.499 73.4382C244.659 73.3653 245.828 73.4334 246.994 73.3952C246.939 74.4605 246.967 75.9069 246.981 76.989C246.457 76.9481 245.669 76.9707 245.123 76.9713C243.971 76.9781 242.819 76.9751 241.668 76.9623L241.187 76.9419C241.216 78.283 241.255 80.0811 241.187 81.403C243.465 81.2836 246.123 81.5013 248.453 81.3715C248.372 82.1148 248.416 84.1507 248.425 84.9619C247.676 84.9085 246.64 84.9356 245.874 84.9356L241.397 84.936L238.288 84.9331C237.785 84.9331 236.798 84.9069 236.335 85C236.405 82.6681 236.343 80.0056 236.344 77.6521L236.336 65.83Z" fill="white"/>
<path d="M250.318 65.8296C251.943 65.8505 253.568 65.8501 255.193 65.8287L255.187 76.309C255.188 77.9741 255.222 79.7566 255.171 81.4057C255.348 81.3928 255.51 81.3953 255.687 81.3937C257.604 81.376 259.542 81.4408 261.458 81.3665C261.489 81.7843 261.541 84.7265 261.444 84.9324L261.358 84.9556C259.411 84.86 257.017 84.966 255.02 84.9344C253.906 84.9167 251.329 84.8749 250.321 84.9823C250.267 84.2841 250.3 83.1877 250.3 82.4664L250.309 77.7381C250.311 73.8379 250.23 69.712 250.318 65.8296Z" fill="white"/>
<path d="M252.189 35.0721C253.391 34.7611 254.617 35.4856 254.92 36.6858C255.223 37.886 254.486 39.1022 253.279 39.3945C252.085 39.6835 250.882 38.9593 250.582 37.7723C250.283 36.5852 251 35.3797 252.189 35.0721Z" fill="white"/>
<path d="M238.007 35.0777C238.784 34.8684 239.613 35.091 240.18 35.6607C240.746 36.2304 240.961 37.0592 240.744 37.8312C240.526 38.6031 239.909 39.199 239.128 39.3917C237.938 39.6851 236.733 38.9696 236.426 37.7873C236.119 36.605 236.824 35.3965 238.007 35.0777Z" fill="white"/>
<path d="M224.424 55.3534C225.646 55.1656 226.788 56.0034 226.972 57.2218C227.155 58.4402 226.309 59.5749 225.086 59.7524C223.87 59.9289 222.739 59.0924 222.557 57.8812C222.375 56.6701 223.209 55.54 224.424 55.3534Z" fill="white"/>
<path d="M218.495 55.3609C219.706 55.1593 220.853 55.9708 221.061 57.1766C221.268 58.3824 220.46 59.529 219.251 59.742C218.033 59.9564 216.874 59.1437 216.664 57.9298C216.455 56.716 217.276 55.5639 218.495 55.3609Z" fill="white"/>
</svg>
