<svg width="250.56" height="58.56" viewBox="24.8 30.88 250.56 58.56" fill="none" xmlns="http://www.w3.org/2000/svg">
<path d="M29.4237 67.8377C30.4227 67.797 31.3346 68.5637 32.1736 69.0025C32.9008 69.3829 33.6291 69.7681 34.3593 70.1408C36.8595 71.4179 39.4283 72.5539 42.0538 73.5438C50.6181 76.7615 59.6375 78.5827 68.772 78.9387C69.5655 78.9706 70.4973 78.9508 71.2985 78.9507C79.2777 78.9184 87.208 77.6984 94.8323 75.3305C96.446 74.8199 98.0485 74.273 99.6377 73.6903C100.785 73.2601 102.031 72.6264 103.225 72.3742C103.741 72.2653 104.162 72.588 104.543 72.8891C104.617 73.1668 104.703 73.4337 104.649 73.7184C104.479 74.6285 102.847 75.5177 102.086 76.0375C100.669 76.9608 99.2054 77.808 97.6997 78.5755C83.1242 85.7997 66.3163 86.9812 50.8851 81.867C43.7906 79.4664 37.044 75.7892 31.3085 70.9336C30.7858 70.4912 27.9408 68.5112 29.4237 67.8377Z" fill="#FE9900"/>
<path d="M78.7368 55.728C79.0105 54.4679 79.4099 53.0459 79.7331 51.7814L82.773 39.9159C83.0093 38.9863 83.2382 38.0278 83.5064 37.1113C83.6273 36.8069 83.7348 36.297 84.0144 36.0999C84.7129 35.6163 85.7431 35.8214 86.5591 35.7767C86.9535 35.755 88.0741 35.7412 88.3197 36.0557C88.5589 36.855 87.8535 38.6398 87.5774 39.5087L82.072 57.303C81.8268 58.0955 81.6239 58.9607 81.2506 59.7031C81.0909 60.0206 80.9706 60.2106 80.6208 60.3197C80.0495 60.498 77.0123 60.5246 76.5306 60.2545C76.2541 60.0996 76.1055 59.8366 76 59.5461C75.7599 58.8852 75.6326 58.1635 75.4746 57.4783C75.256 56.5307 75.0307 55.5847 74.7989 54.6403L72.6946 45.8128C72.3495 44.3637 71.9934 42.6884 71.601 41.2674C71.2519 42.3572 70.8464 44.396 70.562 45.5966L68.4818 54.3589C68.1135 55.9152 67.7623 57.4822 67.3623 59.0298C67.1745 59.7564 66.9199 60.3796 66.0696 60.3753C64.935 60.3694 63.7206 60.4655 62.6004 60.3205C62.2982 60.2813 61.892 59.6369 61.8244 59.3553C61.4371 58.2478 61.1025 57.0714 60.7626 55.9426L56.3781 41.4179C55.961 40.0384 55.5276 38.6399 55.128 37.2551C55.0416 36.9557 54.936 36.3305 55.0679 36.0497C55.1472 35.8808 55.2881 35.8508 55.4552 35.801C56.1464 35.7577 58.8128 35.6991 59.3417 35.9658C59.9258 36.2605 60.4354 38.8338 60.6261 39.5916L61.8403 44.4278L63.6128 51.4461C63.9541 52.7951 64.3435 54.2341 64.638 55.5862C64.6871 54.9847 65.0004 53.7941 65.1503 53.1528L67.9393 41.228C68.2535 39.8846 68.5584 38.5345 68.8945 37.1974C69.0821 36.6467 69.1903 35.9226 69.9102 35.8432C70.965 35.7269 72.2227 35.7864 73.2909 35.8184C73.8339 35.8347 74.1538 36.306 74.2922 36.7908C74.5437 37.6714 74.7394 38.588 74.9505 39.49L77.7976 51.6407C78.1051 52.9515 78.4843 54.4244 78.7368 55.728Z" fill="white"/>
<path d="M41.9085 35.115C43.9141 34.9438 46.7507 35.3135 48.5321 36.2525C51.0106 37.5589 52.0894 40.0566 52.3015 42.7598C52.3968 43.9742 52.3047 45.4596 52.33 46.7092C52.3849 49.4139 52.1753 52.1568 52.5407 54.8438C52.701 56.0225 53.2927 56.8211 53.6867 57.8975C53.7622 58.1038 53.7989 58.4934 53.6734 58.6746C53.2354 59.3065 51.4159 60.4371 50.7407 60.6293C49.4129 60.0201 48.7447 58.4848 48.1015 57.2301C46.0215 60.0012 42.4614 61.3056 39.1047 61.0001C36.9226 60.8016 35.4532 60.1582 34.003 58.5028C32.4296 56.6961 32.1527 53.8365 32.7033 51.584C33.4737 48.4326 36.447 46.3775 39.5303 45.975C42.1614 45.6315 45.2387 45.965 47.805 46.6419C47.6188 44.6661 48.1699 41.1064 46.1229 39.8775C42.7693 37.8642 38.2202 39.4387 34.8488 40.6288C33.5913 41.0727 34.022 37.6216 34.3456 37.3789C36.374 35.858 39.4253 35.3254 41.9085 35.115ZM43.1136 57.1581C44.8307 56.6827 46.1856 55.9979 47.1572 54.3784C47.9177 53.1108 47.804 51.2169 47.8785 49.7506C47.2631 49.6667 46.672 49.5091 46.074 49.4215C44.7204 49.2232 43.3983 49.0687 42.0325 49.1597C38.8628 49.4675 37.0052 50.7615 37.361 54.2026C37.6924 57.407 40.5652 57.6845 43.1136 57.1581Z" fill="white"/>
<path d="M98.6174 35.062C100.84 34.782 104.77 35.4661 106.623 36.7929C106.918 37.0035 107.13 37.4478 107.145 37.7912C107.264 40.4602 107.174 40.7091 104.674 39.5722C102.14 38.5571 95.1604 37.8591 95.211 42.0719C95.2203 42.8231 95.5382 43.537 96.0894 44.0435C97.6614 45.5089 101.831 46.2314 103.935 47.1327C106.769 48.3461 108.541 50.1201 108.535 53.3933C108.525 58.7933 103.483 61.1753 98.7343 61.173C96.337 61.1546 93.3418 60.6412 91.2029 59.445C90.719 59.1743 90.4129 58.7625 90.3692 58.2213C90.1064 54.7294 90.856 55.618 93.4312 56.5514C96.3512 57.6097 104.115 58.4846 103.929 53.5359C103.853 51.5327 101.432 50.7899 99.8764 50.2785C97.6727 49.5539 95.0828 49.0313 93.1974 47.5873C90.38 45.3982 89.6839 41.1759 91.9569 38.3309C93.7451 36.0928 95.8983 35.4095 98.6174 35.062Z" fill="white"/>
<path d="M106.093 66.1244L106.125 66.1222C106.308 66.1119 107.024 66.1567 107.231 66.1721C108.601 66.274 110.685 66.4087 111.742 67.3629C112.509 69.3652 111.399 73.384 110.594 75.3383C109.901 77.0203 108.971 78.741 107.75 80.0985C107.337 80.5588 106.028 82.078 105.355 81.4733C105.124 80.9571 105.77 79.5494 105.974 79.0163C106.245 78.2953 106.509 77.5718 106.768 76.8461C107.248 75.3496 108.186 72.7677 108.041 71.2042C108.002 70.7875 107.855 70.3935 107.526 70.1238C106.192 69.0324 100.645 69.5956 98.8826 69.7872C98.3624 69.8438 97.8446 69.9558 97.3239 70.0016C97.0444 70.0263 96.7192 69.9673 96.501 69.7741C96.4141 69.6971 96.3566 69.5927 96.3547 69.4742C96.3527 69.2837 96.5025 69.0927 96.6229 68.9597C97.1146 68.4179 97.7724 68.0634 98.4194 67.7483C100.872 66.5549 103.413 66.2752 106.093 66.1244Z" fill="#FE9900"/>
<path d="M131.685 59.2203C131.788 58.9725 131.938 58.7474 132.128 58.5579L138.556 52.1298C138.745 51.94 138.971 51.7895 139.218 51.6868C139.466 51.5841 139.732 51.5312 140 51.5312C140.268 51.5312 140.534 51.5841 140.781 51.6868C141.029 51.7895 141.254 51.94 141.444 52.1298L147.872 58.5579C148.062 58.7474 148.212 58.9725 148.315 59.2203C148.418 59.468 148.47 59.7336 148.47 60.0018C148.47 60.27 148.418 60.5356 148.315 60.7834C148.212 61.0312 148.062 61.2563 147.872 61.4458L141.444 67.8739C141.254 68.0636 141.029 68.2142 140.781 68.3169C140.534 68.4196 140.268 68.4724 140 68.4724C139.732 68.4724 139.466 68.4196 139.218 68.3169C138.971 68.2142 138.745 68.0636 138.556 67.8739L132.128 61.4458C131.938 61.2563 131.788 61.0312 131.685 60.7834C131.582 60.5356 131.529 60.27 131.529 60.0018C131.529 59.7336 131.582 59.468 131.685 59.2203Z" stroke="#FAD06B" stroke-width="2.54097" stroke-linecap="round"/>
<path d="M179.579 44.0271C180.347 43.9831 181.261 44.0059 182.038 44.0057L188.771 44.0058C190.057 44.0041 191.173 43.8471 191.674 45.3594C192.259 47.1297 192.837 48.906 193.423 50.6761L197.621 63.4294L199.997 70.5765C200.317 71.5384 200.632 72.5564 200.965 73.5078C201.504 75.045 200.698 75.9841 199.136 75.9893C197.008 75.9962 194.867 75.9891 192.734 75.9885L190.303 75.9857C189.992 75.9845 189.325 75.9957 189.046 75.9589C188.954 75.9639 188.863 75.9678 188.772 75.9705C188.467 75.9789 187.908 75.9661 187.649 75.7992C186.759 75.2256 185.897 74.2583 185.124 73.5194C183.595 72.0753 182.075 70.6219 180.564 69.1594C180.222 70.4049 179.767 71.6363 179.353 72.8595C179.133 73.5122 178.963 74.205 178.699 74.8394C178.606 75.061 178.483 75.2929 178.319 75.4691C177.974 75.8404 177.357 75.936 176.881 75.9497C175.367 75.993 173.845 75.9395 172.331 75.9455C171.404 75.9492 170.336 76.0779 169.425 75.9264C169.053 75.8646 168.699 75.7267 168.424 75.4563C168.147 75.1841 168.007 74.8254 168 74.4353C167.986 73.5807 169.433 69.6554 169.809 68.5248L172.454 60.5751C174.128 55.5134 175.77 50.4394 177.467 45.3856C177.864 44.2017 178.448 44.0397 179.579 44.0271ZM181.998 64.6898C183.573 64.6907 185.531 64.6356 187.078 64.7071C186.677 63.7689 186.224 62.1023 185.899 61.104C185.475 59.7988 185 58.4251 184.615 57.1163C184.328 57.7518 184.039 58.7375 183.814 59.428L182.701 62.8001C182.573 63.192 182.203 64.3963 181.998 64.6898Z" fill="#D7D7D7"/>
<path d="M180.564 69.1594C180.222 70.4049 179.767 71.6363 179.353 72.8595C179.133 73.5122 178.963 74.205 178.699 74.8394C178.606 75.061 178.483 75.2929 178.319 75.4691C177.974 75.8404 177.357 75.936 176.881 75.9497C175.367 75.993 173.845 75.9395 172.331 75.9455C171.404 75.9492 170.336 76.0779 169.425 75.9264C169.053 75.8646 168.699 75.7267 168.424 75.4563C168.147 75.1841 168.007 74.8254 168 74.4353C167.986 73.5807 169.433 69.6554 169.809 68.5248L172.454 60.5751C174.128 55.5134 175.77 50.4394 177.467 45.3856C177.864 44.2017 178.448 44.0397 179.579 44.0271C179.631 44.1337 179.628 44.1111 179.731 44.1661C180.63 44.6439 180.72 45.3556 181.004 46.2321L181.853 48.7873C182.765 51.5312 183.745 54.3678 184.615 57.1163C184.328 57.7518 184.039 58.7375 183.814 59.428L182.701 62.8001C182.573 63.192 182.203 64.3963 181.998 64.6898C180.836 64.6886 178.58 64.6168 177.494 64.7083C177.065 65.0359 176.788 65.381 177.219 65.8975C177.566 66.3132 177.989 66.687 178.38 67.0615C179.113 67.7555 179.841 68.4548 180.564 69.1594Z" fill="#B8B8B8"/>
<path d="M181.998 64.6898C183.573 64.6907 185.531 64.6356 187.078 64.7071C187.344 65.3262 187.57 66.0803 187.784 66.73L188.791 69.7864C189.098 70.7138 189.412 71.6308 189.721 72.5646C189.946 73.2432 190.348 74.2368 190.104 74.9496C189.931 75.4569 189.414 75.6515 189.046 75.9589C188.954 75.9639 188.863 75.9678 188.772 75.9705C188.467 75.9789 187.908 75.9661 187.649 75.7992C186.759 75.2256 185.897 74.2583 185.124 73.5194C183.595 72.0753 182.075 70.6219 180.564 69.1594C179.841 68.4548 179.113 67.7555 178.38 67.0615C177.989 66.687 177.566 66.3132 177.219 65.8975C176.788 65.381 177.065 65.0359 177.494 64.7083C178.58 64.6168 180.836 64.6886 181.998 64.6898Z" fill="white"/>
<path d="M216.603 47.0988C217.36 47.1418 218.258 47.1173 219.026 47.1149L218.982 53.7114C218.972 54.7967 218.914 56.4922 218.989 57.5174L217.147 57.5135C217.137 54.8018 217.082 51.6649 217.288 49.0096C216.566 50.9189 215.817 52.8174 215.042 54.7044C214.721 55.5033 214.22 56.9081 213.858 57.5959C213.555 57.6181 213.017 57.6022 212.691 57.604C212.212 56.5419 211.779 55.3497 211.331 54.265C210.693 52.7244 210.064 51.1802 209.485 49.6157C209.427 49.3016 209.392 49.1771 209.283 48.8775C209.453 51.5681 209.322 54.4216 209.371 57.1326L209.382 57.6368C208.834 57.616 208.286 57.616 207.739 57.637C207.639 54.193 207.81 50.6088 207.705 47.1468C208.479 47.206 209.382 47.1484 210.194 47.188C210.826 48.5203 211.451 50.4709 212.049 51.8748C212.418 52.7421 213.197 54.5726 213.383 55.3912C213.52 54.4312 216.046 48.1658 216.603 47.0988Z" fill="white"/>
<path d="M255.881 49.9043C258.022 49.5876 260.01 51.1009 260.321 53.2848C260.633 55.4688 259.15 57.4971 257.01 57.816C254.868 58.1351 252.878 56.6215 252.566 54.436C252.254 52.2504 253.739 50.2211 255.881 49.9043ZM256.641 56.2937C257.257 56.1485 257.778 55.9329 258.094 55.3537C258.656 54.3235 258.647 52.2258 257.514 51.5624C257.008 51.2661 256.565 51.2694 256.024 51.3129C253.372 51.9152 253.76 56.5198 256.641 56.2937Z" fill="white"/>
<path d="M240.566 49.9082C242.696 49.6182 244.656 51.1353 244.957 53.306C245.256 55.4766 243.784 57.4879 241.659 57.8105C239.511 58.1366 237.513 56.615 237.21 54.4211C236.907 52.2272 238.413 50.2013 240.566 49.9082ZM241.335 56.2913C241.878 56.1491 242.505 55.8438 242.732 55.3028C243.555 53.3448 243.065 51.1129 240.673 51.3157C238.217 51.739 238.243 56.5022 241.335 56.2913Z" fill="white"/>
<path d="M213.428 62.4026L214.1 62.4066C214.467 63.1402 214.851 64.2642 215.162 65.0634C215.837 66.7768 216.499 68.4951 217.149 70.2182C217.396 70.867 217.886 72.2559 218.195 72.8292C217.539 72.8502 216.83 72.8389 216.169 72.8407C215.875 72.1817 215.456 70.8625 215.204 70.1347C214.46 70.1754 213.608 70.1577 212.855 70.1586C212.311 70.1634 211.594 70.1889 211.068 70.1339C210.951 70.7501 210.447 72.1905 210.229 72.8621C209.585 72.8338 208.904 72.8335 208.257 72.8228C208.73 71.2144 209.727 68.8051 210.348 67.153C210.736 66.1087 211.13 65.0672 211.533 64.0287C211.721 63.5448 211.971 62.8491 212.209 62.4032C212.606 62.411 213.029 62.4032 213.428 62.4026ZM214.763 68.7443C214.264 67.3847 213.776 66.0208 213.299 64.6528C213.266 64.4505 213.259 64.3988 213.173 64.2161C213.088 64.2863 213.107 64.3258 213.083 64.463C212.619 65.8071 212.104 67.4605 211.593 68.7597C211.952 68.7219 214.353 68.7099 214.763 68.7443Z" fill="white"/>
<path d="M213.083 64.463C213.107 64.3258 213.088 64.2863 213.173 64.2161C213.259 64.3988 213.266 64.4505 213.299 64.6528L213.22 64.8353L213.154 64.8595L213.083 64.463Z" fill="black" fill-opacity="0.0196078"/>
<path d="M243.171 65.1838C243.281 65.1735 243.39 65.1654 243.5 65.1595C245.688 65.0472 246.895 66.5116 246.93 68.6533C246.937 69.0627 246.995 69.5791 246.499 69.5762C244.912 69.5668 243.284 69.5199 241.7 69.5808C241.77 69.8987 241.844 70.34 241.996 70.6217C242.773 72.0669 244.52 71.9879 245.792 71.3145C245.964 71.2043 246.144 71.1065 246.322 71.0065C246.323 71.4809 246.32 71.9553 246.314 72.4296C243.819 73.7851 240.439 73.1388 240.13 69.8468C239.903 67.4318 240.811 65.7623 243.171 65.1838ZM241.728 68.3809C242.299 68.338 242.965 68.3555 243.545 68.3578C244.074 68.3574 244.696 68.3729 245.218 68.3508C245.06 67.2794 244.688 66.4763 243.515 66.4577C242.368 66.5676 241.904 67.2773 241.728 68.3809Z" fill="white"/>
<path d="M231.081 65.3345C231.578 65.3324 232.372 65.3509 232.839 65.2826L232.824 72.859C232.233 72.8293 231.634 72.8381 231.042 72.8404C231.038 72.3945 231.06 72.0218 231.088 71.5778C230.575 72.5821 229.936 72.9999 228.814 72.9952C225.959 72.9834 226.087 70.407 226.088 68.2813L226.09 65.3221C226.652 65.3304 227.215 65.3263 227.777 65.3098L227.811 65.3087C227.915 65.4455 227.808 69.4732 227.915 70.2139C228.205 72.2149 230.656 71.9238 230.954 70.388C231.219 69.0204 231.05 66.7903 231.081 65.3345Z" fill="white"/>
<path d="M224.401 65.3043C224.502 65.3116 224.785 65.285 224.9 65.2772C224.901 65.4896 224.914 65.7251 224.922 65.9394C224.612 66.4964 223.434 68.0244 223.02 68.5868C222.596 69.1619 221.268 71.0285 220.812 71.4399C222.171 71.41 223.498 71.4419 224.875 71.3956L224.867 72.856C223.081 72.797 221.118 72.8336 219.318 72.8345C219.047 72.8398 218.674 72.8704 218.434 72.7622C218.099 72.2306 220.431 69.4546 220.849 68.8928C221.362 68.2021 222.025 67.3146 222.587 66.6686C221.468 66.7432 220.048 66.6546 218.869 66.7012C218.847 66.2737 218.858 65.7485 218.856 65.3134C220.704 65.3278 222.553 65.3248 224.401 65.3043Z" fill="white"/>
<path d="M264.346 46.4577C264.946 46.4018 265.374 46.4205 265.967 46.5446C265.97 47.0023 265.979 47.4599 265.995 47.9173C265.818 47.8438 265.593 47.75 265.404 47.7232C263.774 47.4917 264.145 49.1479 264.008 50.1078C264.566 50.108 265.154 50.1183 265.707 50.0758L265.712 51.5335C265.176 51.546 264.547 51.553 264.02 51.5059C264.127 53.0779 264.054 55.537 264.054 57.1668C264.059 57.3245 264.074 57.4465 264.012 57.5925C263.893 57.6396 262.537 57.626 262.29 57.6322C262.221 56.995 262.272 55.3572 262.267 54.6199C262.262 53.9677 262.232 52.0601 262.304 51.5358C261.877 51.5295 261.449 51.5316 261.022 51.542C260.997 51.1059 261.01 50.5364 261.008 50.0902L262.287 50.1162C262.2 48.1183 262.257 47.0742 264.346 46.4577Z" fill="white"/>
<path d="M249.059 50.0532C250.896 50.0758 250.951 50.1075 250.925 51.8609C249.984 51.4233 248.742 50.9405 247.84 51.7908C247.541 52.073 247.662 52.5812 247.94 52.8227C248.092 52.9552 248.317 53.0347 248.504 53.103C249.54 53.5388 251.033 53.7355 251.343 55.0507C251.843 57.1738 249.434 57.9267 247.811 57.7885C247.146 57.7421 246.695 57.5832 246.08 57.3477C246.032 56.8599 246.047 56.1918 246.046 55.687C246.96 56.3488 248.542 56.868 249.506 56.0306C249.753 55.7677 249.681 55.2623 249.391 55.056C248.258 54.2484 246.22 54.2942 246.054 52.4981C245.877 50.5782 247.542 50.198 249.059 50.0532Z" fill="white"/>
<path d="M269.089 47.9446L269.168 47.9578C269.283 48.1628 269.23 49.7979 269.227 50.1396C269.825 50.136 270.393 50.1301 270.99 50.1009C270.977 50.5665 270.987 51.0835 270.985 51.5533C270.43 51.5509 269.775 51.5632 269.231 51.5137C269.25 52.8655 269.134 54.4716 269.319 55.8174C269.34 55.9721 269.519 56.1948 269.621 56.3226C270.209 56.391 270.466 56.4016 271 56.1573C270.981 56.555 270.992 57.0637 270.99 57.4695C270.566 57.5906 270.401 57.6191 269.969 57.6716C269.862 57.6779 269.755 57.6812 269.648 57.6814C267.233 57.6741 267.465 56.0901 267.474 54.2175L267.478 51.4082L266.205 51.4506L266.195 50.0333C266.612 50.0326 267.07 50.0193 267.481 50.0708C267.462 48.1304 267.145 48.2928 269.089 47.9446Z" fill="white"/>
<path d="M228.151 49.9975C228.923 49.8651 229.798 50.0932 230.539 50.2865C230.565 50.7952 230.553 51.4265 230.557 51.9447C228.516 50.6327 226.539 51.572 226.469 54.0364C226.415 55.9438 228.371 56.9767 229.944 56.1055C230.128 56.0037 230.37 55.8011 230.551 55.7961C230.544 56.2689 230.548 56.75 230.547 57.2236C230.123 57.4701 229.655 57.6286 229.17 57.6899C228.043 57.8347 226.862 57.7046 225.944 56.9688C224.041 55.4438 224.216 52.0379 226.218 50.6712C226.858 50.235 227.391 50.0845 228.151 49.9975Z" fill="white"/>
<path d="M235.267 49.9386C236.751 49.8615 236.495 50.3787 236.473 51.6964C236.181 51.5782 235.869 51.5181 235.555 51.519C234.199 51.5334 233.829 52.9432 233.819 54.0718C233.809 55.2225 233.812 56.3786 233.829 57.5285C233.279 57.5003 232.612 57.5142 232.053 57.511C232.02 55.0491 232.059 52.5217 232.048 50.0513L233.828 50.0428C233.821 50.6295 233.841 51.0919 233.714 51.6672C234.162 50.7156 234.297 50.321 235.267 49.9386Z" fill="white"/>
<path d="M238.226 65.1835C238.556 65.1335 238.84 65.2033 239.161 65.275C239.248 65.7208 239.285 66.5033 239.326 66.9886C238.097 66.5119 236.953 66.9543 236.73 68.3966C236.528 69.7028 236.648 71.479 236.655 72.8367C236.068 72.8305 235.48 72.8301 234.893 72.8355C234.811 70.438 234.925 67.7692 234.877 65.3191C235.472 65.3293 236.066 65.3257 236.66 65.3086C236.654 65.8926 236.635 66.3669 236.59 66.9488C236.936 66.0105 237.227 65.4614 238.226 65.1835Z" fill="white"/>
<path d="M221.12 50.0474L222.904 50.0389C222.874 52.5079 222.893 55.0635 222.904 57.5343C222.37 57.4966 221.682 57.5152 221.136 57.516C221.091 56.8542 221.128 55.7816 221.129 55.083C221.137 53.4045 221.134 51.726 221.12 50.0474Z" fill="white"/>
<path d="M222.074 46.5629C223.475 46.7804 223.525 48.2468 222.131 48.562C220.78 48.4804 220.423 46.9283 222.074 46.5629Z" fill="white"/>
<path d="M209.283 48.8775C209.392 49.1771 209.427 49.3016 209.485 49.6157C209.196 50.0622 209.684 56.2418 209.371 57.1326C209.322 54.4216 209.453 51.5681 209.283 48.8775Z" fill="#0078D4" fill-opacity="0.0823529"/>
</svg>
