<svg width="40" height="40" viewBox="0 0 40 40" fill="none" xmlns="http://www.w3.org/2000/svg">
<path d="M32.9061 19.9985H29.5992C29.0164 19.9972 28.4493 20.1869 27.9845 20.5385C27.5198 20.89 27.183 21.3842 27.0256 21.9453L23.8921 33.0928C23.8719 33.1621 23.8297 33.2229 23.772 33.2662C23.7143 33.3095 23.6442 33.3329 23.572 33.3329C23.4999 33.3329 23.4297 33.3095 23.372 33.2662C23.3143 33.2229 23.2722 33.1621 23.252 33.0928L15.8914 6.90408C15.8712 6.83484 15.8291 6.77401 15.7714 6.73073C15.7137 6.68746 15.6435 6.66406 15.5714 6.66406C15.4993 6.66406 15.4291 6.68746 15.3714 6.73073C15.3137 6.77401 15.2716 6.83484 15.2514 6.90408L12.1178 18.0516C11.961 18.6106 11.6262 19.1031 11.1642 19.4544C10.7021 19.8058 10.138 19.9968 9.55757 19.9985H6.2373" stroke="#FAD06B" stroke-width="2" stroke-linecap="round"/>
</svg>
