<svg width="40" height="40" viewBox="0 0 40 40" fill="none" xmlns="http://www.w3.org/2000/svg">
<path d="M25 34.9987V21.6654C25 21.2233 24.8244 20.7994 24.5118 20.4869C24.1993 20.1743 23.7754 19.9987 23.3333 19.9987H16.6667C16.2246 19.9987 15.8007 20.1743 15.4882 20.4869C15.1756 20.7994 15 21.2233 15 21.6654V34.9987M5 16.6662C4.99988 16.1813 5.10556 15.7022 5.30965 15.2624C5.51374 14.8225 5.81133 14.4325 6.18167 14.1195L17.8483 4.1195C18.45 3.61101 19.2123 3.33203 20 3.33203C20.7877 3.33203 21.55 3.61101 22.1517 4.1195L33.8183 14.1195C34.1887 14.4325 34.4863 14.8225 34.6904 15.2624C34.8944 15.7022 35.0001 16.1813 35 16.6662V31.6662C35 32.5502 34.6488 33.3981 34.0237 34.0232C33.3986 34.6483 32.5507 34.9995 31.6667 34.9995H8.33333C7.44928 34.9995 6.60143 34.6483 5.97631 34.0232C5.35119 33.3981 5 32.5502 5 31.6662V16.6662Z" stroke="#FAD06B" stroke-width="2" stroke-linecap="round"/>
</svg>
