<svg width="40" height="40" viewBox="0 0 40 40" fill="none" xmlns="http://www.w3.org/2000/svg">
<path d="M19.916 6.11704C19.7902 6.19354 19.6886 6.30295 19.6229 6.43294L16.1597 13.3023C15.9313 13.7548 15.5939 14.1463 15.1767 14.443C14.7594 14.7396 14.2748 14.9326 13.7644 15.0053L6.01762 16.1137C5.87019 16.1341 5.73158 16.1946 5.61757 16.2884C5.50357 16.3821 5.41876 16.5053 5.3728 16.644C5.32684 16.7826 5.32158 16.9311 5.35763 17.0725C5.39367 17.2139 5.46956 17.3426 5.57666 17.4438L11.1802 22.7833C11.55 23.1359 11.8267 23.5713 11.9864 24.0519C12.146 24.5325 12.1839 25.0438 12.0966 25.5419L10.7752 33.0866C10.7495 33.23 10.7654 33.3776 10.8212 33.5127C10.8769 33.6477 10.9703 33.7647 11.0906 33.8503C11.2109 33.936 11.3534 33.9869 11.5018 33.9972C11.6502 34.0075 11.7986 33.9769 11.9301 33.9087L18.855 30.3441C19.3113 30.1096 19.8191 29.987 20.3346 29.987C20.8501 29.987 21.3578 30.1096 21.8142 30.3441L28.7406 33.9087C28.8721 33.9773 29.0207 34.0082 29.1693 33.9981C29.318 33.988 29.4607 33.9372 29.5813 33.8515C29.7019 33.7657 29.7954 33.6486 29.8512 33.5133C29.907 33.3781 29.9229 33.2302 29.897 33.0866L28.5741 25.5405C28.4872 25.0426 28.5252 24.5315 28.6848 24.0513C28.8445 23.571 29.121 23.1358 29.4905 22.7833L35.094 17.4423C35.2002 17.341 35.2753 17.2125 35.3109 17.0715C35.3464 16.9306 35.3409 16.7827 35.295 16.6446C35.2491 16.5065 35.1647 16.3837 35.0512 16.2902C34.9378 16.1966 34.7999 16.136 34.653 16.1152L26.9047 15.0053C26.395 14.932 25.911 14.7388 25.4943 14.4422C25.0776 14.1455 24.7407 13.7544 24.5125 13.3023L21.0478 6.43294C20.982 6.30295 20.8805 6.19354 20.7546 6.11704C20.6287 6.04054 20.4835 6 20.3353 6C20.1872 6 20.0419 6.04054 19.916 6.11704Z" stroke="#FAD06B" stroke-width="2" stroke-linecap="round"/>
</svg>
