<svg width="40" height="40" viewBox="0 0 40 40" fill="none" xmlns="http://www.w3.org/2000/svg">
<path d="M18.8359 8.66406H9.5026C8.79536 8.66406 8.11708 8.94501 7.61699 9.44511C7.11689 9.94521 6.83594 10.6235 6.83594 11.3307V29.9974C6.83594 30.7046 7.11689 31.3829 7.61699 31.883C8.11708 32.3831 8.79536 32.6641 9.5026 32.6641H28.1693C28.8765 32.6641 29.5548 32.3831 30.0549 31.883C30.555 31.3829 30.8359 30.7046 30.8359 29.9974V20.6641M27.3361 8.16436C27.8665 7.63393 28.5859 7.33594 29.3361 7.33594C30.0862 7.33594 30.8056 7.63393 31.3361 8.16436C31.8665 8.6948 32.1645 9.41422 32.1645 10.1644C32.1645 10.9145 31.8665 11.6339 31.3361 12.1644L19.3187 24.183C19.0021 24.4994 18.611 24.7309 18.1814 24.8564L14.3507 25.9764C14.236 26.0098 14.1144 26.0118 13.9986 25.9822C13.8828 25.9525 13.7772 25.8923 13.6927 25.8078C13.6082 25.7233 13.5479 25.6176 13.5183 25.5018C13.4886 25.386 13.4906 25.2644 13.5241 25.1497L14.6441 21.319C14.7701 20.8898 15.0021 20.4991 15.3187 20.183L27.3361 8.16436Z" stroke="#FAD06B" stroke-width="2" stroke-linecap="round"/>
</svg>
