<svg width="60" height="60" viewBox="0 0 60 60" fill="none" xmlns="http://www.w3.org/2000/svg">
<rect x="0.5" y="0.5" width="59" height="59" rx="4.5" stroke="white" stroke-opacity="0.101961"/>
<path d="M29.6657 18.1003C29.5649 18.1659 29.4837 18.2597 29.4311 18.3711L26.6606 24.2591C26.4778 24.647 26.208 24.9825 25.8742 25.2368C25.5403 25.4911 25.1526 25.6565 24.7444 25.7188L18.5469 26.6689C18.429 26.6864 18.3181 26.7382 18.2269 26.8186C18.1357 26.899 18.0678 27.0046 18.0311 27.1234C17.9943 27.2422 17.9901 27.3695 18.0189 27.4907C18.0477 27.6119 18.1085 27.7222 18.1941 27.809L22.6769 32.3857C22.9728 32.6879 23.1942 33.0611 23.3219 33.473C23.4496 33.885 23.4799 34.3233 23.4101 34.7502L22.353 41.2171C22.3324 41.34 22.3451 41.4665 22.3898 41.5823C22.4344 41.698 22.509 41.7983 22.6053 41.8717C22.7016 41.9451 22.8155 41.9887 22.9343 41.9976C23.053 42.0064 23.1717 41.9802 23.2769 41.9218L28.8168 38.8664C29.1819 38.6653 29.5881 38.5603 30.0005 38.5603C30.4129 38.5603 30.8191 38.6653 31.1842 38.8664L36.7253 41.9218C36.8305 41.9805 36.9494 42.0071 37.0683 41.9984C37.1872 41.9897 37.3014 41.9462 37.3979 41.8727C37.4943 41.7992 37.5691 41.6988 37.6138 41.5829C37.6584 41.4669 37.6711 41.3402 37.6504 41.2171L36.5921 34.749C36.5226 34.3222 36.553 33.8842 36.6807 33.4725C36.8084 33.0608 37.0296 32.6879 37.3252 32.3857L41.808 27.8077C41.893 27.7208 41.9531 27.6107 41.9815 27.4899C42.0099 27.3691 42.0055 27.2423 41.9688 27.1239C41.9321 27.0056 41.8646 26.9003 41.7738 26.8201C41.683 26.7399 41.5727 26.688 41.4552 26.6701L35.2566 25.7188C34.8488 25.656 34.4616 25.4904 34.1283 25.2361C33.7949 24.9819 33.5254 24.6466 33.3428 24.2591L30.571 18.3711C30.5184 18.2597 30.4372 18.1659 30.3365 18.1003C30.2358 18.0347 30.1196 18 30.0011 18C29.8825 18 29.7664 18.0347 29.6657 18.1003Z" stroke="#F2C94C" stroke-width="2" stroke-linecap="round"/>
</svg>
