<svg width="48" height="48" viewBox="0 0 48 48" fill="none" xmlns="http://www.w3.org/2000/svg">
<path d="M40.6202 30.8752C39.4406 33.6657 37.5956 36.1246 35.2464 38.0371C32.8973 39.9495 30.1156 41.2572 27.1446 41.8458C24.1735 42.4344 21.1035 42.286 18.203 41.4137C15.3025 40.5413 12.6598 38.9714 10.5059 36.8414C8.35208 34.7113 6.75263 32.0859 5.84745 29.1947C4.94226 26.3035 4.75889 23.2345 5.31336 20.256C5.86784 17.2775 7.14328 14.4802 9.02818 12.1087C10.9131 9.73717 13.3501 7.86364 16.126 6.65188M40.2301 23.6608C41.2536 23.6608 42.0936 22.828 41.9916 21.8097C41.5641 17.5515 39.6777 13.5721 36.6521 10.5463C33.6265 7.52042 29.6479 5.63429 25.3908 5.20763C24.371 5.10561 23.5403 5.94583 23.5403 6.96966V21.8078C23.5403 22.2998 23.7357 22.7715 24.0834 23.1194C24.4311 23.4672 24.9028 23.6626 25.3945 23.6626L40.2301 23.6608Z" stroke="#FAD06B" stroke-width="2" stroke-linecap="round"/>
</svg>
