<svg width="48" height="48" viewBox="0 0 48 48" fill="none" xmlns="http://www.w3.org/2000/svg">
<path d="M27.125 6.19922H12.625C11.6636 6.19922 10.7416 6.57851 10.0617 7.25364C9.38192 7.92877 9 8.84444 9 9.79922V38.5992C9 39.554 9.38192 40.4697 10.0617 41.1448C10.7416 41.8199 11.6636 42.1992 12.625 42.1992H34.375C35.3364 42.1992 36.2584 41.8199 36.9383 41.1448C37.6181 40.4697 38 39.554 38 38.5992V16.9992M27.125 6.19922C27.6987 6.1983 28.267 6.31011 28.7971 6.52821C29.3271 6.74631 29.8085 7.06639 30.2135 7.47002L36.7167 13.9284C37.1243 14.3307 37.4475 14.8092 37.6677 15.3363C37.888 15.8634 38.0009 16.4286 38 16.9992M27.125 6.19922V15.1992C27.125 15.6766 27.316 16.1344 27.6559 16.472C27.9958 16.8096 28.4568 16.9992 28.9375 16.9992L38 16.9992M19.875 18.7992H16.25M30.75 25.9992H16.25M30.75 33.1992H16.25" stroke="#FAD06B" stroke-width="2" stroke-linecap="round"/>
</svg>
