<svg width="48" height="48" viewBox="0 0 48 48" fill="none" xmlns="http://www.w3.org/2000/svg">
<path d="M29 41.1983V26.4619C29 25.9733 28.8068 25.5048 28.463 25.1593C28.1192 24.8139 27.6529 24.6198 27.1667 24.6198H19.8333C19.3471 24.6198 18.8808 24.8139 18.537 25.1593C18.1932 25.5048 18 25.9733 18 26.4619V41.1983M7 20.9366C6.99987 20.4007 7.11611 19.8712 7.34061 19.385C7.56511 18.8989 7.89246 18.4678 8.29983 18.1219L21.1332 7.06955C21.795 6.50756 22.6335 6.19922 23.5 6.19922C24.3665 6.19922 25.205 6.50756 25.8668 7.06955L38.7002 18.1219C39.1075 18.4678 39.4349 18.8989 39.6594 19.385C39.8839 19.8712 40.0001 20.4007 40 20.9366V37.5151C40 38.4922 39.6137 39.4293 38.9261 40.1202C38.2384 40.8111 37.3058 41.1992 36.3333 41.1992H10.6667C9.69421 41.1992 8.76158 40.8111 8.07394 40.1202C7.38631 39.4293 7 38.4922 7 37.5151V20.9366Z" stroke="#FAD06B" stroke-width="2" stroke-linecap="round"/>
</svg>
