<svg width="60" height="60" viewBox="0 0 60 60" fill="none" xmlns="http://www.w3.org/2000/svg">
<path d="M35.6677 42V39.3333C35.6677 37.9188 35.1057 36.5623 34.1055 35.5621C33.1052 34.5619 31.7485 34 30.3339 34H22.3333C20.9187 34 19.562 34.5619 18.5617 35.5621C17.5615 36.5623 16.9995 37.9188 16.9995 39.3333V42M35.6677 18.1706C36.8114 18.4671 37.8244 19.1349 38.5475 20.0693C39.2706 21.0037 39.6629 22.1518 39.6629 23.3332C39.6629 24.5147 39.2706 25.6628 38.5475 26.5972C37.8244 27.5316 36.8114 28.1994 35.6677 28.4959M43.6683 41.9998V39.3332C43.6674 38.1515 43.2741 37.0035 42.55 36.0696C41.826 35.1357 40.8123 34.4686 39.668 34.1732M31.6674 23.3333C31.6674 26.2789 29.2793 28.6667 26.3336 28.6667C23.3878 28.6667 20.9998 26.2789 20.9998 23.3333C20.9998 20.3878 23.3878 18 26.3336 18C29.2793 18 31.6674 20.3878 31.6674 23.3333Z" stroke="#FAD06B" stroke-width="2" stroke-linecap="round"/>
</svg>
