<svg width="60" height="60" viewBox="0 0 60 60" fill="none" xmlns="http://www.w3.org/2000/svg">
<path d="M16.6537 29.5365C16.5425 29.8358 16.5425 30.1651 16.6537 30.4645C17.7359 33.0887 19.573 35.3324 21.932 36.9113C24.291 38.4901 27.0657 39.333 29.9043 39.333C32.7429 39.333 35.5176 38.4901 37.8766 36.9113C40.2356 35.3324 42.0727 33.0887 43.155 30.4645C43.2661 30.1651 43.2661 29.8358 43.155 29.5365C42.0727 26.9123 40.2356 24.6685 37.8766 23.0897C35.5176 21.5108 32.7429 20.668 29.9043 20.668C27.0657 20.668 24.291 21.5108 21.932 23.0897C19.573 24.6685 17.7359 26.9123 16.6537 29.5365Z" stroke="#FAD06B" stroke-width="2" stroke-linecap="round"/>
</svg>
