<svg width="40" height="40" viewBox="0 0 40 40" fill="none" xmlns="http://www.w3.org/2000/svg">
<path d="M27.2 35V31.4444C27.2 29.5585 26.4414 27.7497 25.0912 26.4161C23.7409 25.0825 21.9096 24.3333 20 24.3333H9.2C7.29044 24.3333 5.45909 25.0825 4.10883 26.4161C2.75857 27.7497 2 29.5585 2 31.4444V35M32.6 11.8889V22.5556M38 17.2222H27.2M21.8 10.1111C21.8 14.0385 18.5764 17.2222 14.6 17.2222C10.6235 17.2222 7.4 14.0385 7.4 10.1111C7.4 6.18375 10.6235 3 14.6 3C18.5764 3 21.8 6.18375 21.8 10.1111Z" stroke="#FAD06B" stroke-width="2" stroke-linecap="round"/>
</svg>
