<svg width="26" height="23" viewBox="0 0 26 23" fill="none" xmlns="http://www.w3.org/2000/svg">
<path d="M3.66667 22C7.34856 22 10.3333 19.0619 10.3333 15.4375L10.3333 1L6.33333 1C5.09337 1 4.47339 1 3.96472 1.13417C2.58436 1.49826 1.50617 2.5596 1.1363 3.9184C1 4.41912 1 5.02941 1 6.25C1 7.47059 1 8.08088 1.1363 8.5816C1.50617 9.9404 2.58436 11.0017 3.96472 11.3658C4.47339 11.5 5.09337 11.5 6.33333 11.5H10.3333M18.3333 22C22.0152 22 25 19.0619 25 15.4375V1L21 1C19.76 1 19.1401 1 18.6314 1.13417C17.251 1.49826 16.1728 2.5596 15.803 3.9184C15.6667 4.41912 15.6667 5.02941 15.6667 6.25C15.6667 7.47059 15.6667 8.08088 15.803 8.5816C16.1728 9.9404 17.251 11.0017 18.6314 11.3658C19.1401 11.5 19.76 11.5 21 11.5H25" stroke="#FAD06B" stroke-width="2" stroke-linecap="round" stroke-linejoin="round"/>
</svg>
