<svg width="40" height="40" viewBox="0 0 40 40" fill="none" xmlns="http://www.w3.org/2000/svg">
<path d="M22.4773 29.5624C21.977 31.2167 21.0565 32.7131 19.8055 33.9057C18.5545 35.0982 17.0157 35.9462 15.3394 36.3668C13.663 36.7875 11.9062 36.7665 10.2404 36.3059C8.57458 35.8452 7.05657 34.9607 5.83445 33.7386C4.61233 32.5165 3.72782 30.9985 3.2672 29.3326C2.80658 27.6668 2.78557 25.91 3.20622 24.2337C3.62688 22.5573 4.47483 21.0186 5.66738 19.7676C6.85992 18.5166 8.35634 17.596 10.0107 17.0957M24.5706 10.0026H26.2372V16.6693M9.79354 24.6152L11.2369 23.7819L14.5702 29.5552M36.2372 13.3359C36.2372 18.8588 31.7601 23.3359 26.2372 23.3359C20.7144 23.3359 16.2372 18.8588 16.2372 13.3359C16.2372 7.81309 20.7144 3.33594 26.2372 3.33594C31.7601 3.33594 36.2372 7.81309 36.2372 13.3359Z" stroke="#FAD06B" stroke-width="2" stroke-linecap="round"/>
</svg>
