<svg width="48" height="48" viewBox="0 0 48 48" fill="none" xmlns="http://www.w3.org/2000/svg">
<path d="M44.0015 24.0016C44.0015 35.0482 35.0465 44.0032 23.9999 44.0032M44.0015 24.0016C44.0015 12.955 35.0465 4 23.9999 4M44.0015 24.0016H3.99829M23.9999 44.0032C12.9533 44.0032 3.99829 35.0482 3.99829 24.0016M23.9999 44.0032C18.8639 38.6105 15.9993 31.4487 15.9993 24.0016C15.9993 16.5545 18.8639 9.39274 23.9999 4M23.9999 44.0032C29.1358 38.6105 32.0005 31.4487 32.0005 24.0016C32.0005 16.5545 29.1358 9.39274 23.9999 4M23.9999 4C12.9533 4 3.99829 12.955 3.99829 24.0016" stroke="#FAD06B" stroke-width="2" stroke-linecap="round"/>
</svg>
