<svg width="60" height="60" viewBox="0 0 60 60" fill="none" xmlns="http://www.w3.org/2000/svg">
<path d="M25.125 28.9973L28.375 32.1968L34.875 25.7979M43 30.5978C43 38.5964 37.3125 42.5958 30.5525 44.9154C30.1985 45.0335 29.814 45.0278 29.4638 44.8994C22.6875 42.5958 17 38.5964 17 30.5978V19.3996C17 18.9754 17.1712 18.5685 17.476 18.2685C17.7807 17.9685 18.194 17.7999 18.625 17.7999C21.875 17.7999 25.9375 15.8802 28.765 13.4486C29.1093 13.1591 29.5472 13 30 13C30.4528 13 30.8907 13.1591 31.235 13.4486C34.0788 15.8962 38.125 17.7999 41.375 17.7999C41.806 17.7999 42.2193 17.9685 42.524 18.2685C42.8288 18.5685 43 18.9754 43 19.3996V30.5978Z" stroke="#FAD06B" stroke-width="2" stroke-linecap="round"/>
</svg>
