<svg width="60" height="60" viewBox="0 0 60 60" fill="none" xmlns="http://www.w3.org/2000/svg">
<path d="M29.9536 43.2655C35.4997 41.3321 40.1659 37.9987 40.1659 31.3318V21.9982C40.1659 21.6445 40.0255 21.3054 39.7754 21.0553C39.5254 20.8053 39.1863 20.6648 38.8327 20.6648C36.1663 20.6648 32.8466 19.0781 30.5135 17.038C30.2311 16.7967 29.8718 16.6641 29.5003 16.6641C29.1288 16.6641 28.7695 16.7967 28.4871 17.038C26.1673 19.0647 22.8343 20.6648 20.1679 20.6648C19.8143 20.6648 19.4752 20.8053 19.2252 21.0553C18.9752 21.3054 18.8347 21.6445 18.8347 21.9982V31.3318C18.8347 37.9987 23.5009 41.3321 29.0604 43.2522C29.3477 43.3592 29.6632 43.364 29.9536 43.2655Z" stroke="#FAD06B" stroke-width="2" stroke-linecap="round"/>
</svg>
