<svg width="60" height="60" viewBox="0 0 60 60" fill="none" xmlns="http://www.w3.org/2000/svg">
<path d="M17.4567 21.856C16.6159 23.0786 16.1658 24.5274 16.1658 26.0112C16.1658 29.0779 18.1659 31.3446 20.1661 33.3446L27.5106 40.454C27.7627 40.7362 28.0719 40.9615 28.4178 41.115C28.7636 41.2685 29.1381 41.3466 29.5165 41.3442C29.8949 41.3418 30.2684 41.2589 30.6123 41.1011C30.9561 40.9432 31.2625 40.714 31.511 40.4287L38.8342 33.3446C40.8343 31.3446 42.8345 29.0646 42.8345 26.0112C42.8416 24.5242 42.3956 23.0703 41.5559 21.843C40.7162 20.6157 39.5226 19.6733 38.134 19.1411C36.7453 18.6089 35.2276 18.5122 33.7826 18.8639C32.3377 19.2156 31.0342 19.999 30.0455 21.1098C29.9757 21.1845 29.8912 21.244 29.7974 21.2847C29.7036 21.3255 29.6024 21.3465 29.5001 21.3465C29.3979 21.3465 29.2967 21.3255 29.2029 21.2847C29.1091 21.244 29.0246 21.1845 28.9548 21.1098C27.963 20.0062 26.6597 19.2293 25.2171 18.8818C23.7746 18.5344 22.2605 18.6326 20.8749 19.1637C19.4894 19.6947 18.2975 20.6335 17.4567 21.856Z" stroke="#FAD06B" stroke-width="2" stroke-linecap="round"/>
</svg>
