<svg width="60" height="60" viewBox="0 0 60 60" fill="none" xmlns="http://www.w3.org/2000/svg">
<rect x="0.5" y="0.5" width="59" height="59" rx="4.5" stroke="white" stroke-opacity="0.101961"/>
<path d="M17.832 28.833H21.832C22.5393 28.833 23.2176 29.114 23.7176 29.6141C24.2177 30.1142 24.4987 30.7926 24.4987 31.4999V35.5002C24.4987 36.2075 24.2177 36.8858 23.7176 37.386C23.2176 37.8861 22.5393 38.1671 21.832 38.1671H20.4987C19.7915 38.1671 19.1132 37.8861 18.6131 37.386C18.113 36.8858 17.832 36.2075 17.832 35.5002V28.833ZM17.832 28.833C17.832 27.257 18.1424 25.6964 18.7455 24.2404C19.3485 22.7844 20.2324 21.4614 21.3467 20.347C22.4611 19.2326 23.7839 18.3487 25.2398 17.7456C26.6957 17.1424 28.2562 16.832 29.832 16.832C31.4079 16.832 32.9683 17.1424 34.4242 17.7456C35.8801 18.3487 37.203 19.2326 38.3173 20.347C39.4316 21.4614 40.3155 22.7844 40.9186 24.2404C41.5216 25.6964 41.832 27.257 41.832 28.833M41.832 28.833V35.5002M41.832 28.833H37.832C37.1248 28.833 36.4465 29.114 35.9464 29.6141C35.4463 30.1142 35.1654 30.7926 35.1654 31.4999V35.5002C35.1654 36.2075 35.4463 36.8858 35.9464 37.386C36.4465 37.8861 37.1248 38.1671 37.832 38.1671H39.1654C39.8726 38.1671 40.5509 37.8861 41.051 37.386C41.5511 36.8858 41.832 36.2075 41.832 35.5002M41.832 35.5002V38.1671C41.832 39.5817 41.2701 40.9383 40.2699 41.9386C39.2697 42.9389 37.9132 43.5008 36.4987 43.5008H29.832" stroke="#F2C94C" stroke-width="2" stroke-linecap="round"/>
</svg>
