<svg width="60" height="60" viewBox="0 0 60 60" fill="none" xmlns="http://www.w3.org/2000/svg">
<rect x="0.5" y="0.5" width="59" height="59" rx="4.5" stroke="white" stroke-opacity="0.101961"/>
<path d="M29.1742 20C29.7048 20.0001 30.2135 20.211 30.5886 20.5861L39.2947 29.2923C39.7464 29.7469 40 30.3618 40 31.0027C40 31.6436 39.7464 32.2585 39.2947 32.7131L32.7131 39.2947C32.2585 39.7464 31.6436 40 31.0027 40C30.3618 40 29.7469 39.7464 29.2923 39.2947L20.5861 30.5886C20.211 30.2135 20.0001 29.7048 20 29.1742V22.0005C20 21.4699 20.2108 20.9611 20.5859 20.5859C20.9611 20.2108 21.4699 20 22.0005 20H29.1742Z" stroke="#F2C94C" stroke-width="2" stroke-linecap="round"/>
</svg>
