<svg width="60" height="60" viewBox="0 0 60 60" fill="none" xmlns="http://www.w3.org/2000/svg">
<rect x="0.5" y="0.5" width="59" height="59" rx="4.5" stroke="white" stroke-opacity="0.101961"/>
<path d="M33.75 41.25V31.25C33.75 30.9185 33.6183 30.6005 33.3839 30.3661C33.1495 30.1317 32.8315 30 32.5 30H27.5C27.1685 30 26.8505 30.1317 26.6161 30.3661C26.3817 30.6005 26.25 30.9185 26.25 31.25V41.25M18.75 27.5006C18.7499 27.1369 18.8292 26.7776 18.9822 26.4477C19.1353 26.1179 19.3585 25.8253 19.6363 25.5906L28.3862 18.0906C28.8375 17.7092 29.4092 17.5 30 17.5C30.5908 17.5 31.1625 17.7092 31.6138 18.0906L40.3638 25.5906C40.6415 25.8253 40.8647 26.1179 41.0178 26.4477C41.1708 26.7776 41.2501 27.1369 41.25 27.5006V38.7506C41.25 39.4136 40.9866 40.0495 40.5178 40.5184C40.0489 40.9872 39.413 41.2506 38.75 41.2506H21.25C20.587 41.2506 19.9511 40.9872 19.4822 40.5184C19.0134 40.0495 18.75 39.4136 18.75 38.7506V27.5006Z" stroke="#C9A44C" stroke-width="2.5" stroke-linecap="round"/>
</svg>
