<svg width="16" height="16" viewBox="0 0 16 16" fill="none" xmlns="http://www.w3.org/2000/svg">
<g clip-path="url(#clip0_11912_35360)">
<path d="M14.859 6.60238C15.1787 8.17129 14.9509 9.80237 14.2135 11.2236C13.4762 12.6449 12.2739 13.7704 10.8071 14.4125C9.34035 15.0546 7.69779 15.1744 6.15336 14.752C4.60894 14.3296 3.25599 13.3906 2.32015 12.0914C1.38431 10.7922 0.922146 9.21144 1.01073 7.61275C1.0993 6.01405 1.73328 4.49404 2.80691 3.3062C3.88055 2.11836 5.32896 1.33449 6.9106 1.0853C8.49224 0.836119 10.1115 1.13669 11.4983 1.93688M5.89863 7.30204L7.99863 9.40204L14.9986 2.40205" stroke="#FAD06B" stroke-width="2" stroke-linecap="round"/>
</g>
<defs>
<clipPath id="clip0_11912_35360">
<rect width="16" height="16" fill="white"/>
</clipPath>
</defs>
</svg>
