<svg width="16" height="16" viewBox="0 0 16 16" fill="none" xmlns="http://www.w3.org/2000/svg">
<path d="M6.6661 10H3.99943C3.29219 10 2.61391 10.281 2.11381 10.781C1.61372 11.2811 1.33276 11.9594 1.33276 12.6667V14M9.53589 11.0203L10.1512 10.7656M10.1512 9.2345L9.53589 8.97917M11.2339 8.15179L10.9786 7.53646M11.2339 11.8483L10.9786 12.4643M12.7651 8.15179L13.0204 7.53646M13.0197 12.4643L12.7651 11.8483M13.8477 9.2345L14.4637 8.97917M13.8477 10.7656L14.4637 11.021M13.9994 10C13.9994 11.1046 13.104 12 11.9994 12C10.8949 12 9.99943 11.1046 9.99943 10C9.99943 8.89543 10.8949 8 11.9994 8C13.104 8 13.9994 8.89543 13.9994 10ZM8.6661 4.66667C8.6661 6.13943 7.47219 7.33333 5.99943 7.33333C4.52667 7.33333 3.33276 6.13943 3.33276 4.66667C3.33276 3.19391 4.52667 2 5.99943 2C7.47219 2 8.6661 3.19391 8.6661 4.66667Z" stroke="#FAD06B" stroke-width="2" stroke-linecap="round"/>
</svg>
