<svg width="16" height="16" viewBox="0 0 16 16" fill="none" xmlns="http://www.w3.org/2000/svg">
<g clip-path="url(#clip0_11912_35429)">
<path d="M7.81427 1.38518C7.75831 1.41992 7.71318 1.4696 7.68396 1.52863L6.14463 4.64796C6.0431 4.85347 5.89315 5.03124 5.70769 5.16595C5.52222 5.30067 5.3068 5.38829 5.07996 5.42129L1.63663 5.92463C1.5711 5.93389 1.50949 5.96138 1.45881 6.00395C1.40814 6.04652 1.37044 6.10247 1.35002 6.16542C1.32959 6.22837 1.32725 6.29579 1.34327 6.36001C1.35929 6.42422 1.39303 6.48265 1.44063 6.52863L3.9313 8.95329C4.0957 9.1134 4.21869 9.31109 4.28966 9.52932C4.36062 9.74756 4.37743 9.97978 4.33863 10.206L3.7513 13.632C3.73987 13.6971 3.74695 13.7641 3.77173 13.8254C3.79652 13.8868 3.83801 13.9399 3.89149 13.9788C3.94498 14.0177 4.0083 14.0408 4.07426 14.0455C4.14023 14.0502 4.20618 14.0362 4.26463 14.0053L7.34263 12.3866C7.54549 12.2801 7.77118 12.2245 8.0003 12.2245C8.22942 12.2245 8.45511 12.2801 8.65796 12.3866L11.7366 14.0053C11.7951 14.0364 11.8611 14.0505 11.9272 14.0459C11.9933 14.0413 12.0567 14.0182 12.1103 13.9793C12.1639 13.9404 12.2055 13.8872 12.2303 13.8257C12.2551 13.7643 12.2621 13.6972 12.2506 13.632L11.6626 10.2053C11.624 9.97922 11.6409 9.74714 11.7119 9.52905C11.7828 9.31095 11.9057 9.11336 12.07 8.95329L14.5606 6.52796C14.6078 6.48193 14.6412 6.4236 14.657 6.35958C14.6728 6.29556 14.6704 6.2284 14.65 6.1657C14.6296 6.10299 14.5921 6.04724 14.5416 6.00476C14.4912 5.96227 14.4299 5.93475 14.3646 5.92529L10.9206 5.42129C10.694 5.38804 10.4789 5.30029 10.2937 5.1656C10.1085 5.0309 9.95875 4.85327 9.8573 4.64796L8.3173 1.52863C8.28808 1.4696 8.24295 1.41992 8.187 1.38518C8.13104 1.35044 8.06649 1.33203 8.00063 1.33203C7.93477 1.33203 7.87022 1.35044 7.81427 1.38518Z" stroke="#FAD06B" stroke-width="2" stroke-linecap="round"/>
</g>
<defs>
<clipPath id="clip0_11912_35429">
<rect width="16" height="16" fill="white"/>
</clipPath>
</defs>
</svg>
