<svg width="60" height="60" viewBox="0 0 60 60" fill="none" xmlns="http://www.w3.org/2000/svg">
<rect x="0.5" y="0.5" width="59" height="59" rx="4.5" stroke="white" stroke-opacity="0.101961"/>
<path d="M31.9084 37.6491C31.5082 38.9726 30.7717 40.1697 29.7709 41.1238C28.7701 42.0778 27.5392 42.7562 26.1981 43.0927C24.857 43.4292 23.4516 43.4124 22.1189 43.0439C20.7862 42.6754 19.5718 41.9678 18.5941 40.9901C17.6164 40.0124 16.9088 38.798 16.5403 37.4653C16.1718 36.1327 16.155 34.7273 16.4915 33.3862C16.8281 32.0451 17.5064 30.8141 18.4605 29.8133C19.4145 28.8125 20.6116 28.076 21.9351 27.6758M33.583 22.0013H34.9163V27.3346M21.7614 33.6914L22.9161 33.0247L25.5827 37.6434M42.9163 24.668C42.9163 29.0862 39.3346 32.668 34.9163 32.668C30.4981 32.668 26.9163 29.0862 26.9163 24.668C26.9163 20.2497 30.4981 16.668 34.9163 16.668C39.3346 16.668 42.9163 20.2497 42.9163 24.668Z" stroke="#F2C94C" stroke-width="2" stroke-linecap="round"/>
</svg>
