<svg width="16" height="16" viewBox="0 0 16 16" fill="none" xmlns="http://www.w3.org/2000/svg">
<path d="M6.66652 8H9.3334M6.66652 5.33333H9.3334M9.3334 14V12C9.3334 11.6464 9.19292 11.3072 8.94285 11.0572C8.69278 10.8071 8.35361 10.6667 7.99996 10.6667C7.64631 10.6667 7.30715 10.8071 7.05708 11.0572C6.80701 11.3072 6.66652 11.6464 6.66652 12V14M3.99964 6.66667H2.6662C2.31255 6.66667 1.97339 6.80714 1.72332 7.05719C1.47325 7.30724 1.33276 7.64638 1.33276 8V12.6667C1.33276 13.0203 1.47325 13.3594 1.72332 13.6095C1.97339 13.8595 2.31255 14 2.6662 14H13.3337C13.6874 14 14.0265 13.8595 14.2766 13.6095C14.5267 13.3594 14.6672 13.0203 14.6672 12.6667V6C14.6672 5.64638 14.5267 5.30724 14.2766 5.05719C14.0265 4.80714 13.6874 4.66667 13.3337 4.66667H12.0003M3.99964 14V3.33333C3.99964 2.97971 4.14013 2.64057 4.3902 2.39052C4.64027 2.14048 4.97943 2 5.33308 2H10.6668C11.0205 2 11.3597 2.14048 11.6097 2.39052C11.8598 2.64057 12.0003 2.97971 12.0003 3.33333V14" stroke="#FAD06B" stroke-width="2" stroke-linecap="round"/>
</svg>
