<svg width="16" height="16" viewBox="0 0 16 16" fill="none" xmlns="http://www.w3.org/2000/svg">
<g clip-path="url(#clip0_11912_35447)">
<path d="M14.6672 7.99923C14.6672 11.6814 11.6822 14.6664 7.99996 14.6664M14.6672 7.99923C14.6672 4.31704 11.6822 1.33203 7.99996 1.33203M14.6672 7.99923H1.33276M7.99996 14.6664C4.31777 14.6664 1.33276 11.6814 1.33276 7.99923M7.99996 14.6664C6.28798 12.8689 5.33308 10.4816 5.33308 7.99923C5.33308 5.51686 6.28798 3.12961 7.99996 1.33203M7.99996 14.6664C9.71194 12.8689 10.6668 10.4816 10.6668 7.99923C10.6668 5.51686 9.71194 3.12961 7.99996 1.33203M7.99996 1.33203C4.31777 1.33203 1.33276 4.31704 1.33276 7.99923" stroke="#FAD06B" stroke-width="2" stroke-linecap="round"/>
</g>
<defs>
<clipPath id="clip0_11912_35447">
<rect width="16" height="16" fill="white"/>
</clipPath>
</defs>
</svg>
