<svg width="16" height="16" viewBox="0 0 16 16" fill="none" xmlns="http://www.w3.org/2000/svg">
<g clip-path="url(#clip0_11912_35497)">
<path d="M4.80755 9.99939L1.77443 4.75897C1.64364 4.53287 1.58213 4.27333 1.59754 4.01256C1.61294 3.7518 1.70459 3.50131 1.86109 3.29219L2.93435 1.86541C3.05854 1.6998 3.21957 1.56538 3.4047 1.47281C3.58983 1.38023 3.79396 1.33203 4.00094 1.33203H12.0004C12.2074 1.33203 12.4115 1.38023 12.5966 1.47281C12.7817 1.56538 12.9428 1.6998 13.067 1.86541L14.1336 3.29219C14.2911 3.50064 14.3839 3.75079 14.4005 4.01156C14.4171 4.27233 14.3567 4.53223 14.2269 4.75897L11.1938 9.99939M7.33382 7.99936L3.4141 1.46551M8.66698 7.99936L12.5867 1.46551M5.33388 4.66563H10.6668M8.00036 11.9996V10.6661H7.66705M11.3335 11.3328C11.3335 13.1739 9.84118 14.6664 8.00036 14.6664C6.15954 14.6664 4.66726 13.1739 4.66726 11.3328C4.66726 9.49174 6.15954 7.99923 8.00036 7.99923C9.84118 7.99923 11.3335 9.49174 11.3335 11.3328Z" stroke="#FAD06B" stroke-width="2" stroke-linecap="round"/>
</g>
<defs>
<clipPath id="clip0_11912_35497">
<rect width="16" height="16" fill="white"/>
</clipPath>
</defs>
</svg>
