<svg width="60" height="60" viewBox="0 0 60 60" fill="none" xmlns="http://www.w3.org/2000/svg">
<rect x="0.5" y="0.5" width="59" height="59" rx="4.5" stroke="white" stroke-opacity="0.101961"/>
<path d="M41.2637 27.8373C41.7965 30.4522 41.4168 33.1706 40.1879 35.5394C38.9589 37.9082 36.9551 39.784 34.5105 40.8542C32.0659 41.9243 29.3283 42.1241 26.7542 41.4201C24.1802 40.7161 21.9253 39.1509 20.3655 36.9856C18.8058 34.8203 18.0355 32.1858 18.1832 29.5213C18.3308 26.8568 19.3874 24.3234 21.1768 22.3437C22.9662 20.3639 25.3802 19.0575 28.0163 18.6422C30.6524 18.2269 33.3511 18.7278 35.6626 20.0615M26.3297 29.0034L29.8297 32.5034L41.4963 20.8368" stroke="#F2C94C" stroke-width="2" stroke-linecap="round"/>
</svg>
