<svg width="60" height="60" viewBox="0 0 60 60" fill="none" xmlns="http://www.w3.org/2000/svg">
<rect x="0.5" y="0.5" width="59" height="59" rx="4.5" stroke="white" stroke-opacity="0.101961"/>
<path d="M33 20H29C28.4696 20 27.9609 20.2107 27.5858 20.5858C27.2107 20.9609 27 21.4696 27 22V33C27 33.5304 27.2107 34.0391 27.5858 34.4142C27.9609 34.7893 28.4696 35 29 35H37C37.5304 35 38.0391 34.7893 38.4142 34.4142C38.7893 34.0391 39 33.5304 39 33V26M33 20C33.3169 19.9992 33.6308 20.0612 33.9236 20.1824C34.2164 20.3036 34.4823 20.4815 34.706 20.706L38.294 24.294C38.5185 24.5177 38.6964 24.7836 38.8176 25.0764C38.9388 25.3692 39.0008 25.6831 39 26M33 20V25C33 25.2652 33.1054 25.5196 33.2929 25.7071C33.4804 25.8947 33.7348 26 34 26L39 26M23 25C22.4696 25 21.9609 25.2107 21.5858 25.5858C21.2107 25.9609 21 26.4696 21 27V38C21 38.5304 21.2107 39.0391 21.5858 39.4142C21.9609 39.7893 22.4696 40 23 40H31C31.3511 40 31.6959 39.9076 32 39.732C32.304 39.5565 32.5565 39.304 32.732 39" stroke="#F2C94C" stroke-width="2" stroke-linecap="round"/>
</svg>
