<svg width="16" height="16" viewBox="0 0 16 16" fill="none" xmlns="http://www.w3.org/2000/svg">
<g clip-path="url(#clip0_11912_35373)">
<path d="M7.44794 1.33203C7.80156 1.33211 8.14067 1.47264 8.39069 1.72273L14.1938 7.52588C14.495 7.82891 14.664 8.23877 14.664 8.66598C14.664 9.09318 14.495 9.50304 14.1938 9.80607L9.8068 14.1931C9.50377 14.4942 9.09391 14.6632 8.66671 14.6632C8.2395 14.6632 7.82965 14.4942 7.52661 14.1931L1.72346 8.38995C1.47338 8.13994 1.33284 7.80083 1.33276 7.44721V2.66548C1.33276 2.31182 1.47325 1.97266 1.72332 1.72259C1.97339 1.47252 2.31256 1.33203 2.66621 1.33203H7.44794Z" stroke="#FAD06B" stroke-width="2" stroke-linecap="round"/>
</g>
<defs>
<clipPath id="clip0_11912_35373">
<rect width="16" height="16" fill="white"/>
</clipPath>
</defs>
</svg>
