<svg width="16" height="16" viewBox="0 0 16 16" fill="none" xmlns="http://www.w3.org/2000/svg">
<path d="M8.00028 8.66491V13.9984M10.6668 11.3317L8.00028 8.66491L5.33376 11.3317M2.66747 9.93112C2.17219 9.42505 1.79856 8.8129 1.57489 8.14103C1.35121 7.46916 1.28335 6.75519 1.37645 6.05321C1.46955 5.35123 1.72116 4.67964 2.11223 4.08931C2.5033 3.49898 3.02357 3.0054 3.63364 2.64594C4.2437 2.28649 4.92756 2.07059 5.63341 2.01461C6.33927 1.95862 7.0486 2.06402 7.7077 2.32281C8.36679 2.58159 8.95835 2.98699 9.43758 3.50829C9.9168 4.02959 10.2711 4.65312 10.4737 5.33165H11.667C12.3106 5.33158 12.9372 5.53854 13.4542 5.92197C13.9712 6.30539 14.3512 6.84494 14.538 7.46092C14.7248 8.0769 14.7086 8.73664 14.4917 9.34269C14.2748 9.94874 13.8688 10.4689 13.3335 10.8265" stroke="#FAD06B" stroke-width="2" stroke-linecap="round"/>
</svg>
