<svg width="16" height="16" viewBox="0 0 16 16" fill="none" xmlns="http://www.w3.org/2000/svg">
<path d="M10.6668 13.332V2.66536C10.6668 2.31174 10.5264 1.9726 10.2763 1.72256C10.0262 1.47251 9.68705 1.33203 9.3334 1.33203H6.66652C6.31287 1.33203 5.97371 1.47251 5.72364 1.72256C5.47357 1.9726 5.33308 2.31174 5.33308 2.66536V13.332M2.6662 3.9987H13.3337C14.0702 3.9987 14.6672 4.59565 14.6672 5.33203V11.9987C14.6672 12.7351 14.0702 13.332 13.3337 13.332H2.6662C1.92977 13.332 1.33276 12.7351 1.33276 11.9987V5.33203C1.33276 4.59565 1.92977 3.9987 2.6662 3.9987Z" stroke="#FAD06B" stroke-width="2" stroke-linecap="round"/>
</svg>
